Source-HROTn_VROTd.ufo
<glyph name="exclam" format="2">
  <advance width="205"/>
  <unicode hex="0021"/>
  <outline>
    <contour>
      <point x="22.9504871165134" y="245.0" type="curve" name="UAXKFEJM"/>
      <point x="66.79110755007935" y="245.0" name="JZTQKWYQ"/>
      <point x="107.09619407771257" y="245.0" name="RJTDFYQY"/>
      <point x="139.62310601229376" y="245.0" type="curve" name="JLGIOBAH"/>
      <point x="160.8363094478902" y="389.0" name="IRLRDUYS"/>
      <point x="130.43071785686863" y="536.0" name="RQQKQTGE"/>
      <point x="49.820544801602225" y="680.0" type="curve" name="JWFWBWSW"/>
      <point x="15.87941930464794" y="680.0" name="YOEJJLCK"/>
      <point x="-25.83988078535836" y="680.0" name="UMWPQGKG"/>
      <point x="-73.92314190604361" y="680.0" type="curve" name="GDEEWQYC"/>
      <point x="9.515458273968989" y="536.0" name="EBJJZEHF"/>
      <point x="41.33526342736363" y="389.0" name="BXXBTHPD"/>
    </contour>
    <contour>
      <point x="-6.040890912135026" y="-16.0" type="curve" name="OODAGBVF"/>
      <point x="34.26419561549818" y="-16.0" name="ZPPAXNKC"/>
      <point x="88.00431098567577" y="31.0" name="RMONFRVX"/>
      <point x="110.6317279836453" y="88.0" type="curve" smooth="yes" name="VXVRKXLC"/>
      <point x="132.55203820042829" y="144.0" name="XOPGMKUX"/>
      <point x="116.28858223313767" y="191.0" name="LRDJWFZK"/>
      <point x="75.98349570550447" y="191.0" type="curve" smooth="yes" name="YTRAWADO"/>
      <point x="34.26419561549817" y="191.0" name="MNWYLZWF"/>
      <point x="-15.940385848746715" y="144.0" name="PVZUHHUI"/>
      <point x="-38.56780284671623" y="88.0" type="curve" smooth="yes" name="WHJTEWIT"/>
      <point x="-61.19521984468577" y="31.0" name="NGNRPXOQ"/>
      <point x="-47.76019100214134" y="-16.0" name="EQRVHCZD"/>
      <point x="-6.040890912135026" y="-16.0" type="curve" name="LLRNFALR"/>
      <point x="-6.040890912135026" y="-16.0" name="JUAKAZAP"/>
      <point x="-6.040890912135026" y="-16.0" name="LUBASZZH"/>
    </contour>
  </outline>
</glyph>
<glyph name="quotedbl" format="2">
  <advance width="366"/>
  <unicode hex="0022"/>
  <outline>
    <contour>
      <point x="-54.587878478679954" y="398.0" type="curve" name="BRAWXETQ"/>
      <point x="-14.989898732233314" y="398.0" name="IHEANHZC"/>
      <point x="21.77965388946717" y="398.0" name="LQONUVZZ"/>
      <point x="56.427886167607994" y="398.0" type="curve" name="RCVPUWHX"/>
      <point x="112.28932188134524" y="491.0" name="SVXRKGNS"/>
      <point x="115.82485578727798" y="587.0" name="DTRYZIOT"/>
      <point x="66.32738110421965" y="680.0" type="curve" name="VTNEMKKY"/>
      <point x="26.02229457658646" y="680.0" name="BUIWVREG"/>
      <point x="-19.232539419352577" y="680.0" name="CZCCAUTX"/>
      <point x="-66.60869375885127" y="680.0" type="curve" name="CSQMYDSS"/>
      <point x="-9.333044482740917" y="587.0" name="SRJGCSXL"/>
      <point x="-6.504617357994732" y="491.0" name="FOVJVYQE"/>
    </contour>
    <contour>
      <point x="112.9964286625318" y="398.0" type="curve" name="CMPQORHL"/>
      <point x="144.81623381592644" y="398.0" name="NYUWTDXN"/>
      <point x="174.51471862576145" y="398.0" name="VXLQFRZB"/>
      <point x="201.38477631085027" y="398.0" type="curve" name="AMRYWMNX"/>
      <point x="256.53910524340097" y="491.0" name="WQPDQAZD"/>
      <point x="259.3675323681472" y="587.0" name="NNFHGJOM"/>
      <point x="209.16295090390224" y="680.0" type="curve" name="BHBHOOVS"/>
      <point x="177.34314575050763" y="680.0" name="FVUEXRJN"/>
      <point x="141.98780669118025" y="680.0" name="DACDAUHB"/>
      <point x="103.09693372592014" y="680.0" type="curve" name="CRFIMTTH"/>
      <point x="159.66547622084394" y="587.0" name="ZGPBQCYE"/>
      <point x="161.78679656440357" y="491.0" name="TFZQOLSU"/>
    </contour>
  </outline>
</glyph>
<glyph name="numbersign" format="2">
  <advance width="494"/>
  <unicode hex="0023"/>
  <outline>
    <contour>
      <point x="-25.94321753800733" y="146.0" type="curve" name="PWRDYSNP"/>
      <point x="0.9268401470814354" y="146.0" name="VACECUNV"/>
      <point x="29.211111394543366" y="146.0" name="FXUTVCAV"/>
      <point x="54.666955517259055" y="146.0" type="curve" name="JJJAJOUH"/>
      <point x="36.28217920640884" y="98.0" name="BKTONFLT"/>
      <point x="10.826335083693124" y="48.0" name="OGPOVGWG"/>
      <point x="-19.57925650732841" y="0.0" type="curve" name="BENGPFKJ"/>
      <point x="18.604509676745153" y="0.0" name="FOTDEGAQ"/>
      <point x="56.788275860818715" y="0.0" name="WXJMUPUQ"/>
      <point x="92.85072170133265" y="0.0" type="curve" name="SNGEQRRN"/>
      <point x="122.54920651116765" y="48.0" name="PDVVUHIR"/>
      <point x="147.2979438526968" y="98.0" name="MBIZXOBM"/>
      <point x="166.3898269447336" y="146.0" type="curve" name="EEKTSNMQ"/>
      <point x="189.0172439427031" y="146.0" name="SJWWCRBX"/>
      <point x="212.35176772185918" y="146.0" name="LFKLOMKL"/>
      <point x="233.5649711574556" y="146.0" type="curve" name="LYJNTZME"/>
      <point x="215.1801948466054" y="98.0" name="YPYLPWSG"/>
      <point x="190.4314575050762" y="48.0" name="VCWVIXGN"/>
      <point x="160.02586591405463" y="0.0" type="curve" name="SPCGOXNO"/>
      <point x="193.96699141100896" y="0.0" name="MAUWTLHU"/>
      <point x="226.49390334559013" y="0.0" name="GULQVCBZ"/>
      <point x="256.19238815542514" y="0.0" type="curve" name="FWHOQCMA"/>
      <point x="285.89087296526014" y="48.0" name="YZKCHCNS"/>
      <point x="310.6396103067893" y="98.0" name="ZDVUOJAA"/>
      <point x="329.0243866176395" y="146.0" type="curve" name="COFQAZPF"/>
      <point x="355.1873375215418" y="146.0" name="XQPTBXLY"/>
      <point x="381.3502884254441" y="146.0" name="SOUNSIIN"/>
      <point x="405.3919189857867" y="146.0" type="curve" name="GUACJBQD"/>
      <point x="420.2411613907042" y="194.0" name="NNFDGPTC"/>
      <point x="430.84776310850236" y="243.0" name="IJKWOCNC"/>
      <point x="434.38329701443513" y="291.0" type="curve" name="WWGCHJLG"/>
      <point x="411.75588001646565" y="291.0" name="OJYGSLYR"/>
      <point x="389.12846301849606" y="291.0" name="COFIHMHP"/>
      <point x="365.0868324581535" y="291.0" type="curve" name="FUPLJLNI"/>
      <point x="369.32947314527274" y="323.0" name="HKUVCLLM"/>
      <point x="370.74368670764585" y="357.0" name="LRPKIEDX"/>
      <point x="370.0365799264593" y="389.0" type="curve" name="VJRYBCHW"/>
      <point x="391.9568901432423" y="389.0" name="SGQFWWGL"/>
      <point x="413.8772003600252" y="389.0" name="BCZJSHQF"/>
      <point x="434.38329701443513" y="389.0" type="curve" name="UUZVKPOP"/>
      <point x="430.1406563273158" y="437.0" name="ZHYDPSVN"/>
      <point x="420.2411613907042" y="486.0" name="DMRMLIJI"/>
      <point x="405.3919189857867" y="534.0" type="curve" name="RSCDKTDR"/>
      <point x="387.0071426749364" y="534.0" name="EPWQZQKC"/>
      <point x="367.2081528017131" y="534.0" name="ANWAYPTP"/>
      <point x="347.40916292848976" y="534.0" type="curve" name="TLINMLNP"/>
      <point x="334.6812408671319" y="582.0" name="UPZUNTNK"/>
      <point x="314.88225099390854" y="632.0" name="RABPNDBC"/>
      <point x="290.1335136523794" y="680.0" type="curve" name="XYMEVXCF"/>
      <point x="260.4350288425444" y="680.0" name="DMTSXSHS"/>
      <point x="229.32233047033634" y="680.0" name="KMDOGPUZ"/>
      <point x="197.50252531694167" y="680.0" type="curve" name="SZALAAIW"/>
      <point x="221.5441558772843" y="632.0" name="KFENBCCG"/>
      <point x="240.63603896932108" y="582.0" name="SKIKYOYZ"/>
      <point x="254.07106781186548" y="534.0" type="curve" name="NGJBIGNN"/>
      <point x="232.85786437626905" y="534.0" name="LKPRDKCS"/>
      <point x="210.93755415948607" y="534.0" name="RHLCHXIR"/>
      <point x="188.31013716151654" y="534.0" type="curve" name="SNSHNPAS"/>
      <point x="175.5822151001587" y="582.0" name="IVYPFXAD"/>
      <point x="156.49033200812192" y="632.0" name="USGERXYZ"/>
      <point x="131.74159466659276" y="680.0" type="curve" name="QOSEQQUE"/>
      <point x="97.80046916963846" y="680.0" name="BAXFOSNL"/>
      <point x="61.030916547938006" y="680.0" name="JQWMIEQX"/>
      <point x="22.847150363864444" y="680.0" type="curve" name="MICYEWNF"/>
      <point x="46.888780924207026" y="632.0" name="UIOBBQGC"/>
      <point x="65.98066401624382" y="582.0" name="TYPJNHYD"/>
      <point x="78.7085860776017" y="534.0" type="curve" name="XNCQIXDF"/>
      <point x="45.47456736183398" y="534.0" name="CSLVTLVH"/>
      <point x="9.412121521320017" y="534.0" name="BRAHXCLC"/>
      <point x="-25.94321753800733" y="534.0" type="curve" name="BKEDWDSW"/>
      <point x="-11.093975133089828" y="486.0" name="JFVSGOTI"/>
      <point x="-0.4873734152916427" y="437.0" name="GFVBIBZH"/>
      <point x="3.048160490641095" y="389.0" type="curve" name="EUETPTWH"/>
      <point x="35.57507242522229" y="389.0" name="HXCILCKD"/>
      <point x="68.10198435980345" y="389.0" name="XDMSSTXK"/>
      <point x="99.21468273201154" y="389.0" type="curve" name="DHMSJFXU"/>
      <point x="99.21468273201157" y="357.0" name="YATTTJWY"/>
      <point x="97.80046916963846" y="323.0" name="YHHDZADA"/>
      <point x="92.85072170133265" y="291.0" type="curve" name="EBPFIXCI"/>
      <point x="63.85934367268419" y="291.0" name="RBIVHBTM"/>
      <point x="33.45375208166266" y="291.0" name="NDDLTXXK"/>
      <point x="3.048160490641095" y="291.0" type="curve" name="VKQOCNYT"/>
      <point x="-1.194480196478196" y="243.0" name="LSAWGORE"/>
      <point x="-11.093975133089828" y="194.0" name="LAYKAUON"/>
    </contour>
    <contour>
      <point x="203.15937956643404" y="291.0" type="curve" name="GMDUMCHA"/>
      <point x="208.1091270347399" y="323.0" name="MQDLNOAK"/>
      <point x="209.52334059711296" y="357.0" name="NUBJHVLW"/>
      <point x="208.81623381592647" y="389.0" type="curve" name="UUEZRCLC"/>
      <point x="231.44365081389594" y="389.0" name="KOJROIOZ"/>
      <point x="254.07106781186548" y="389.0" name="ZHRBVASG"/>
      <point x="275.2842712474619" y="389.0" type="curve" name="BMHZJGRN"/>
      <point x="275.99137802864846" y="357.0" name="SSEXOPLH"/>
      <point x="274.57716446627535" y="323.0" name="NHDHOXTI"/>
      <point x="269.62741699796953" y="291.0" type="curve" name="QWMTTEGD"/>
      <point x="248.4142135623731" y="291.0" name="SOAWFIJU"/>
      <point x="225.78679656440357" y="291.0" name="BOIKJZWR"/>
    </contour>
  </outline>
</glyph>
<glyph name="dollar" format="2">
  <advance width="354"/>
  <unicode hex="0024"/>
  <outline>
    <contour>
      <point x="-13" y="-100" type="curve" name="KHLTMGJB"/>
      <point x="25" y="-100" name="PIRTVYKS"/>
      <point x="62" y="-100" name="VAYWNCSC"/>
      <point x="96" y="-100" type="curve" name="DUXZSWSK"/>
      <point x="121" y="-58" name="OZJJHFTF"/>
      <point x="143" y="-16" name="DRMNVRFQ"/>
      <point x="162" y="26" type="curve" name="ZJJCRWSC"/>
      <point x="238" y="46" name="YDHDLXAO"/>
      <point x="303" y="105" name="HIPNGXPY"/>
      <point x="321" y="210" type="curve" smooth="yes" name="JOVQNSYA"/>
      <point x="355" y="422" name="ZHXOQMGC"/>
      <point x="159" y="399" name="RJEEBTSQ"/>
      <point x="147" y="468" type="curve" smooth="yes" name="BWMXNLVK"/>
      <point x="139" y="516" name="LZNLAAWG"/>
      <point x="216" y="524" name="UTGYEOAL"/>
      <point x="300" y="467" type="curve" name="GUGDSMUF"/>
      <point x="291" y="522" name="YUFWCBPK"/>
      <point x="275" y="579" name="ASDRQHOH"/>
      <point x="254" y="634" type="curve" name="NPLFIFKQ"/>
      <point x="231" y="644" name="TFDEEKON"/>
      <point x="207" y="651" name="JEMCQVAL"/>
      <point x="185" y="655" type="curve" name="ICATSERV"/>
      <point x="171" y="693" name="LYMCVLHH"/>
      <point x="153" y="732" name="AFMNVUPL"/>
      <point x="133" y="770" type="curve" name="AGXBTGFI"/>
      <point x="102" y="770" name="XXKGCPMY"/>
      <point x="67" y="770" name="CYCGAGAV"/>
      <point x="31" y="770" type="curve" name="KJLAPQHN"/>
      <point x="51" y="729" name="AVQXNNPZ"/>
      <point x="70" y="688" name="CGKIOJWA"/>
      <point x="84" y="647" type="curve" name="YYXXYXQY"/>
      <point x="23" y="623" name="BJOALLAO"/>
      <point x="-8" y="560" name="WYRTFZIK"/>
      <point x="7" y="465" type="curve" smooth="yes" name="IGQCPHAJ"/>
      <point x="42" y="260" name="HOKUYNGQ"/>
      <point x="222" y="281" name="DGGTWGVN"/>
      <point x="211" y="211" type="curve" smooth="yes" name="MOAEGNAF"/>
      <point x="202" y="157" name="CIMFDXLE"/>
      <point x="121" y="156" name="XRIDLNXT"/>
      <point x="16" y="209" type="curve" name="EAXBRZQA"/>
      <point x="7" y="154" name="WLKRMGVP"/>
      <point x="-8" y="97" name="BHNVIOSW"/>
      <point x="-29" y="42" type="curve" name="WJQGDVWX"/>
      <point x="-2" y="32" name="ZJZWCOCK"/>
      <point x="26" y="24" name="PVTDGVTA"/>
      <point x="53" y="21" type="curve" name="VBZNNDDU"/>
      <point x="33" y="-19" name="BWJCKHNQ"/>
      <point x="12" y="-60" name="HCJTHDND"/>
    </contour>
  </outline>
</glyph>
<glyph name="percent" format="2">
  <advance width="723"/>
  <unicode hex="0025"/>
  <outline>
    <contour>
      <point x="156.08548006530793" y="260.0" type="curve" name="ODEZRPYM"/>
      <point x="251.54489552549182" y="260.0" name="GXSJKHQY"/>
      <point x="327.912427893639" y="354.0" name="THAFYUIW"/>
      <point x="300.33526342736366" y="478.0" type="curve" smooth="yes" name="DUQVBBNM"/>
      <point x="273.46520574227486" y="601.0" name="IZKDWQEO"/>
      <point x="156.7925868464945" y="694.0" name="AYFDDNSM"/>
      <point x="61.333171386310596" y="694.0" type="curve" smooth="yes" name="EOCAKEHY"/>
      <point x="-34.12624407387335" y="694.0" name="BTVMVHPM"/>
      <point x="-48.26837969760436" y="601.0" name="TOCUQTDQ"/>
      <point x="-20.69121523132901" y="478.0" type="curve" smooth="yes" name="UOPZMRUE"/>
      <point x="6.178842453759842" y="354.0" name="AGADNCYM"/>
      <point x="60.626064605123986" y="260.0" name="LMOAGFDN"/>
      <point x="156.08548006530793" y="260.0" type="curve" name="NEGEVGBO"/>
      <point x="156.08548006530793" y="260.0" name="NUYALHIW"/>
      <point x="156.08548006530793" y="260.0" name="QFPNKZTK"/>
    </contour>
    <contour>
      <point x="71.23266632292223" y="0.0" type="curve" name="PBSVJATX"/>
      <point x="108.70932572580926" y="0.0" name="IDTJSFCY"/>
      <point x="145.47887834750975" y="0.0" name="NFFVYXKN"/>
      <point x="180.12711062565057" y="0.0" type="curve" name="JDWFHOFB"/>
      <point x="399.3302127934803" y="224.0" name="YRUEDCMW"/>
      <point x="491.25409434773144" y="456.0" name="UADLVFYY"/>
      <point x="452.36322138247135" y="680.0" type="curve" name="CKCWVDKJ"/>
      <point x="422.66473657263634" y="680.0" name="BMCYJTUR"/>
      <point x="391.55203820042834" y="680.0" name="CBEZMPKW"/>
      <point x="359.7322330470337" y="680.0" type="curve" name="OFLWMSBR"/>
      <point x="393.6733585439879" y="456.0" name="OPWQDTIC"/>
      <point x="296.09262274024434" y="224.0" name="TAPFQKKJ"/>
    </contour>
    <contour>
      <point x="158.91390719005415" y="391.0" type="curve" name="YEBCKDJJ"/>
      <point x="124.26567491191327" y="391.0" name="IVWMLDOY"/>
      <point x="103.05247147631684" y="425.0" name="BLDOGXIH"/>
      <point x="91.03165619614555" y="478.0" type="curve" smooth="yes" name="WATACVLF"/>
      <point x="79.01084091597426" y="531.0" name="LEFWVALE"/>
      <point x="86.78901550902629" y="564.0" name="YCUFSAEB"/>
      <point x="121.43724778716711" y="564.0" type="curve" smooth="yes" name="YBYEDOWN"/>
      <point x="156.08548006530793" y="564.0" name="MITFRWRT"/>
      <point x="189.31949878107565" y="531.0" name="VKQEACIU"/>
      <point x="201.340314061247" y="478.0" type="curve" smooth="yes" name="OCRKKIZK"/>
      <point x="213.3611293414183" y="425.0" name="CJGTPRMG"/>
      <point x="193.56213946819497" y="391.0" name="EYIVCHYN"/>
      <point x="158.91390719005415" y="391.0" type="curve" name="DCTPUHVN"/>
      <point x="158.91390719005415" y="391.0" name="JYFXUJOM"/>
      <point x="158.91390719005415" y="391.0" name="NCFDZHPO"/>
    </contour>
    <contour>
      <point x="446.70636713297904" y="-14.0" type="curve" name="VYUCDSSR"/>
      <point x="522.3667927199397" y="-14.0" name="HBKLRHTY"/>
      <point x="626.3114895543621" y="80.0" name="FPTLHBFY"/>
      <point x="653.8886540206374" y="204.0" type="curve" smooth="yes" name="NEBQZEJU"/>
      <point x="680.0516049245398" y="327.0" name="XHOIEWUJ"/>
      <point x="617.1191013989369" y="420.0" name="QSXTDIPO"/>
      <point x="541.4586758119764" y="420.0" type="curve" smooth="yes" name="YBYJBUPV"/>
      <point x="465.79825022501575" y="420.0" name="XBJKWSYO"/>
      <point x="424.786056916196" y="327.0" name="XFXDVGJY"/>
      <point x="397.9159992311072" y="204.0" type="curve" smooth="yes" name="ZOZVBVAX"/>
      <point x="371.0459415460184" y="80.0" name="JNVXYFGT"/>
      <point x="371.0459415460184" y="-14.0" name="GOVFRRXY"/>
      <point x="446.70636713297904" y="-14.0" type="curve" name="XWCLZMTK"/>
      <point x="446.70636713297904" y="-14.0" name="PGYWWPNS"/>
      <point x="446.70636713297904" y="-14.0" name="YTPTFVZM"/>
    </contour>
    <contour>
      <point x="506.8104435338355" y="117.0" type="curve" name="ZXJJWDYX"/>
      <point x="479.23327906756015" y="117.0" name="VJMKLGJW"/>
      <point x="477.1119587240005" y="151.0" name="ZDDEGLGX"/>
      <point x="488.42566722298534" y="204.0" type="curve" smooth="yes" name="WFNZQMMY"/>
      <point x="499.7393757219701" y="257.0" name="OIUDZFPK"/>
      <point x="516.7099384704472" y="290.0" name="SOCBKLJT"/>
      <point x="544.2871029367226" y="290.0" type="curve" smooth="yes" name="ZCXMDSRR"/>
      <point x="571.8642674029979" y="290.0" name="AUEKXZMS"/>
      <point x="586.7135098079154" y="257.0" name="PQZNHRUO"/>
      <point x="575.3998013089306" y="204.0" type="curve" smooth="yes" name="DUZRNUJC"/>
      <point x="564.086092809946" y="151.0" name="OTUEDTVU"/>
      <point x="534.387608000111" y="117.0" name="OFVJHMIQ"/>
      <point x="506.8104435338355" y="117.0" type="curve" name="IVBNGEYH"/>
      <point x="506.8104435338355" y="117.0" name="QYGCKMNB"/>
      <point x="506.8104435338355" y="117.0" name="CTDLKJXZ"/>
    </contour>
  </outline>
</glyph>
<glyph name="ampersand" format="2">
  <advance width="448"/>
  <unicode hex="0026"/>
  <outline>
    <contour>
      <point x="360" y="201" type="curve" name="UWCKJGGV"/>
      <point x="365" y="225" name="WYWGSPAE"/>
      <point x="370" y="249" name="GHFTXBWD"/>
      <point x="372" y="273" type="curve" name="NFKSIWHS"/>
      <point x="384" y="273" name="TCALRSFM"/>
      <point x="397" y="273" name="WCRRULJN"/>
      <point x="408" y="273" type="curve" name="XYMKGKMO"/>
      <point x="413" y="322" name="FWVQQHYF"/>
      <point x="413" y="372" name="LIGUTPGQ"/>
      <point x="406" y="421" type="curve" name="LPGOCSIS"/>
      <point x="394" y="421" name="VQDQBOVE"/>
      <point x="382" y="421" name="XTHMHXTS"/>
      <point x="370" y="421" type="curve" name="LOGAPJBX"/>
      <point x="366" y="445" name="ZKKIGVZC"/>
      <point x="362" y="470" name="HFRVQRCB"/>
      <point x="356" y="494" type="curve" name="XYMFOMIH"/>
      <point x="324" y="494" name="TQOBWPEN"/>
      <point x="288" y="494" name="UWNOPFPT"/>
      <point x="251" y="494" type="curve" name="USHRPNIF"/>
      <point x="257" y="470" name="RZAPTRNM"/>
      <point x="262" y="445" name="YEICMZMJ"/>
      <point x="265" y="421" type="curve" name="JKHMQELL"/>
      <point x="198" y="421" name="GGASUPXB"/>
      <point x="151" y="434" name="XFZBRVTV"/>
      <point x="142" y="475" type="curve" smooth="yes" name="FPUJDRAI"/>
      <point x="129" y="538" name="XNRWMJJM"/>
      <point x="220" y="544" name="EOXDTIVS"/>
      <point x="300" y="511" type="curve" name="DLJFTQAN"/>
      <point x="286" y="565" name="WCCSDGDA"/>
      <point x="263" y="620" name="YDVAOPDW"/>
      <point x="234" y="674" type="curve" name="AIDYSDTN"/>
      <point x="79" y="724" name="ZSPZNRAP"/>
      <point x="-43" y="669" name="TIMWABYF"/>
      <point x="1" y="492" type="curve" smooth="yes" name="JXJOMDGO"/>
      <point x="15" y="432" name="ETFHYWLE"/>
      <point x="39" y="381" name="MLTYLTDQ"/>
      <point x="79" y="344" type="curve" name="DLKZRPSD"/>
      <point x="31" y="304" name="MZRMIFPB"/>
      <point x="1" y="247" name="USUMWQIB"/>
      <point x="-16" y="180" type="curve" smooth="yes" name="JXQQPHMY"/>
      <point x="-47" y="57" name="TJDADQSW"/>
      <point x="-4" y="-17" name="QZKQZTNP"/>
      <point x="102" y="-17" type="curve" smooth="yes" name="VFFCJOTL"/>
      <point x="215" y="-17" name="PLDXEKLY"/>
      <point x="331" y="66" name="ORSVLLSX"/>
      <point x="360" y="201" type="curve" name="TDMWLAYD"/>
      <point x="360" y="201" name="IFUYEGZX"/>
      <point x="360" y="201" name="ARZRNAPQ"/>
    </contour>
    <contour>
      <point x="131" y="205" type="curve" name="SIYQHMWV"/>
      <point x="143" y="263" name="UNLEGDCB"/>
      <point x="192" y="273" name="GSZHTEJL"/>
      <point x="267" y="273" type="curve" name="CTKZPHHW"/>
      <point x="265" y="254" name="PKDJAHMW"/>
      <point x="262" y="234" name="IMOSHBSH"/>
      <point x="259" y="215" type="curve" smooth="yes" name="BMCAUHNY"/>
      <point x="249" y="165" name="MJAIIQPY"/>
      <point x="215" y="137" name="HATVCKWL"/>
      <point x="175" y="137" type="curve" smooth="yes" name="RJSPBNLG"/>
      <point x="136" y="137" name="PZTFEKSE"/>
      <point x="123" y="166" name="CDWVHRZQ"/>
      <point x="131" y="205" type="curve" name="TNBJYVAD"/>
      <point x="131" y="205" name="GQSRNTNI"/>
      <point x="131" y="205" name="YRVSOBZF"/>
    </contour>
  </outline>
</glyph>
<glyph name="quotesingle" format="2">
  <advance width="211"/>
  <unicode hex="0027"/>
  <outline>
    <contour>
      <point x="-29.20384181603731" y="398.0" type="curve" name="UAEQMGQS"/>
      <point x="9.687031149222818" y="398.0" name="DZRAGERI"/>
      <point x="42.921049864990565" y="398.0" name="BYSQPENC"/>
      <point x="70.49821433126591" y="398.0" type="curve" name="BTSPJKUW"/>
      <point x="126.35965004500315" y="491.0" name="ZOWUMEAZ"/>
      <point x="128.4809703885628" y="587.0" name="ZNJDBIKS"/>
      <point x="78.98349570550448" y="680.0" type="curve" name="QOLZUEIQ"/>
      <point x="47.16369055210984" y="680.0" name="GLXXBLJU"/>
      <point x="6.8586040244766195" y="680.0" name="MCUYKJOW"/>
      <point x="-40.51755031502205" y="680.0" type="curve" name="VNDZIQVT"/>
      <point x="16.050992179901726" y="587.0" name="QHBSXILA"/>
      <point x="19.586526085834464" y="491.0" name="IOAAKJSO"/>
    </contour>
  </outline>
</glyph>
<glyph name="parenleft" format="2">
  <advance width="326"/>
  <unicode hex="0028"/>
  <outline>
    <contour>
      <point x="20.164430200317383" y="305.0" type="curve" name="RSMPYDZB"/>
      <point x="20.164430200317383" y="-4.0" name="BTKVQRFF"/>
      <point x="59.76240994676408" y="-166.0" name="HTNSLNRR"/>
      <point x="163.70710678118655" y="-191.0" type="curve" name="DPHTZKAV"/>
      <point x="191.2842712474619" y="-142.0" name="SIUDKENB"/>
      <point x="216.0330085889911" y="-90.0" name="SCHHESKV"/>
      <point x="235.12489168102786" y="-41.0" type="curve" name="PDXUWWRV"/>
      <point x="170.07106781186548" y="-7.0" name="NLXCFGCY"/>
      <point x="153.10050506338834" y="88.0" name="PZDRSFCT"/>
      <point x="153.10050506338834" y="305.0" type="curve" smooth="yes" name="KEZVIHSS"/>
      <point x="153.10050506338834" y="522.0" name="INWVQWRK"/>
      <point x="170.07106781186548" y="617.0" name="WLZEAFML"/>
      <point x="235.12489168102786" y="651.0" type="curve" name="MWKIPRTY"/>
      <point x="216.0330085889911" y="700.0" name="GMANSJJU"/>
      <point x="191.2842712474619" y="752.0" name="BOQKWZGT"/>
      <point x="163.70710678118655" y="801.0" type="curve" name="MVPRRIMG"/>
      <point x="59.76240994676408" y="776.0" name="MRXXNJYT"/>
      <point x="20.164430200317383" y="614.0" name="WPCWGXNN"/>
      <point x="20.164430200317383" y="305.0" type="curve" name="KZZEFDLR"/>
      <point x="20.164430200317383" y="305.0" name="RCIOCJMT"/>
      <point x="20.164430200317383" y="305.0" name="FDKPBVNI"/>
    </contour>
  </outline>
</glyph>
<glyph name="parenright" format="2">
  <advance width="326"/>
  <unicode hex="0029"/>
  <outline>
    <contour>
      <point x="303.71424945612296" y="306.0" type="curve" name="XGBHGHRA"/>
      <point x="303.71424945612296" y="615.0" name="FKWHARGP"/>
      <point x="71.78322522693537" y="777.0" name="SBBAMCWR"/>
      <point x="-119.84271247461902" y="802.0" type="curve" name="PNUWLXYH"/>
      <point x="-91.55844122715712" y="752.0" name="MMWQNHNC"/>
      <point x="-68.22391744800103" y="702.0" name="KMXNECFG"/>
      <point x="-48.42492757477771" y="652.0" type="curve" name="QRJBJARE"/>
      <point x="83.09693372592011" y="618.0" name="BEPLNOWT"/>
      <point x="199.06244584051393" y="523.0" name="UFJLWYKL"/>
      <point x="199.06244584051393" y="306.0" type="curve" smooth="yes" name="JKEQPEMW"/>
      <point x="199.06244584051393" y="89.0" name="WHPUHNIX"/>
      <point x="83.09693372592011" y="-6.0" name="KLBSQHPH"/>
      <point x="-48.42492757477771" y="-40.0" type="curve" name="DDJSHQXZ"/>
      <point x="-68.22391744800103" y="-90.0" name="IZPYNESK"/>
      <point x="-91.55844122715712" y="-140.0" name="RFIMKJKD"/>
      <point x="-119.84271247461902" y="-190.0" type="curve" name="HZRNNSOF"/>
      <point x="71.78322522693537" y="-165.0" name="JVZATBAF"/>
      <point x="303.71424945612296" y="-3.0" name="KSKPBKAF"/>
      <point x="303.71424945612296" y="306.0" type="curve" name="QIZHBXAU"/>
      <point x="303.71424945612296" y="306.0" name="LQGVBOEM"/>
      <point x="303.71424945612296" y="306.0" name="PFOXVISJ"/>
    </contour>
  </outline>
</glyph>
<glyph name="asterisk" format="2">
  <advance width="434"/>
  <unicode hex="002A"/>
  <outline>
    <contour>
      <point x="161" y="205" type="curve" name="JUYLRINL"/>
      <point x="201" y="228" name="DDHUTAIF"/>
      <point x="240" y="253" name="CNQVYLFQ"/>
      <point x="274" y="276" type="curve" name="BUDHMPUT"/>
      <point x="276" y="311" name="ZKLBJCSH"/>
      <point x="272" y="348" name="METWDSYD"/>
      <point x="265" y="383" type="curve" name="LPOCFPHR"/>
      <point x="291" y="383" name="WLSVIHKD"/>
      <point x="317" y="383" name="NAVURQME"/>
      <point x="339" y="383" type="curve" name="UVXSKHTA"/>
      <point x="347" y="430" name="XOOGGAPP"/>
      <point x="348" y="478" name="SUHCURZF"/>
      <point x="339" y="525" type="curve" name="MVUZCFJO"/>
      <point x="317" y="525" name="KVKZMTFI"/>
      <point x="291" y="525" name="WFSQVBMB"/>
      <point x="265" y="525" type="curve" name="ASSVWPER"/>
      <point x="272" y="560" name="WOQAVBUD"/>
      <point x="276" y="597" name="HGRITNKD"/>
      <point x="274" y="632" type="curve" name="NQGJRHCT"/>
      <point x="240" y="655" name="UVKRQRQA"/>
      <point x="201" y="680" name="QHEGMIOR"/>
      <point x="161" y="703" type="curve" name="TAHSJRCG"/>
      <point x="168" y="667" name="VGNSXGQH"/>
      <point x="169" y="631" name="MBNDRTFF"/>
      <point x="167" y="595" type="curve" name="KPQQARFP"/>
      <point x="141" y="631" name="LBDYAHZK"/>
      <point x="109" y="667" name="WXUAZDDB"/>
      <point x="73" y="703" type="curve" name="HNYEWNOQ"/>
      <point x="57" y="680" name="UHFXEHUT"/>
      <point x="36" y="655" name="OAGHDNTV"/>
      <point x="13" y="632" type="curve" name="OKFFLZVB"/>
      <point x="44" y="597" name="BCWCHVIZ"/>
      <point x="71" y="560" name="BXRDTUYX"/>
      <point x="93" y="525" type="curve" name="UBNBJLLT"/>
      <point x="61" y="525" name="AEMTZIUM"/>
      <point x="27" y="525" name="QVCVCVCI"/>
      <point x="-9" y="525" type="curve" name="JFIKZVSY"/>
      <point x="-1" y="478" name="MAXXWLEJ"/>
      <point x="0" y="430" name="XONRVYHO"/>
      <point x="-9" y="383" type="curve" name="ZVLTKNQR"/>
      <point x="27" y="383" name="BKXLVQEO"/>
      <point x="61" y="383" name="NHWEFMHT"/>
      <point x="93" y="383" type="curve" name="BQYWNUQQ"/>
      <point x="71" y="348" name="RDBXNFVF"/>
      <point x="44" y="311" name="YVFCMOKY"/>
      <point x="13" y="276" type="curve" name="LRRZYOAI"/>
      <point x="37" y="253" name="IRPXXXAD"/>
      <point x="57" y="228" name="MPLOXFXN"/>
      <point x="73" y="205" type="curve" name="ENPVCDUD"/>
      <point x="109" y="241" name="RZFQSTHI"/>
      <point x="141" y="277" name="KGGOEJEG"/>
      <point x="167" y="313" type="curve" name="BBUSZCCQ"/>
      <point x="170" y="277" name="XJHYPETX"/>
      <point x="168" y="241" name="MMRALEEO"/>
    </contour>
  </outline>
</glyph>
<glyph name="plus" format="2">
  <advance width="382"/>
  <unicode hex="002B"/>
  <outline>
    <contour>
      <point x="-17.596500450031527" y="231.0" type="curve" name="FDPRJIMK"/>
      <point x="24.829906421161326" y="231.0" name="HJJTOGSE"/>
      <point x="65.84209972998107" y="231.0" name="MEVKMNSR"/>
      <point x="104.02586591405466" y="231.0" type="curve" name="UHITOGNQ"/>
      <point x="94.126370977443" y="179.0" name="FMELZZAB"/>
      <point x="73.62027432303313" y="126.0" name="NQDXZRLY"/>
      <point x="44.628896294384674" y="74.0" type="curve" name="IBUMNBUX"/>
      <point x="83.51976925964479" y="74.0" name="UICZIOOE"/>
      <point x="122.4106422249049" y="74.0" name="APOFULXX"/>
      <point x="157.05887450304573" y="74.0" type="curve" name="ZNJYEAZW"/>
      <point x="186.05025253169418" y="126.0" name="XFCVPFQL"/>
      <point x="205.8492424049175" y="179.0" name="TGPJDJQT"/>
      <point x="216.4558441227157" y="231.0" type="curve" name="SQJNUUZI"/>
      <point x="248.9827560572969" y="231.0" name="EHZMGZTG"/>
      <point x="279.3883476483185" y="231.0" name="UCZDNFWJ"/>
      <point x="307.6726188957804" y="231.0" type="curve" name="IBAYCNLQ"/>
      <point x="317.572113832392" y="282.0" name="MOMJFSRA"/>
      <point x="317.572113832392" y="335.0" name="IUPBAOBH"/>
      <point x="307.6726188957804" y="386.0" type="curve" name="XLAADHGV"/>
      <point x="279.3883476483185" y="386.0" name="YSYMROCD"/>
      <point x="248.9827560572969" y="386.0" name="MEBASWBG"/>
      <point x="216.4558441227157" y="386.0" type="curve" name="ZCFKCFPC"/>
      <point x="206.55634918610406" y="438.0" name="WUQWPFEX"/>
      <point x="186.05025253169418" y="492.0" name="OKGOEGXT"/>
      <point x="157.05887450304573" y="544.0" type="curve" name="ISBLBOZI"/>
      <point x="122.4106422249049" y="544.0" name="WRTMRGZL"/>
      <point x="83.51976925964479" y="544.0" name="GUUZQKSA"/>
      <point x="44.628896294384674" y="544.0" type="curve" name="LXDQWQHZ"/>
      <point x="73.62027432303313" y="492.0" name="LFCERDUJ"/>
      <point x="94.126370977443" y="438.0" name="RKWEMFZU"/>
      <point x="104.02586591405466" y="386.0" type="curve" name="KVERUCAD"/>
      <point x="65.84209972998107" y="386.0" name="UKGNOHED"/>
      <point x="24.829906421161326" y="386.0" name="CIXDLBJO"/>
      <point x="-17.596500450031527" y="386.0" type="curve" name="BMFYFOUT"/>
      <point x="-7.697005513419867" y="335.0" name="LWHSJNGL"/>
      <point x="-8.40411229460642" y="282.0" name="TUPELLBX"/>
    </contour>
  </outline>
</glyph>
<glyph name="comma" format="2">
  <advance width="211"/>
  <unicode hex="002C"/>
  <outline>
    <contour>
      <point x="-67" y="-101" type="curve" name="ORJRBROL"/>
      <point x="-26" y="-101" name="NYHPYPKT"/>
      <point x="10" y="-101" name="TGSTBPLD"/>
      <point x="42" y="-101" type="curve" name="CCMGAFJZ"/>
      <point x="110" y="-8" name="HAWSKZNJ"/>
      <point x="126" y="88" name="SVGKCKZC"/>
      <point x="87" y="181" type="curve" name="QQJALTSN"/>
      <point x="56" y="181" name="RCRYPWHC"/>
      <point x="17" y="181" name="LLMRVANE"/>
      <point x="-27" y="181" type="curve" name="AYFGUFOB"/>
      <point x="13" y="88" name="IXPPBRJG"/>
      <point x="-1" y="-8" name="OEXAZKBA"/>
    </contour>
  </outline>
</glyph>
<glyph name="hyphen" format="2">
  <advance width="240"/>
  <unicode hex="002D"/>
  <outline>
    <contour>
      <point x="-54.65537495307723" y="231.0" type="curve" name="RJKLKBOU"/>
      <point x="21.005050633883343" y="231.0" name="GEJSGJFC"/>
      <point x="86.05887450304573" y="231.0" name="CNZQCZFB"/>
      <point x="136.2634559672906" y="231.0" type="curve" name="KMBXQUUN"/>
      <point x="165.25483399593907" y="282.0" name="ZFINUYXN"/>
      <point x="165.25483399593907" y="335.0" name="BHINOBMH"/>
      <point x="136.2634559672906" y="386.0" type="curve" name="ZGEUODWB"/>
      <point x="86.05887450304573" y="386.0" name="ZZRWRQKW"/>
      <point x="21.005050633883343" y="386.0" name="LBIIDTUI"/>
      <point x="-54.65537495307723" y="386.0" type="curve" name="OOMSGMPF"/>
      <point x="-25.663996924428773" y="335.0" name="KRCXXAGZ"/>
      <point x="-25.663996924428773" y="282.0" name="YVRQAGHL"/>
    </contour>
  </outline>
</glyph>
<glyph name="slash" format="2">
  <advance width="346"/>
  <unicode hex="002F"/>
  <outline>
    <contour>
      <point x="-155.09754647055803" y="-160.0" type="curve" name="CVBLIYYT"/>
      <point x="-109.84271247461902" y="-160.0" name="XLSMZMNG"/>
      <point x="-63.8807716974934" y="-160.0" name="REABMJMB"/>
      <point x="-23.575685169860208" y="-160.0" type="curve" name="SZRTWRMH"/>
      <point x="223.91168824543144" y="147.0" name="DYHDTXTX"/>
      <point x="291.0868324581534" y="463.0" name="GNVDROCX"/>
      <point x="173.70710678118658" y="770.0" type="curve" name="UKDBENLA"/>
      <point x="142.59440840897847" y="770.0" name="QZOTLQVD"/>
      <point x="107.94617613083767" y="770.0" name="HSYWTHCZ"/>
      <point x="71.88373029032371" y="770.0" type="curve" name="LZMYDINM"/>
      <point x="179.36396103067892" y="463.0" name="RQXYKCYO"/>
      <point x="102.28932188134524" y="147.0" name="GJTNYQOH"/>
    </contour>
  </outline>
</glyph>
<glyph name="zero" format="2">
  <advance width="456"/>
  <unicode hex="0030"/>
  <outline>
    <contour>
      <point x="125" y="-14" type="curve" name="WFTWHKJG"/>
      <point x="250" y="-14" name="ECOGPHCQ"/>
      <point x="415" y="137" name="DSFVBPEI"/>
      <point x="415" y="341" type="curve" smooth="yes" name="OXICTFMC"/>
      <point x="415" y="544" name="TWLFNQVH"/>
      <point x="250" y="694" name="VBXYXSKT"/>
      <point x="125" y="694" type="curve" smooth="yes" name="DXSUHATC"/>
      <point x="0" y="694" name="UBOTAORU"/>
      <point x="-7" y="544" name="TOKWKAIO"/>
      <point x="-7" y="341" type="curve" smooth="yes" name="CKLGLTWC"/>
      <point x="-6" y="137" name="RBEQGHYK"/>
      <point x="0" y="-14" name="FGYNENGG"/>
      <point x="125" y="-14" type="curve" name="NIQXZNRM"/>
      <point x="125" y="-14" name="UBIXKKHB"/>
      <point x="125" y="-14" name="YTBZCJXY"/>
    </contour>
    <contour>
      <point x="197" y="151" type="curve" name="MLJKMMWT"/>
      <point x="141" y="151" name="YOALILVT"/>
      <point x="133" y="226" name="MLPOTENG"/>
      <point x="133" y="341" type="curve" smooth="yes" name="OQHISAFK"/>
      <point x="133" y="456" name="MCODVEMW"/>
      <point x="141" y="529" name="UVCOPMCU"/>
      <point x="197" y="529" type="curve" smooth="yes" name="TOUKSGZC"/>
      <point x="253" y="529" name="NJVMAMGX"/>
      <point x="310" y="455" name="AVULADEH"/>
      <point x="310" y="341" type="curve" smooth="yes" name="SQRFMBND"/>
      <point x="310" y="226" name="NBXQYBUJ"/>
      <point x="253" y="151" name="YMMSOSBN"/>
      <point x="197" y="151" type="curve" name="YCQWZUNO"/>
      <point x="197" y="151" name="VCFZOETM"/>
      <point x="197" y="151" name="HXJUQOUR"/>
    </contour>
  </outline>
</glyph>
<glyph name="one" format="2">
  <advance width="267"/>
  <unicode hex="0031"/>
  <outline>
    <contour>
      <point x="103.44796179957174" y="692.0" type="curve" name="TZHMIQAO"/>
      <point x="61.02155492837889" y="671.0" name="QXYJUNFS"/>
      <point x="0.9174785275223485" y="650.0" name="GTMQRQYO"/>
      <point x="-70.50030637231896" y="629.0" type="curve" name="BKBOAMJN"/>
      <point x="-46.45867581197635" y="576.0" name="HCYUTGCJ"/>
      <point x="-28.073899501126107" y="520.0" name="TUNCTKDK"/>
      <point x="-16.76019100214137" y="467.0" type="curve" name="CFCZIOEA"/>
      <point x="14.352507370066746" y="475.0" name="GOOCIAMZ"/>
      <point x="43.34388539871519" y="484.0" name="DRZHUPOM"/>
      <point x="70.213943083804" y="492.0" type="curve" name="PRUODIOG"/>
      <point x="108.39770926787756" y="330.0" name="LSNPALNA"/>
      <point x="81.52765158278876" y="162.0" name="FMFJLMIG"/>
      <point x="-10.396229971462418" y="0.0" type="curve" name="KNQXVFRB"/>
      <point x="32.030176899730435" y="0.0" name="LJYAGQOM"/>
      <point x="70.92104986499056" y="0.0" name="ZRHTMFIB"/>
      <point x="103.44796179957174" y="0.0" type="curve" name="IOTIIPVL"/>
      <point x="232.14139597552338" y="228.0" name="NNWLCHWV"/>
      <point x="232.14139597552338" y="464.0" name="IYPPKQBK"/>
    </contour>
  </outline>
</glyph>
<glyph name="two" format="2">
  <advance width="380"/>
  <unicode hex="0032"/>
  <outline>
    <contour>
      <point x="-86" y="0" type="curve" name="XGFJKABF"/>
      <point x="39" y="0" name="TMNNPTSU"/>
      <point x="146" y="0" name="ZSMBETWE"/>
      <point x="230" y="0" type="curve" name="OSXXHOPE"/>
      <point x="260" y="52" name="RLVYHDJG"/>
      <point x="283" y="107" name="SPGSKGAM"/>
      <point x="300" y="159" type="curve" name="QVDSWIOG"/>
      <point x="259" y="159" name="XUZQSBXK"/>
      <point x="212" y="159" name="IOSSHTXB"/>
      <point x="161" y="159" type="curve" name="XKAUNGFH"/>
      <point x="190" y="187" name="YDDJMVRE"/>
      <point x="218" y="217" name="PDFTHFEC"/>
      <point x="241" y="245" type="curve" smooth="yes" name="GGKXXJDJ"/>
      <point x="314" y="333" name="TWNPTKBH"/>
      <point x="334" y="399" name="SSECDCJB"/>
      <point x="316" y="482" type="curve" smooth="yes" name="XESWSWHW"/>
      <point x="279" y="646" name="WYBQPFBB"/>
      <point x="118" y="746" name="NLDFORLI"/>
      <point x="-61" y="658" type="curve" name="ZVHSVCTS"/>
      <point x="-33" y="603" name="ZTACFSTQ"/>
      <point x="-12" y="546" name="YQIUFPPF"/>
      <point x="1" y="491" type="curve" name="BTOVWJWH"/>
      <point x="102" y="545" name="EUNRPXGS"/>
      <point x="194" y="534" name="OOQYAIAO"/>
      <point x="207" y="468" type="curve" smooth="yes" name="WVTVRMDL"/>
      <point x="214" y="435" name="DRILHNNR"/>
      <point x="211" y="403" name="ASIGLRVZ"/>
      <point x="138" y="314" type="curve" smooth="yes" name="JKYPYIRY"/>
      <point x="95" y="263" name="KIHMBRHX"/>
      <point x="44" y="210" name="BEMJFDHK"/>
      <point x="-17" y="159" type="curve" name="HCUUYOUU"/>
      <point x="-33" y="107" name="PJEFCWNB"/>
      <point x="-57" y="52" name="HPJNZAWC"/>
    </contour>
  </outline>
</glyph>
<glyph name="three" format="2">
  <advance width="370"/>
  <unicode hex="0033"/>
  <outline>
    <contour>
      <point x="23.072547108280617" y="387.0" type="curve" name="TWEZKNJQ"/>
      <point x="25.9009742330268" y="349.0" name="GMBVYRCN"/>
      <point x="25.9009742330268" y="309.0" name="XKJODNQB"/>
      <point x="21.65833354590751" y="271.0" type="curve" name="DBSZIJBP"/>
      <point x="136.20963209812822" y="283.0" name="DYGTKBDB"/>
      <point x="203.38477631085027" y="266.0" name="FVZLRSCX"/>
      <point x="190.65685424949237" y="205.0" type="curve" smooth="yes" name="KMLPMJEL"/>
      <point x="176.51471862576145" y="140.0" name="BSYEDFHE"/>
      <point x="85.29794385269679" y="136.0" name="PEDYGYPF"/>
      <point x="-26.424927574777712" y="188.0" type="curve" name="ESWIDBTI"/>
      <point x="-39.85995641732211" y="133.0" name="KZRUHWNZ"/>
      <point x="-61.78026663410509" y="76.0" name="HLZINVGT"/>
      <point x="-90.06453788156699" y="21.0" type="curve" name="FAQIEKHF"/>
      <point x="78.9339828220179" y="-50.0" name="YUUPZCUQ"/>
      <point x="255.0035713374682" y="9.0" name="IFWGRRKD"/>
      <point x="297.42997820866105" y="206.0" type="curve" smooth="yes" name="VGEXZHJZ"/>
      <point x="319.35028842544403" y="310.0" name="NKSHUEVG"/>
      <point x="277.63098833543773" y="381.0" name="EAOJYXYY"/>
      <point x="201.2634559672906" y="403.0" type="curve" name="DIUDXIGO"/>
      <point x="228.84062043356596" y="442.0" name="DBIBOTMK"/>
      <point x="251.4680374315355" y="482.0" name="MFKBXAQY"/>
      <point x="267.73149339882605" y="521.0" type="curve" name="RMNFTGHN"/>
      <point x="251.4680374315355" y="573.0" name="OASWAVBC"/>
      <point x="228.1335136523794" y="628.0" name="JJESOTXZ"/>
      <point x="198.4350288425444" y="680.0" type="curve" name="XOKHRMPS"/>
      <point x="117.11774900609146" y="680.0" name="RVZUJTJW"/>
      <point x="14.587265734042063" y="680.0" name="OINQKVIQ"/>
      <point x="-104.20667350529789" y="680.0" type="curve" name="HXJZZDYX"/>
      <point x="-74.50818869546293" y="628.0" name="GYUSUUPR"/>
      <point x="-50.46655813512032" y="573.0" name="OLBVQFOT"/>
      <point x="-34.910208949016294" y="521.0" type="curve" name="NHGVJNDY"/>
      <point x="22.365440327094063" y="521.0" name="OGBGDTDS"/>
      <point x="78.22687604083131" y="521.0" name="BQXNRSJA"/>
      <point x="127.01724394270312" y="521.0" type="curve" name="GISHUNEU"/>
      <point x="100.1471862576143" y="477.0" name="LOOCDEIR"/>
      <point x="65.49895397947347" y="431.0" name="RBNGMKPX"/>
    </contour>
  </outline>
</glyph>
<glyph name="four" format="2">
  <advance width="413"/>
  <unicode hex="0034"/>
  <outline>
    <contour>
      <point x="-65.3825573662275" y="129.0" type="curve" name="HXTAFUEV"/>
      <point x="15.227615689038885" y="129.0" name="GCFCJLMY"/>
      <point x="90.88804127599948" y="129.0" name="JMQQCVUE"/>
      <point x="157.35607870753495" y="129.0" type="curve" name="WVEEAHPQ"/>
      <point x="141.79972952143092" y="86.0" name="QHNUEQQG"/>
      <point x="122.00073964820757" y="43.0" name="XMXDMAFJ"/>
      <point x="97.95910908786499" y="0.0" type="curve" name="BPSPGRNY"/>
      <point x="136.84998205312507" y="0.0" name="KDAVMJMV"/>
      <point x="175.74085501838522" y="0.0" name="RCEKHEUH"/>
      <point x="210.38908729652604" y="0.0" type="curve" name="TYURHEEJ"/>
      <point x="234.43071785686868" y="43.0" name="IQGZQFHD"/>
      <point x="254.22970773009195" y="86.0" name="ICLWQXEL"/>
      <point x="269.786056916196" y="129.0" type="curve" name="ZAEGWPGC"/>
      <point x="288.8779400082328" y="129.0" name="HTVQIPBA"/>
      <point x="307.9698231002696" y="129.0" name="OLXEXYTM"/>
      <point x="325.64749262993325" y="129.0" type="curve" name="BJVXGLOB"/>
      <point x="344.0322689407835" y="181.0" name="PNNJIUUR"/>
      <point x="356.0530842209548" y="236.0" name="ODUUGIWO"/>
      <point x="360.29572490807413" y="288.0" type="curve" name="ZCGQWMBJ"/>
      <point x="342.6180553784104" y="288.0" name="MMSTWSAC"/>
      <point x="323.52617228637365" y="288.0" name="LXTSJQWV"/>
      <point x="304.4342891943369" y="288.0" type="curve" name="HQDSRHAK"/>
      <point x="315.7479976933216" y="417.0" name="XKFUMZSA"/>
      <point x="283.2210857587404" y="551.0" name="UWYMVCAU"/>
      <point x="210.38908729652604" y="680.0" type="curve" name="IJBKXRWR"/>
      <point x="158.0631854887215" y="680.0" name="AMDOTGLB"/>
      <point x="98.66621586905151" y="680.0" name="LENERWPN"/>
      <point x="35.733712343448786" y="680.0" type="curve" name="BPTZCQJU"/>
      <point x="59.068236122604844" y="551.0" name="GWMRQQVX"/>
      <point x="36.44081912463531" y="417.0" name="AFDGLDTW"/>
      <point x="-30.734325088086706" y="288.0" type="curve" name="TIGIRNTV"/>
      <point x="-34.976965775206" y="236.0" name="ITDKTMPC"/>
      <point x="-46.99778105537729" y="181.0" name="PADSPFNC"/>
    </contour>
    <contour>
      <point x="113.51545827396899" y="288.0" type="curve" name="VMYJMNXV"/>
      <point x="146.04237020855018" y="363.0" name="OINLUNHH"/>
      <point x="165.13425330058698" y="441.0" name="EBGOOEGM"/>
      <point x="167.96268042533316" y="516.0" type="curve" name="FATOFQCK"/>
      <point x="189.88299064211617" y="441.0" name="PLXHTCSZ"/>
      <point x="197.66116523516814" y="363.0" name="KVRKDACC"/>
      <point x="192.00431098567577" y="288.0" type="curve" name="LXVYRPNW"/>
      <point x="167.2555736441466" y="288.0" name="GMVNVOAJ"/>
      <point x="140.3855159590578" y="288.0" name="EKFQFIVR"/>
    </contour>
  </outline>
</glyph>
<glyph name="five" format="2">
  <advance width="367"/>
  <unicode hex="0035"/>
  <outline>
    <contour>
      <point x="-7.772384310961115" y="285.0" type="curve" name="BMGGOVDI"/>
      <point x="124.45658377092329" y="310.0" name="IEPZTOCW"/>
      <point x="205.77386360737626" y="294.0" name="MMBPYTSS"/>
      <point x="189.51040764008565" y="216.0" type="curve" smooth="yes" name="PNEFBFFM"/>
      <point x="173.95405845398162" y="137.0" name="EXQFKOBD"/>
      <point x="97.58652608583446" y="136.0" name="JKQMCOCK"/>
      <point x="-31.106908090117173" y="188.0" type="curve" name="NFCZRCND"/>
      <point x="-44.54193693266157" y="133.0" name="WNUREYBN"/>
      <point x="-66.46224714944455" y="76.0" name="SEBHRPFM"/>
      <point x="-94.74651839690642" y="21.0" type="curve" name="WIKEVMLL"/>
      <point x="71.42357518193222" y="-48.0" name="KSJUZSCX"/>
      <point x="257.39265863399424" y="13.0" name="WTGFJJFX"/>
      <point x="296.9906383804409" y="221.0" type="curve" smooth="yes" name="SVDWQVUV"/>
      <point x="325.2749096279028" y="366.0" name="QGLKMZBL"/>
      <point x="247.49316369738256" y="443.0" name="RELTLRKR"/>
      <point x="123.04237020855018" y="441.0" type="curve" name="SDEJNKET"/>
      <point x="120.92104986499055" y="467.0" name="KQQFKIXJ"/>
      <point x="117.38551595905781" y="495.0" name="AIHWPYIQ"/>
      <point x="111.72866170956542" y="521.0" type="curve" name="SZGYTUCJ"/>
      <point x="165.46877707974303" y="521.0" name="HUJXVCRA"/>
      <point x="215.6733585439879" y="521.0" name="XXPJCIFX"/>
      <point x="259.51397897755385" y="521.0" type="curve" name="PPVQFHRE"/>
      <point x="243.9576297914498" y="573.0" name="VEDCOTDT"/>
      <point x="219.9159992311072" y="628.0" name="MWBGGHOT"/>
      <point x="190.2175144212722" y="680.0" type="curve" name="IGIMMNWP"/>
      <point x="118.09262274024437" y="680.0" name="SCBRSLGO"/>
      <point x="28.290061529552816" y="680.0" name="FPPEHZOQ"/>
      <point x="-72.82620818012344" y="680.0" type="curve" name="KXWKNLCQ"/>
      <point x="-9.186597873334222" y="550.0" name="HIFBQPAI"/>
      <point x="12.733712343448758" y="415.0" name="GNEZCEFX"/>
    </contour>
  </outline>
</glyph>
<glyph name="six" format="2">
  <advance width="399"/>
  <unicode hex="0036"/>
  <outline>
    <contour>
      <point x="292.484541726031" y="492.0" type="curve" name="VHGZTSVD"/>
      <point x="278.34240610230006" y="549.0" name="CTQLOTQR"/>
      <point x="254.30077554195748" y="608.0" name="QLOCYIZJ"/>
      <point x="224.60229073212247" y="665.0" type="curve" name="BAUSJAAO"/>
      <point x="20.955537750396758" y="738.0" name="FBFBIZJE"/>
      <point x="-17.935335214863386" y="610.0" name="QCTCWOPB"/>
      <point x="-26.42061658910194" y="318.0" type="curve" smooth="yes" name="DJEYSBMJ"/>
      <point x="-32.78457761978086" y="100.0" name="UGXTHIMQ"/>
      <point x="-28.54193693266157" y="-13.0" name="ZJXOXMYB"/>
      <point x="80.35250737006675" y="-13.0" type="curve" smooth="yes" name="BZFKAFSY"/>
      <point x="189.2469516727951" y="-13.0" name="KERHMUBF"/>
      <point x="309.4551044745082" y="93.0" name="AZJRATWR"/>
      <point x="332.7896282536642" y="232.0" type="curve" smooth="yes" name="AAXPLHXW"/>
      <point x="369.55918087536475" y="449.0" name="ZXLBETSU"/>
      <point x="187.12563132923543" y="502.0" name="CKZJPTLL"/>
      <point x="108.63677861752865" y="409.0" type="curve" name="RFKAYIUN"/>
      <point x="102.27281758684973" y="527.0" name="PWLJUNRL"/>
      <point x="194.1966991411009" y="555.0" name="KKYPNSVA"/>
      <point x="292.484541726031" y="492.0" type="curve" name="HJKZUOLT"/>
      <point x="292.484541726031" y="492.0" name="USABNJRZ"/>
      <point x="292.484541726031" y="492.0" name="OZOLBQTH"/>
    </contour>
    <contour>
      <point x="148.94186514516184" y="144.0" type="curve" name="XAEWDQPP"/>
      <point x="115.00073964820757" y="144.0" name="AYAWEERZ"/>
      <point x="102.27281758684973" y="180.0" name="DTVJRMWR"/>
      <point x="110.75809896108828" y="232.0" type="curve" smooth="yes" name="FXJJYOZH"/>
      <point x="119.24338033532686" y="281.0" name="GXVXUJRH"/>
      <point x="144.69922445804258" y="314.0" name="XLLNRHZC"/>
      <point x="178.64034995499685" y="314.0" type="curve" smooth="yes" name="LGPCOKXW"/>
      <point x="212.58147545195112" y="314.0" name="HCJXTHRO"/>
      <point x="235.20889244992065" y="280.0" name="GSUWATDW"/>
      <point x="226.01650429449552" y="229.0" type="curve" smooth="yes" name="BMHADFTS"/>
      <point x="217.531222920257" y="179.0" name="NDXTFIDZ"/>
      <point x="183.59009742330267" y="144.0" name="SBPZOSID"/>
      <point x="148.94186514516184" y="144.0" type="curve" name="DSVTVPHR"/>
      <point x="148.94186514516184" y="144.0" name="JTOPGHQW"/>
      <point x="148.94186514516184" y="144.0" name="WXMWCDYB"/>
    </contour>
  </outline>
</glyph>
<glyph name="seven" format="2">
  <advance width="368"/>
  <unicode hex="0037"/>
  <outline>
    <contour>
      <point x="203.79898987322338" y="680.0" type="curve" name="KMQGZMGG"/>
      <point x="118.94617613083764" y="680.0" name="SIQPHWRJ"/>
      <point x="10.051731828109325" y="680.0" name="GLPLJOOU"/>
      <point x="-117.22748878546929" y="680.0" type="curve" name="JLQVUETO"/>
      <point x="-88.23611075682084" y="628.0" name="IDLBPJSD"/>
      <point x="-64.1944801964782" y="573.0" name="WTNOOJGA"/>
      <point x="-48.63813101037414" y="521.0" type="curve" name="DOPKQKLJ"/>
      <point x="27.729401357772986" y="521.0" name="ETPMSRKF"/>
      <point x="99.85429303880085" y="521.0" name="CGLYGEDK"/>
      <point x="160.66547622084394" y="521.0" type="curve" name="ZMGPJTLO"/>
      <point x="161.37258300203047" y="349.0" name="NIZNICTW"/>
      <point x="79.34819638439097" y="172.0" name="VAAASUNA"/>
      <point x="-79.7508293825822" y="0.0" type="curve" name="ZYUMHCEX"/>
      <point x="-31.667568261896974" y="0.0" name="EHBDJDVQ"/>
      <point x="15.708586077601694" y="0.0" name="JDMSSOMK"/>
      <point x="57.427886167607994" y="0.0" type="curve" name="ENQLVAGF"/>
      <point x="208.7487373415292" y="172.0" name="OLOSUCDY"/>
      <point x="280.873629022557" y="349.0" name="TFFHGPQG"/>
      <point x="272.3883476483185" y="521.0" type="curve" name="UTQTYLRJ"/>
      <point x="256.8319984622144" y="573.0" name="QFMGRSTW"/>
      <point x="232.79036790187183" y="628.0" name="JULLWORY"/>
    </contour>
  </outline>
</glyph>
<glyph name="eight" format="2">
  <advance width="396"/>
  <unicode hex="0038"/>
  <outline>
    <contour>
      <point x="93.34819638439097" y="-15.0" type="curve" name="DOFMKEDY"/>
      <point x="195.8786796564404" y="-15.0" name="GMCIIINK"/>
      <point x="310.42997820866105" y="70.0" name="EISBSPGO"/>
      <point x="339.4213562373095" y="198.0" type="curve" smooth="yes" name="MKVKRRBB"/>
      <point x="355.6848122046001" y="269.0" name="YCDHPJRS"/>
      <point x="338.0071426749364" y="321.0" name="BYHRSRAF"/>
      <point x="306.1873375215418" y="353.0" type="curve" name="ABYWJPRQ"/>
      <point x="332.35028842544403" y="383.0" name="BOJHESWY"/>
      <point x="344.3711037056154" y="429.0" name="UCDYIMDR"/>
      <point x="330.22896808188443" y="490.0" type="curve" smooth="yes" name="OXXMJZUI"/>
      <point x="301.237590053236" y="610.0" name="LULWKPZY"/>
      <point x="190.92893218813458" y="695.0" name="HLNFOSPY"/>
      <point x="93.34819638439097" y="695.0" type="curve" smooth="yes" name="OUGICIXE"/>
      <point x="-4.232539419352577" y="695.0" name="IAGLPLVV"/>
      <point x="-39.587878478679954" y="610.0" name="VLBPLNCV"/>
      <point x="-10.596500450031527" y="490.0" type="curve" smooth="yes" name="ZFVYYODD"/>
      <point x="3.5456351736994236" y="429.0" name="JNILWGOC"/>
      <point x="28.294372515228588" y="383.0" name="AEWDVHLQ"/>
      <point x="64.35681835574252" y="353.0" type="curve" name="CHVXHYMR"/>
      <point x="22.63751826573619" y="321.0" name="LJRFXHQL"/>
      <point x="-4.93964620053913" y="269.0" name="AHHDNXHS"/>
      <point x="-21.20310216782974" y="198.0" type="curve" smooth="yes" name="RTAZHXOF"/>
      <point x="-50.194480196478196" y="70.0" name="CTFZRPUR"/>
      <point x="-9.889393668844974" y="-15.0" name="DQHLAGKS"/>
      <point x="93.34819638439097" y="-15.0" type="curve" name="AYCRFBKV"/>
      <point x="93.34819638439097" y="-15.0" name="CVNROQOA"/>
      <point x="93.34819638439097" y="-15.0" name="FWKBVASS"/>
    </contour>
    <contour>
      <point x="189.51471862576142" y="417.0" type="curve" name="EOYEYDXK"/>
      <point x="159.81623381592644" y="417.0" name="KRSHIPAQ"/>
      <point x="134.36038969321072" y="444.0" name="BZUFEZGD"/>
      <point x="125.87510831897214" y="481.0" type="curve" smooth="yes" name="TOYZQIDQ"/>
      <point x="118.09693372592014" y="517.0" name="WPNUVNRR"/>
      <point x="131.53196256846454" y="542.0" name="MYZPRHSB"/>
      <point x="161.23044737829952" y="542.0" type="curve" smooth="yes" name="RQGKYOET"/>
      <point x="190.92893218813452" y="542.0" name="PASTMJFG"/>
      <point x="218.50609665440987" y="517.0" name="PROVXJWD"/>
      <point x="226.2842712474619" y="481.0" type="curve" smooth="yes" name="IOHRTIRM"/>
      <point x="234.76955262170048" y="444.0" name="CCYOLLDZ"/>
      <point x="219.21320343559643" y="417.0" name="QPPUAFBP"/>
      <point x="189.51471862576142" y="417.0" type="curve" name="ZYRTIEPK"/>
      <point x="189.51471862576142" y="417.0" name="FWNSCVWC"/>
      <point x="189.51471862576142" y="417.0" name="KKIHZGKD"/>
    </contour>
    <contour>
      <point x="161.23044737829952" y="138.0" type="curve" name="DMBCBELI"/>
      <point x="127.9964286625318" y="138.0" name="CHLABBWP"/>
      <point x="111.73297269524119" y="169.0" name="LLNSAIUO"/>
      <point x="120.21825406947977" y="212.0" type="curve" smooth="yes" name="GACEOBPY"/>
      <point x="129.4106422249049" y="257.0" name="EQYIXOGQ"/>
      <point x="159.10912703473988" y="287.0" name="NPSASKPS"/>
      <point x="192.34314575050763" y="287.0" type="curve" smooth="yes" name="IXJATNYN"/>
      <point x="224.8700576850888" y="287.0" name="IVCVRRFV"/>
      <point x="246.08326112068522" y="257.0" name="BNLDSDEK"/>
      <point x="236.1837661840736" y="212.0" type="curve" smooth="yes" name="BOOPPMME"/>
      <point x="226.99137802864846" y="169.0" name="APGEUQZO"/>
      <point x="193.75735931288074" y="138.0" name="WIKUNKCK"/>
      <point x="161.23044737829952" y="138.0" type="curve" name="MCWGYAPG"/>
      <point x="161.23044737829952" y="138.0" name="FXJEVWXT"/>
      <point x="161.23044737829952" y="138.0" name="WDPPZZFT"/>
    </contour>
  </outline>
</glyph>
<glyph name="nine" format="2">
  <advance width="399"/>
  <unicode hex="0039"/>
  <outline>
    <contour>
      <point x="-8.035840278251726" y="189.0" type="curve" name="TDDYBEVX"/>
      <point x="-22.177975901982677" y="132.0" name="ZXGZCKPM"/>
      <point x="-46.21960646232526" y="73.0" name="JQGVKABN"/>
      <point x="-75.91809127216027" y="16.0" type="curve" name="ZZFDBRGK"/>
      <point x="112.17231252346139" y="-57.0" name="SJDGRXCU"/>
      <point x="344.8104435338355" y="71.0" name="FDMYRKWY"/>
      <point x="336.32516215959697" y="363.0" type="curve" smooth="yes" name="KQWYRPUL"/>
      <point x="329.96120112891805" y="581.0" name="GBNIBAEP"/>
      <point x="178.64034995499685" y="694.0" name="ACCADVKI"/>
      <point x="68.33169208989545" y="694.0" type="curve" smooth="yes" name="BCJQDOKM"/>
      <point x="-40.56275221283289" y="694.0" name="IAYFHXNQ"/>
      <point x="-63.19016921080242" y="588.0" name="TMIVUAFR"/>
      <point x="-39.855645431646366" y="449.0" type="curve" smooth="yes" name="SUBTLPUI"/>
      <point x="-3.0860928099458818" y="232.0" name="IZZJRBWJ"/>
      <point x="135.50683630261744" y="179.0" name="LLNKPBNI"/>
      <point x="225.30939751330897" y="272.0" type="curve" name="FBOLBBYM"/>
      <point x="204.8033008588991" y="154.0" name="CHCYKQZY"/>
      <point x="90.2520023066784" y="126.0" name="IGUJRYKC"/>
      <point x="-8.035840278251726" y="189.0" type="curve" name="MTCBTZWM"/>
      <point x="-8.035840278251726" y="189.0" name="PIWOZYZW"/>
      <point x="-8.035840278251726" y="189.0" name="OBKEVKSY"/>
    </contour>
    <contour>
      <point x="138.33526342736366" y="537.0" type="curve" name="ZLFBJBTL"/>
      <point x="172.27638892431793" y="537.0" name="NZFXKJPL"/>
      <point x="206.2175144212722" y="501.0" name="SFZXFTGW"/>
      <point x="214.70279579551078" y="449.0" type="curve" smooth="yes" name="UHMAOHZW"/>
      <point x="223.18807716974936" y="400.0" name="LVGUZSKA"/>
      <point x="201.97487373415294" y="367.0" name="MFIZTTLO"/>
      <point x="168.03374823719864" y="367.0" type="curve" smooth="yes" name="BIXEGJEY"/>
      <point x="132.67840917787126" y="367.0" name="YNLWGMTL"/>
      <point x="107.22256505515554" y="401.0" name="KMRLBPQJ"/>
      <point x="98.03017689973044" y="452.0" type="curve" smooth="yes" name="KRCLUMSF"/>
      <point x="89.54489552549185" y="502.0" name="UKQMGQSG"/>
      <point x="103.6870311492228" y="537.0" name="XQFBRPVH"/>
      <point x="138.33526342736366" y="537.0" type="curve" name="ICXFRYFL"/>
      <point x="138.33526342736366" y="537.0" name="SLNOQYHR"/>
      <point x="138.33526342736366" y="537.0" name="YCAWUJXH"/>
    </contour>
  </outline>
</glyph>
<glyph name="colon" format="2">
  <advance width="205"/>
  <unicode hex="003A"/>
  <outline>
    <contour>
      <point x="77" y="326" type="curve" name="RMTHXVRV"/>
      <point x="117" y="326" name="URXEETLE"/>
      <point x="138" y="373" name="DJPLXUKT"/>
      <point x="118" y="430" type="curve" smooth="yes" name="REJJQNEI"/>
      <point x="99" y="486" name="SHCBZTIF"/>
      <point x="44" y="533" name="IRMFAZZR"/>
      <point x="4" y="533" type="curve" smooth="yes" name="AFDOETBY"/>
      <point x="-38" y="533" name="BCOULOIV"/>
      <point x="-51" y="486" name="SVMLPGXJ"/>
      <point x="-31" y="430" type="curve" smooth="yes" name="ASOSEJOP"/>
      <point x="-10" y="373" name="MFNCGRFI"/>
      <point x="35" y="326" name="CJSPQNTC"/>
      <point x="77" y="326" type="curve" name="NUYKUMSS"/>
      <point x="77" y="326" name="CDWONYDI"/>
      <point x="77" y="326" name="UEUJQQJV"/>
    </contour>
    <contour>
      <point x="4" y="-16" type="curve" name="OGIPFLSZ"/>
      <point x="44" y="-16" name="KIYKTZLL"/>
      <point x="99" y="31" name="CJPKNDWO"/>
      <point x="118" y="88" type="curve" smooth="yes" name="HSMNVLNL"/>
      <point x="138" y="144" name="DDDKAYOS"/>
      <point x="117" y="191" name="RURLGAHW"/>
      <point x="77" y="191" type="curve" smooth="yes" name="JPOKVIYR"/>
      <point x="35" y="191" name="IXQWNAWD"/>
      <point x="-11" y="144" name="ASCLNHOO"/>
      <point x="-31" y="88" type="curve" smooth="yes" name="IYIZHOOC"/>
      <point x="-51" y="31" name="IBOYJHME"/>
      <point x="-38" y="-16" name="FAYNWIEX"/>
      <point x="4" y="-16" type="curve" name="JTWGFGWE"/>
      <point x="4" y="-16" name="LOIMSQRR"/>
      <point x="4" y="-16" name="CETCVXFA"/>
    </contour>
  </outline>
</glyph>
<glyph name="semicolon" format="2">
  <advance width="205"/>
  <unicode hex="003B"/>
  <outline>
    <contour>
      <point x="56.891612613467686" y="326.0" type="curve" name="LJIURGHE"/>
      <point x="95.7824855787278" y="326.0" name="FNYFXBVJ"/>
      <point x="114.8743686707646" y="373.0" name="TFLRHPQB"/>
      <point x="92.95405845398165" y="430.0" type="curve" smooth="yes" name="IPPZVZFY"/>
      <point x="71.03374823719865" y="486.0" name="TVJSSEDP"/>
      <point x="17.293632867021046" y="533.0" name="VWOXUVEZ"/>
      <point x="-22.304346879425637" y="533.0" type="curve" smooth="yes" name="RBNKQAIQ"/>
      <point x="-62.609433407058816" y="533.0" name="AFFXYFVM"/>
      <point x="-74.63024868723016" y="486.0" name="EKFBHBMR"/>
      <point x="-53.41704525163374" y="430.0" type="curve" smooth="yes" name="JIZBFFLJ"/>
      <point x="-31.496735034850758" y="373.0" name="CAATTIPN"/>
      <point x="15.87941930464794" y="326.0" name="JGJCTFCR"/>
      <point x="56.891612613467686" y="326.0" type="curve" name="AVKGZOSG"/>
      <point x="56.891612613467686" y="326.0" name="IPBRTSPQ"/>
      <point x="56.891612613467686" y="326.0" name="CLFHHUKW"/>
    </contour>
    <contour>
      <point x="-123.42061658910194" y="-101.0" type="curve" name="LXQVOAKD"/>
      <point x="-83.11553006146872" y="-101.0" name="KQIIYISI"/>
      <point x="-46.345977439768234" y="-101.0" name="KBHIKNIL"/>
      <point x="-13.819065505187055" y="-101.0" type="curve" name="ZTTILJQL"/>
      <point x="55.477399051094594" y="-8.0" name="AXCTISMV"/>
      <point x="101.43933982822017" y="88.0" name="YSGVHRQP"/>
      <point x="121.94543648263007" y="181.0" type="curve" name="BFCTONBZ"/>
      <point x="88.71141776686233" y="181.0" name="ZVPMUPAO"/>
      <point x="49.82054480160221" y="181.0" name="OKUCYEBN"/>
      <point x="5.272817586849726" y="181.0" type="curve" name="UTYKDPUC"/>
      <point x="-13.111958724000516" y="88.0" name="MYDZQFWB"/>
      <point x="-57.659685938753" y="-8.0" name="ZHIOZRSU"/>
    </contour>
  </outline>
</glyph>
<glyph name="less" format="2">
  <advance width="317"/>
  <unicode hex="003C"/>
  <outline>
    <contour>
      <point x="-34.89370465452075" y="222.0" type="curve" name="NWFTIVSG"/>
      <point x="54.90885655617079" y="166.0" name="ROVYBGWD"/>
      <point x="118.54846686296008" y="109.0" name="SJGXVYIM"/>
      <point x="153.90380592228746" y="53.0" type="curve" name="SVFKFLPR"/>
      <point x="186.43071785686863" y="111.0" name="IUGYYPUJ"/>
      <point x="208.3510280736516" y="171.0" name="VAMQCOAG"/>
      <point x="218.95762979144985" y="229.0" type="curve" name="PCRZPHAV"/>
      <point x="189.25914498161484" y="256.0" name="XUBOERXU"/>
      <point x="153.1966991411009" y="283.0" name="FFRBDBFV"/>
      <point x="110.0631854887215" y="310.0" type="curve" name="KFINWHQE"/>
      <point x="152.48959235991435" y="336.0" name="UWASGLZW"/>
      <point x="189.25914498161484" y="364.0" name="MGIIENDN"/>
      <point x="218.2505230102633" y="390.0" type="curve" name="CMQSKOSO"/>
      <point x="208.3510280736516" y="447.0" name="KOFWOQVR"/>
      <point x="185.7236110756821" y="506.0" name="XCEVIJCO"/>
      <point x="153.90380592228746" y="563.0" type="curve" name="TFLDSJWG"/>
      <point x="118.54846686296008" y="507.0" name="FTSYYWLH"/>
      <point x="54.90885655617079" y="450.0" name="UAFLHCID"/>
      <point x="-34.89370465452075" y="394.0" type="curve" name="IFQEFEHG"/>
      <point x="-24.287102936722533" y="337.0" name="PFWVNIMO"/>
      <point x="-24.287102936722533" y="279.0" name="CPLPHDBD"/>
    </contour>
  </outline>
</glyph>
<glyph name="equal" format="2">
  <advance width="346"/>
  <unicode hex="003D"/>
  <outline>
    <contour>
      <point x="-17" y="351" type="curve" name="TQAZQFVS"/>
      <point x="97" y="351" name="XJCLYADO"/>
      <point x="196" y="351" name="EVZUBKIV"/>
      <point x="273" y="351" type="curve" name="FMBHXKFG"/>
      <point x="266" y="402" name="EHTJHXKB"/>
      <point x="248" y="455" name="DMWXEEMW"/>
      <point x="220" y="506" type="curve" name="LFLIBXZD"/>
      <point x="143" y="506" name="KRBYVIHK"/>
      <point x="44" y="506" name="CWNSSPPM"/>
      <point x="-70" y="506" type="curve" name="ZJKYXRFJ"/>
      <point x="-42" y="455" name="RWJVDWPH"/>
      <point x="-24" y="402" name="SPDUDHDJ"/>
    </contour>
    <contour>
      <point x="-70" y="111" type="curve" name="ROUMMFQZ"/>
      <point x="44" y="111" name="XAOXYODY"/>
      <point x="143" y="111" name="DVCJNYMJ"/>
      <point x="220" y="111" type="curve" name="BMQHPUHT"/>
      <point x="248" y="162" name="QSZWQWPO"/>
      <point x="266" y="215" name="OERESKEC"/>
      <point x="273" y="266" type="curve" name="PFSNWCMX"/>
      <point x="196" y="266" name="ENKFYXMF"/>
      <point x="97" y="266" name="YRNIHRFX"/>
      <point x="-17" y="266" type="curve" name="JXKBUVBV"/>
      <point x="-24" y="215" name="ROMBMBGH"/>
      <point x="-42" y="162" name="PKDCRUVH"/>
    </contour>
  </outline>
</glyph>
<glyph name="greater" format="2">
  <advance width="317"/>
  <unicode hex="003E"/>
  <outline>
    <contour>
      <point x="246" y="222" type="curve" name="MONCNYCN"/>
      <point x="256" y="279" name="SQTLPCJP"/>
      <point x="256" y="337" name="KPBUAXES"/>
      <point x="246" y="394" type="curve" name="NSHDCUYG"/>
      <point x="169" y="450" name="TMLZEOMQ"/>
      <point x="61" y="507" name="AGCTZWZW"/>
      <point x="-70" y="563" type="curve" name="XVBQCQMH"/>
      <point x="-38" y="506" name="VRMTCLJY"/>
      <point x="-16" y="447" name="QGGTVRDY"/>
      <point x="-6" y="390" type="curve" name="FVNKOWKD"/>
      <point x="49" y="364" name="UVIJQARM"/>
      <point x="99" y="336" name="JEAKONYD"/>
      <point x="142" y="310" type="curve" name="SQYLQPXE"/>
      <point x="99" y="283" name="EOWPTHYF"/>
      <point x="51" y="256" name="XORTWBRB"/>
      <point x="-5" y="229" type="curve" name="FXCNOEWT"/>
      <point x="-16" y="171" name="HLQIPPKI"/>
      <point x="-38" y="111" name="LQPYQHNL"/>
      <point x="-70" y="53" type="curve" name="DPYBQBVA"/>
      <point x="61" y="109" name="NQVDSVXL"/>
      <point x="169" y="166" name="KKPXQWEG"/>
    </contour>
  </outline>
</glyph>
<glyph name="question" format="2">
  <advance width="361"/>
  <unicode hex="003F"/>
  <outline>
    <contour>
      <point x="210.55203820042829" y="299.0" type="curve" name="LHDAETUV"/>
      <point x="283.38403666264264" y="330.0" name="LWPCYWJS"/>
      <point x="330.76019100214137" y="387.0" name="EJLWEXDQ"/>
      <point x="304.5972400982391" y="493.0" type="curve" smooth="yes" name="LZAGGQBH"/>
      <point x="262.1708332270463" y="663.0" name="OPINTNPV"/>
      <point x="108.72866170956544" y="731.0" name="GNREHKTS"/>
      <point x="-82.89727599198898" y="663.0" type="curve" name="EIIHJEMM"/>
      <point x="-53.19879118215397" y="607.0" name="KZDDTMMP"/>
      <point x="-31.27848096537099" y="550.0" name="YLWNHYDJ"/>
      <point x="-17.136345341640038" y="494.0" type="curve" name="YZCLOVBR"/>
      <point x="84.6870311492228" y="548.0" name="HCVGIIRG"/>
      <point x="190.0459415460184" y="536.0" name="QQDONWWC"/>
      <point x="204.18807716974936" y="474.0" type="curve" smooth="yes" name="DAMLZRDK"/>
      <point x="211.9662517628014" y="438.0" name="YSEUIOGW"/>
      <point x="182.26776695296638" y="421.0" name="WEBOEKXX"/>
      <point x="83.2728175868497" y="410.0" type="curve" name="HJBUBQSZ"/>
      <point x="90.3438853987152" y="356.0" name="PLIHIKIV"/>
      <point x="91.05099217990173" y="299.0" name="KYNWIOAP"/>
      <point x="83.97992436803628" y="245.0" type="curve" name="VQXSMABH"/>
      <point x="125.69922445804258" y="245.0" name="KWTSQBCX"/>
      <point x="167.41852454804888" y="245.0" name="NXKOOSEH"/>
      <point x="204.18807716974936" y="245.0" type="curve" name="CQMYRDWN"/>
      <point x="207.01650429449552" y="263.0" name="EJQMBPRY"/>
      <point x="209.84493141924173" y="281.0" name="YIMWVJKP"/>
    </contour>
    <contour>
      <point x="53.57433277701472" y="-16.0" type="curve" name="XNPISBSE"/>
      <point x="95.29363286702102" y="-16.0" name="BWXXRUTE"/>
      <point x="153.98349570550448" y="31.0" name="YHXMFMXW"/>
      <point x="177.31801948466054" y="88.0" type="curve" smooth="yes" name="GYSGJPMU"/>
      <point x="199.2383297014435" y="144.0" name="GRVEBOXC"/>
      <point x="178.0251262658471" y="191.0" name="OXDRSDIJ"/>
      <point x="136.30582617584076" y="191.0" type="curve" smooth="yes" name="WASLBBJR"/>
      <point x="93.17231252346139" y="191.0" name="KCJPNCED"/>
      <point x="45.089051402776136" y="144.0" name="XGWUGCEM"/>
      <point x="23.168741185993184" y="88.0" type="curve" smooth="yes" name="WQBOOZJG"/>
      <point x="0.5413241880236512" y="31.0" name="ZDBERQQA"/>
      <point x="10.44081912463534" y="-16.0" name="LRXRGDXD"/>
      <point x="53.57433277701472" y="-16.0" type="curve" name="VKHWXTOR"/>
      <point x="53.57433277701472" y="-16.0" name="MXBEEBTJ"/>
      <point x="53.57433277701472" y="-16.0" name="THYHJVHG"/>
    </contour>
  </outline>
</glyph>
<glyph name="at" format="2">
  <advance width="676"/>
  <unicode hex="0040"/>
  <outline>
    <contour>
      <point x="379" y="-132" type="curve" name="FQZAFNCQ"/>
      <point x="401" y="-90" name="LXXKHWFQ"/>
      <point x="420" y="-46" name="NXPTJDYG"/>
      <point x="436" y="-4" type="curve" name="VPYNEDCH"/>
      <point x="226" y="-108" name="TICFWEAE"/>
      <point x="120" y="20" name="QOBITSYY"/>
      <point x="122" y="261" type="curve" smooth="yes" name="DZUTLLSC"/>
      <point x="123" y="442" name="ZODSNTSK"/>
      <point x="170" y="576" name="VHIYUKQK"/>
      <point x="303" y="576" type="curve" smooth="yes" name="IEQUALJJ"/>
      <point x="431" y="576" name="TXYKVUZA"/>
      <point x="556" y="465" name="UYWEINTU"/>
      <point x="564" y="308" type="curve" smooth="yes" name="SLKFSWHS"/>
      <point x="569" y="227" name="YEJVLEML"/>
      <point x="534" y="182" name="WKIOVEOH"/>
      <point x="511" y="182" type="curve" smooth="yes" name="KRYHFXAU"/>
      <point x="497" y="182" name="ERMZJYFA"/>
      <point x="491" y="194" name="GDRXFGPU"/>
      <point x="493" y="217" type="curve" smooth="yes" name="DVQLKDAE"/>
      <point x="499" y="299" name="MRZQRHLD"/>
      <point x="491" y="382" name="PIMFULUH"/>
      <point x="469" y="464" type="curve" name="RFIXBLPI"/>
      <point x="441" y="464" name="XEMBRBXY"/>
      <point x="412" y="464" name="FUIEHKVA"/>
      <point x="383" y="464" type="curve" name="ONFSCQTZ"/>
      <point x="385" y="456" name="LXCNBPVE"/>
      <point x="387" y="448" name="JXMLWDKL"/>
      <point x="389" y="440" type="curve" name="UJGGTJDO"/>
      <point x="368" y="461" name="HSBSKVAC"/>
      <point x="342" y="474" name="UOXZARYZ"/>
      <point x="315" y="474" type="curve" smooth="yes" name="XGIFKWIW"/>
      <point x="244" y="474" name="JAQZHOZU"/>
      <point x="204" y="391" name="SOQPNWLS"/>
      <point x="204" y="265" type="curve" smooth="yes" name="GYBVVHZQ"/>
      <point x="203" y="141" name="CPCDWZSV"/>
      <point x="243" y="55" name="IBFVDCQZ"/>
      <point x="315" y="55" type="curve" smooth="yes" name="CGGTEDDF"/>
      <point x="352" y="55" name="VWREYUDU"/>
      <point x="391" y="77" name="AVCCNGYW"/>
      <point x="417" y="111" type="curve" name="QZUPUKSB"/>
      <point x="427" y="80" name="OVHPASBG"/>
      <point x="445" y="63" name="WHRZIXUD"/>
      <point x="475" y="63" type="curve" smooth="yes" name="GEVITFRM"/>
      <point x="549" y="63" name="YRQOLTWD"/>
      <point x="648" y="154" name="FRKBGAUP"/>
      <point x="638" y="315" type="curve" smooth="yes" name="PMFLCHND"/>
      <point x="624" y="538" name="ZWBTEVGC"/>
      <point x="424" y="696" name="IHAFHYGC"/>
      <point x="247" y="696" type="curve" smooth="yes" name="QXXOKDSK"/>
      <point x="62" y="696" name="SRHBXOJX"/>
      <point x="18" y="510" name="FDUUZIDX"/>
      <point x="15" y="258" type="curve" smooth="yes" name="LVWFWUYH"/>
      <point x="11" y="-58" name="MBQAJLCS"/>
      <point x="101" y="-236" name="PSAFIGMA"/>
      <point x="379" y="-132" type="curve" name="BPEMZDQQ"/>
      <point x="379" y="-132" name="GJJGLNVQ"/>
      <point x="379" y="-132" name="UOAJPJAM"/>
    </contour>
    <contour>
      <point x="352" y="179" type="curve" name="EMOTFFFK"/>
      <point x="321" y="179" name="OYFKMIOH"/>
      <point x="305" y="212" name="DMJXAUVV"/>
      <point x="305" y="265" type="curve" smooth="yes" name="DZHUMLQS"/>
      <point x="305" y="318" name="PMKRWBNE"/>
      <point x="321" y="350" name="QXHJBGKE"/>
      <point x="352" y="350" type="curve" smooth="yes" name="LVTOXYBI"/>
      <point x="384" y="350" name="RNEWXPDQ"/>
      <point x="409" y="317" name="AMDFMIGB"/>
      <point x="409" y="265" type="curve" smooth="yes" name="VUQSOBLA"/>
      <point x="409" y="213" name="CKFLGXGA"/>
      <point x="384" y="179" name="SAURCMSP"/>
      <point x="352" y="179" type="curve" name="SAEYXHYD"/>
      <point x="352" y="179" name="ADSKUVWY"/>
      <point x="352" y="179" name="KQJHCKLW"/>
    </contour>
  </outline>
</glyph>
<glyph name="A" format="2">
  <advance width="465"/>
  <unicode hex="0041"/>
  <outline>
    <contour>
      <point x="-144.03436098183658" y="0.0" type="curve" name="IKHHUZKR"/>
      <point x="-95.24399307996475" y="0.0" name="EOFCPTCZ"/>
      <point x="-46.453625178093034" y="0.0" name="LNFRGDSM"/>
      <point x="-1.905897963340493" y="0.0" type="curve" name="FDQIRPQL"/>
      <point x="32.74233431480033" y="43.0" name="WWPMMRUF"/>
      <point x="61.73371234344876" y="86.0" name="AEYSHOGU"/>
      <point x="86.48244968497795" y="129.0" type="curve" name="EGXPJYKH"/>
      <point x="144.46520574227483" y="129.0" name="SGZMEJVZ"/>
      <point x="198.912427893639" y="129.0" name="KNYLEMEM"/>
      <point x="248.40990257669733" y="129.0" type="curve" name="RQUHBOHO"/>
      <point x="242.0459415460184" y="86.0" name="VMUYRJVE"/>
      <point x="230.02512626584712" y="43.0" name="PWTVCNFX"/>
      <point x="213.7616702985565" y="0.0" type="curve" name="MFVVTOZG"/>
      <point x="251.2383297014435" y="0.0" name="CDIWMWSF"/>
      <point x="287.3007755419575" y="0.0" name="LPTFKRGJ"/>
      <point x="320.5347942577252" y="0.0" type="curve" name="JFPBFCHE"/>
      <point x="408.21603512485706" y="224.0" name="OCRSSWUU"/>
      <point x="364.3754146912911" y="456.0" name="FOZJAMDO"/>
      <point x="192.54846686296008" y="680.0" type="curve" name="IZWQCORR"/>
      <point x="140.9296718363421" y="680.0" name="WNWHVHME"/>
      <point x="83.65402256023177" y="680.0" name="PZKUFUUN"/>
      <point x="23.549946159375224" y="680.0" type="curve" name="OSQCDFCO"/>
      <point x="97.79615818396269" y="456.0" name="YHLEWMQG"/>
      <point x="41.227615689038885" y="224.0" name="NUOLWKLK"/>
    </contour>
    <contour>
      <point x="152.9504871165134" y="278.0" type="curve" name="VPKFLZBX"/>
      <point x="177.69922445804258" y="357.0" name="POQCDIGJ"/>
      <point x="188.30582617584076" y="437.0" name="TBCLXPXO"/>
      <point x="181.94186514516184" y="516.0" type="curve" name="LWPNSWGP"/>
      <point x="220.83273811042199" y="437.0" name="SVIZGDKR"/>
      <point x="245.58147545195112" y="357.0" name="RNKWGXXC"/>
      <point x="252.6525432638166" y="278.0" type="curve" name="BOBQKTYF"/>
      <point x="220.83273811042199" y="278.0" name="EAKOGESW"/>
      <point x="187.5987193946542" y="278.0" name="NYFVLOMV"/>
    </contour>
  </outline>
</glyph>
<glyph name="B" format="2">
  <advance width="422"/>
  <unicode hex="0042"/>
  <outline>
    <contour>
      <point x="-75" y="0" type="curve" name="NWFEBPTS"/>
      <point x="-3" y="0" name="NVIEWQTY"/>
      <point x="66" y="0" name="YNTDAPYI"/>
      <point x="125" y="0" type="curve" smooth="yes" name="VPPYLTPR"/>
      <point x="228" y="0" name="CUTMTXUV"/>
      <point x="331" y="79" name="NBBLQEOQ"/>
      <point x="359" y="200" type="curve" smooth="yes" name="NFHYMAWQ"/>
      <point x="374" y="264" name="GOIIWMYE"/>
      <point x="360" y="318" name="MLBPTMBD"/>
      <point x="326" y="352" type="curve" name="RKKVVSSV"/>
      <point x="350" y="383" name="YIWXAOYM"/>
      <point x="359" y="429" name="QMQWNGTA"/>
      <point x="346" y="485" type="curve" smooth="yes" name="MOIIREPC"/>
      <point x="318" y="602" name="QAUQGCEE"/>
      <point x="217" y="680" name="JCZMXQBQ"/>
      <point x="118" y="680" type="curve" smooth="yes" name="SHCFQGBR"/>
      <point x="60" y="680" name="LOXUNLUQ"/>
      <point x="-5" y="680" name="IIOYISBF"/>
      <point x="-75" y="680" type="curve" name="KIRGQIMJ"/>
      <point x="53" y="456" name="CZGWRHCA"/>
      <point x="53" y="224" name="ZBVFXEKR"/>
    </contour>
    <contour>
      <point x="240" y="468" type="curve" name="YJCLCGJP"/>
      <point x="248" y="433" name="GITGOLBW"/>
      <point x="234" y="411" name="EAJWKTFM"/>
      <point x="210" y="411" type="curve" smooth="yes" name="EOLTBJKP"/>
      <point x="193" y="411" name="THSKFSKP"/>
      <point x="174" y="411" name="JDRUWLNS"/>
      <point x="156" y="411" type="curve" name="WPRHSTOL"/>
      <point x="152" y="449" name="DOMCCHET"/>
      <point x="142" y="489" name="OADOKHGL"/>
      <point x="131" y="527" type="curve" name="ZQQMTOGP"/>
      <point x="149" y="527" name="VJWQKZRB"/>
      <point x="168" y="527" name="SKRVECZY"/>
      <point x="185" y="527" type="curve" smooth="yes" name="CJLTJMSD"/>
      <point x="210" y="527" name="AHGSPQFD"/>
      <point x="233" y="503" name="OBTTDLAM"/>
      <point x="240" y="468" type="curve" name="EZDMIOQX"/>
      <point x="240" y="468" name="EGMJEFOJ"/>
      <point x="240" y="468" name="MEPEEWOY"/>
    </contour>
    <contour>
      <point x="256" y="216" type="curve" name="KQENCYZK"/>
      <point x="248" y="177" name="OPISTHRY"/>
      <point x="222" y="153" name="NJRSIGPN"/>
      <point x="193" y="153" type="curve" smooth="yes" name="ZUSFBAIO"/>
      <point x="173" y="153" name="UNPYFEIS"/>
      <point x="152" y="153" name="GIUWWTNS"/>
      <point x="131" y="153" type="curve" name="EDGQJXAA"/>
      <point x="145" y="194" name="HEKDNPUI"/>
      <point x="153" y="236" name="NOGIYGHZ"/>
      <point x="157" y="277" type="curve" name="JUQQPQFQ"/>
      <point x="178" y="277" name="DJPXGPVP"/>
      <point x="198" y="277" name="ZXSGYGBN"/>
      <point x="218" y="277" type="curve" smooth="yes" name="IUSFLEBF"/>
      <point x="247" y="277" name="JHGFGCNR"/>
      <point x="263" y="253" name="HYJLRETZ"/>
      <point x="256" y="216" type="curve" name="NKEQIMGS"/>
      <point x="256" y="216" name="RCBNADJQ"/>
      <point x="256" y="216" name="PWZFFZSM"/>
    </contour>
  </outline>
</glyph>
<glyph name="C" format="2">
  <advance width="414"/>
  <unicode hex="0043"/>
  <anchor x="257.0" y="517" name="center"/>
  <outline>
    <contour>
      <point x="-22.10259710444143" y="340.0" type="curve" name="JIWCLGCY"/>
      <point x="-22.10259710444143" y="84.0" name="IVYMLACA"/>
      <point x="38.708586077601694" y="-75.0" name="TFQQDVEO"/>
      <point x="248.0121933088198" y="12.0" type="curve" name="NEPZTRKI"/>
      <point x="277.71067811865476" y="68.0" name="YGCVZOWC"/>
      <point x="300.3380951166243" y="125.0" name="KVSEVHJC"/>
      <point x="314.48023074035524" y="181.0" type="curve" name="QODCIJIB"/>
      <point x="206.29289321881345" y="107.0" name="NJAUESDJ"/>
      <point x="121.44007947642774" y="159.0" name="FMMQMMZG"/>
      <point x="121.44007947642774" y="340.0" type="curve" smooth="yes" name="NHAWZNUH"/>
      <point x="121.44007947642774" y="521.0" name="WLSZKQKW"/>
      <point x="206.29289321881345" y="573.0" name="ZBIWIVGM"/>
      <point x="314.48023074035524" y="499.0" type="curve" name="YXOQKDPW"/>
      <point x="300.3380951166243" y="555.0" name="WLWTHINN"/>
      <point x="277.71067811865476" y="612.0" name="SDVSCVSG"/>
      <point x="248.0121933088198" y="668.0" type="curve" name="GAERKDGX"/>
      <point x="38.708586077601694" y="755.0" name="JBLVOGGE"/>
      <point x="-22.10259710444143" y="596.0" name="JORWLOAQ"/>
      <point x="-22.10259710444143" y="340.0" type="curve" name="KGLAYHPS"/>
      <point x="-22.10259710444143" y="340.0" name="BMINZRSV"/>
      <point x="-22.10259710444143" y="340.0" name="XOFBMCPD"/>
    </contour>
  </outline>
</glyph>
<glyph name="D" format="2">
  <advance width="481"/>
  <unicode hex="0044"/>
  <outline>
    <contour>
      <point x="-97.14348801657644" y="0.0" type="curve" name="MBEUQPHG"/>
      <point x="-29.261237022667842" y="0.0" name="TVRNZMBC"/>
      <point x="35.79258684649449" y="0.0" name="TJGAIBOB"/>
      <point x="94.48244968497795" y="0.0" type="curve" smooth="yes" name="RWIAMCVS"/>
      <point x="237.31801948466057" y="0.0" name="VIODMEPQ"/>
      <point x="411.9733944377378" y="146.0" name="EIFFYFGK"/>
      <point x="411.26628765655124" y="341.0" type="curve" smooth="yes" name="AOJYRMRL"/>
      <point x="411.26628765655124" y="535.0" name="YCVRAWSD"/>
      <point x="237.31801948466057" y="680.0" name="XQUTOSBW"/>
      <point x="94.48244968497795" y="680.0" type="curve" smooth="yes" name="QKUHVRXG"/>
      <point x="35.79258684649449" y="680.0" name="GPTJJNFI"/>
      <point x="-29.261237022667842" y="680.0" name="IRSWTWQU"/>
      <point x="-97.14348801657644" y="680.0" type="curve" name="XZJQCWFG"/>
      <point x="30.135732597002118" y="456.0" name="CTBTMCTA"/>
      <point x="30.135732597002118" y="224.0" name="UMDMZDON"/>
    </contour>
    <contour>
      <point x="163.07180746007305" y="522.0" type="curve" smooth="yes" name="FWWDAGIH"/>
      <point x="235.90380592228746" y="522.0" name="EQBEZDRL"/>
      <point x="303.786056916196" y="445.0" name="LEJYBDGY"/>
      <point x="303.786056916196" y="341.0" type="curve" smooth="yes" name="DAXQZEUR"/>
      <point x="303.786056916196" y="236.0" name="VPZFWNDW"/>
      <point x="235.90380592228746" y="158.0" name="KGXLCKBA"/>
      <point x="163.07180746007305" y="158.0" type="curve" smooth="yes" name="MJSERIPL"/>
      <point x="146.80835149278244" y="158.0" name="CHWICFHW"/>
      <point x="129.13068196311878" y="158.0" name="HGRINEAX"/>
      <point x="112.86722599582816" y="158.0" type="curve" name="JJMXLALR"/>
      <point x="148.9296718363421" y="278.0" name="YPKAYXGK"/>
      <point x="149.63677861752865" y="402.0" name="DYVEKPQZ"/>
      <point x="112.86722599582816" y="522.0" type="curve" name="RVCIRYZX"/>
      <point x="129.13068196311878" y="522.0" name="VLYBTGZO"/>
      <point x="146.80835149278244" y="522.0" name="OLYRJBXG"/>
    </contour>
  </outline>
</glyph>
<glyph name="E" format="2">
  <advance width="374"/>
  <unicode hex="0045"/>
  <outline>
    <contour>
      <point x="-72.50818869546293" y="0.0" type="curve" name="UKGGMFDY"/>
      <point x="42.04310985675775" y="0.0" name="NPPVOJKJ"/>
      <point x="139.62384566050133" y="0.0" name="FPJDRGEE"/>
      <point x="215.99137802864846" y="0.0" type="curve" name="SRHEPAKV"/>
      <point x="244.9827560572969" y="51.0" name="ULTCNFKI"/>
      <point x="268.31727983645294" y="105.0" name="CKKAPEUZ"/>
      <point x="283.873629022557" y="156.0" type="curve" name="QYJRGIHG"/>
      <point x="240.03300858899104" y="156.0" name="DELZIHAM"/>
      <point x="189.12132034355966" y="156.0" name="RMYHXQYC"/>
      <point x="133.25988462982238" y="156.0" type="curve" name="HCYUJINQ"/>
      <point x="145.2806999099937" y="195.0" name="SQBXIOMK"/>
      <point x="153.76598128423228" y="235.0" name="RQZYLUQU"/>
      <point x="158.00862197135154" y="274.0" type="curve" name="ITMGMGSL"/>
      <point x="208.92031021678298" y="274.0" name="VVYVJIFY"/>
      <point x="256.29646455628165" y="274.0" name="QMEQBYZS"/>
      <point x="297.3086578651014" y="274.0" type="curve" name="CAWJWFLK"/>
      <point x="302.9655121145938" y="324.0" name="YAQQAFUM"/>
      <point x="301.5512985522207" y="375.0" name="JLUOGTVC"/>
      <point x="294.48023074035524" y="425.0" type="curve" name="HTVCMYHI"/>
      <point x="253.4680374315355" y="425.0" name="ZWPOWAJW"/>
      <point x="206.09188309203677" y="425.0" name="CPZOIMOJ"/>
      <point x="155.18019484660536" y="425.0" type="curve" name="OUSIYIMI"/>
      <point x="150.93755415948607" y="458.0" name="NVUQNPCA"/>
      <point x="143.15937956643404" y="491.0" name="DRWSJXPI"/>
      <point x="133.25988462982238" y="524.0" type="curve" name="EOIHMBHU"/>
      <point x="189.12132034355966" y="524.0" name="MSAUUBPO"/>
      <point x="240.03300858899104" y="524.0" name="CUDUWQVK"/>
      <point x="283.873629022557" y="524.0" type="curve" name="DKLCXPWU"/>
      <point x="267.61017305526644" y="575.0" name="JFYRTTQK"/>
      <point x="244.9827560572969" y="629.0" name="AUJCCIWT"/>
      <point x="215.99137802864846" y="680.0" type="curve" name="XTRCCSPD"/>
      <point x="139.62384566050133" y="680.0" name="QNVKMRXH"/>
      <point x="42.04310985675775" y="680.0" name="XCGBFNPI"/>
      <point x="-72.50818869546293" y="680.0" type="curve" name="SVNLFKYC"/>
      <point x="54.06392513692907" y="456.0" name="FKKRMJYU"/>
      <point x="54.06392513692907" y="224.0" name="BZACQLIQ"/>
    </contour>
  </outline>
</glyph>
<glyph name="F" format="2">
  <advance width="366"/>
  <unicode hex="0046"/>
  <outline>
    <contour>
      <point x="-73" y="0" type="curve" name="GHBNUDWO"/>
      <point x="-24" y="0" name="MDTEALZQ"/>
      <point x="22" y="0" name="QKOQATEN"/>
      <point x="65" y="0" type="curve" name="FNHGPGSY"/>
      <point x="112" y="83" name="KMICTRLF"/>
      <point x="142" y="169" name="CXKQVXAQ"/>
      <point x="155" y="252" type="curve" name="BWGYONBM"/>
      <point x="206" y="252" name="UOAFTZPD"/>
      <point x="253" y="252" name="FWCNJQRB"/>
      <point x="294" y="252" type="curve" name="WXCKWHXQ"/>
      <point x="301" y="302" name="LDFWSJRI"/>
      <point x="302" y="353" name="KPRRCMJT"/>
      <point x="297" y="403" type="curve" name="SFXHLOGC"/>
      <point x="256" y="403" name="WHRSXFTT"/>
      <point x="208" y="403" name="DJDDNSGC"/>
      <point x="158" y="403" type="curve" name="OVCEZRRO"/>
      <point x="153" y="442" name="KSQKRTVF"/>
      <point x="145" y="483" name="LRYXUBYI"/>
      <point x="134" y="522" type="curve" name="XAAMNMHU"/>
      <point x="189" y="522" name="JACWKUGV"/>
      <point x="240" y="522" name="WNCVJZKP"/>
      <point x="284" y="522" type="curve" name="QRCEMUFB"/>
      <point x="268" y="574" name="XYIONOEK"/>
      <point x="245" y="628" name="XWEBJHUK"/>
      <point x="216" y="680" type="curve" name="NDRNQHJU"/>
      <point x="139" y="680" name="FPAWCXZQ"/>
      <point x="42" y="680" name="FQKLFCKC"/>
      <point x="-73" y="680" type="curve" name="GNZJFUJP"/>
      <point x="54" y="456" name="YWCRPHRQ"/>
      <point x="54" y="224" name="LWTVYYRD"/>
    </contour>
  </outline>
</glyph>
<glyph name="G" format="2">
  <advance width="478"/>
  <unicode hex="0047"/>
  <outline>
    <contour>
      <point x="315.3675323681472" y="36.0" type="curve" name="HREDDHVL"/>
      <point x="375.4716087690037" y="159.0" name="QXTAFFSJ"/>
      <point x="398.8061325481598" y="285.0" name="IENORUBX"/>
      <point x="384.66399692442883" y="408.0" type="curve" name="QOXCZIBD"/>
      <point x="333.0452018978108" y="408.0" name="FIJIUPGY"/>
      <point x="272.94112549695427" y="408.0" name="HHQJACXM"/>
      <point x="207.88730162779189" y="408.0" type="curve" name="LIVDMQLK"/>
      <point x="213.5441558772843" y="359.0" name="NCYPDDCR"/>
      <point x="212.83704909609776" y="308.0" name="OHAFWLVY"/>
      <point x="207.1801948466054" y="259.0" type="curve" name="UXQQDNDF"/>
      <point x="232.63603896932108" y="259.0" name="JLIRAHDP"/>
      <point x="258.7989898732233" y="259.0" name="VGQASOXN"/>
      <point x="282.1335136523794" y="259.0" type="curve" name="IPMNEIXY"/>
      <point x="277.89087296526014" y="224.0" name="XYRWBXQC"/>
      <point x="270.81980515339467" y="188.0" name="OMFBNAWC"/>
      <point x="259.5060966544099" y="153.0" type="curve" name="XAZLVTJY"/>
      <point x="243.94974746830587" y="148.0" name="OCYMABID"/>
      <point x="227.68629150101526" y="146.0" name="DPMRIEJF"/>
      <point x="212.83704909609776" y="146.0" type="curve" smooth="yes" name="QZFNEZZJ"/>
      <point x="144.24769132100263" y="146.0" name="RRDYSZTW"/>
      <point x="120.20606076066002" y="227.0" name="WORFDSHE"/>
      <point x="120.20606076066002" y="341.0" type="curve" smooth="yes" name="KMZXZPEM"/>
      <point x="119.49895397947347" y="513.0" name="PKHOKEQK"/>
      <point x="212.83704909609776" y="578.0" name="MHCAUDNE"/>
      <point x="361.32947314527274" y="490.0" type="curve" name="BGXOXAES"/>
      <point x="347.1873375215418" y="546.0" name="OOJTVVII"/>
      <point x="325.97413408594537" y="603.0" name="DBNATENP"/>
      <point x="296.9827560572969" y="659.0" type="curve" name="VEHNJYTS"/>
      <point x="41.71720804895324" y="767.0" name="YTDBFZJD"/>
      <point x="-21.215295476649487" y="590.0" name="KBKUAUIS"/>
      <point x="-23.336615820209147" y="334.0" type="curve" smooth="yes" name="BNTSDMVF"/>
      <point x="-25.457936163768807" y="73.0" name="FRMGVAWW"/>
      <point x="50.20248942319182" y="-105.0" name="QDASGGMT"/>
      <point x="315.3675323681472" y="36.0" type="curve" name="HSJMEXAB"/>
      <point x="315.3675323681472" y="36.0" name="RLRCQVYD"/>
      <point x="315.3675323681472" y="36.0" name="KECUMIHF"/>
    </contour>
    <contour>
      <point x="333.04520189781084" y="198.0" type="curve" name="INOZOWEA"/>
      <point x="333.04520189781084" y="197.0" name="JRPFZBLI"/>
      <point x="333.04520189781084" y="197.0" name="MINCCQOM"/>
      <point x="331.63098833543773" y="196.0" type="curve" name="CUMXKXEC"/>
      <point x="332.3380951166243" y="197.0" name="IVUMVMAS"/>
      <point x="333.04520189781084" y="197.0" name="UCDUEDLC"/>
    </contour>
  </outline>
</glyph>
<glyph name="H" format="2">
  <advance width="491"/>
  <unicode hex="0048"/>
  <outline>
    <contour>
      <point x="66" y="0" type="curve" name="WCBBECCN"/>
      <point x="116" y="90" name="JCDYTCJL"/>
      <point x="148" y="184" name="DVWIGRUM"/>
      <point x="158" y="274" type="curve" name="TFYOPQKM"/>
      <point x="212" y="274" name="ILQITLAK"/>
      <point x="264" y="274" name="VAHIYAIO"/>
      <point x="309" y="274" type="curve" name="NTWWDYMW"/>
      <point x="300" y="184" name="WBPJVHLR"/>
      <point x="267" y="90" name="KGXHMLTK"/>
      <point x="216" y="0" type="curve" name="MSLCJUPL"/>
      <point x="254" y="0" name="DLXIHISV"/>
      <point x="290" y="0" name="XMMRMZPN"/>
      <point x="323" y="0" type="curve" name="LEHEGQIU"/>
      <point x="450" y="224" name="UJNCCEIN"/>
      <point x="450" y="456" name="OGZKLDEL"/>
      <point x="323" y="680" type="curve" name="EDIQXMGB"/>
      <point x="290" y="680" name="PXXAGWZW"/>
      <point x="254" y="680" name="HMQJHDHZ"/>
      <point x="216" y="680" type="curve" name="OXQQKLXH"/>
      <point x="262" y="599" name="QZRGFQRI"/>
      <point x="292" y="516" name="YNLQBOWI"/>
      <point x="305" y="435" type="curve" name="AEUYOUKQ"/>
      <point x="259" y="435" name="KRAUNTTO"/>
      <point x="208" y="435" name="GMLFOBPN"/>
      <point x="155" y="435" type="curve" name="PCAKUFIK"/>
      <point x="141" y="516" name="TNPEOMLR"/>
      <point x="112" y="599" name="TNSHEILJ"/>
      <point x="66" y="680" type="curve" name="OYADZISU"/>
      <point x="22" y="680" name="XNUMRZOI"/>
      <point x="-26" y="680" name="ZNWVUIXN"/>
      <point x="-75" y="680" type="curve" name="NTGBTNAN"/>
      <point x="51" y="456" name="QERXBSDB"/>
      <point x="51" y="224" name="XYRNLPWS"/>
      <point x="-75" y="0" type="curve" name="HETRWSBZ"/>
      <point x="-26" y="0" name="CHEPODRB"/>
      <point x="22" y="0" name="VFSPPKAR"/>
    </contour>
  </outline>
</glyph>
<glyph name="I" format="2">
  <advance width="229"/>
  <unicode hex="0049"/>
  <outline>
    <contour>
      <point x="-62" y="0" type="curve" name="SPPIOHRP"/>
      <point x="-13" y="0" name="NQSMQIHM"/>
      <point x="29" y="0" name="QPBCQXBX"/>
      <point x="62" y="0" type="curve" name="CINAQAHS"/>
      <point x="188" y="224" name="QDISZRUT"/>
      <point x="188" y="456" name="RMDFWLLA"/>
      <point x="62" y="680" type="curve" name="TKJXGBPB"/>
      <point x="29" y="680" name="APUHNJCV"/>
      <point x="-13" y="680" name="LJOIDXAM"/>
      <point x="-62" y="680" type="curve" name="LQQZJUDV"/>
      <point x="65" y="456" name="ASQZTTGE"/>
      <point x="65" y="224" name="HUHTXCRN"/>
    </contour>
  </outline>
</glyph>
<glyph name="J" format="2">
  <advance width="306"/>
  <unicode hex="004A"/>
  <outline>
    <contour>
      <point x="238.55992052357226" y="235.0" type="curve" name="ZXMVMQCA"/>
      <point x="262.60155108391484" y="382.0" name="GLZAABHF"/>
      <point x="232.19595949289334" y="533.0" name="QWHOKKGZ"/>
      <point x="148.75735931288074" y="680.0" type="curve" name="QEUQHDLT"/>
      <point x="116.23044737829954" y="680.0" name="EKVVQPVR"/>
      <point x="78.75378797541254" y="680.0" name="CIOBYSNI"/>
      <point x="37.74159466659276" y="680.0" type="curve" name="NUKBZNDG"/>
      <point x="121.18019484660536" y="533.0" name="CLCNUUAU"/>
      <point x="151.5857864376269" y="382.0" name="LAYNWHGY"/>
      <point x="127.54415587728428" y="235.0" type="curve" smooth="yes" name="FEISQJPT"/>
      <point x="114.10912703473988" y="152.0" name="HDYKPIDK"/>
      <point x="70.26850660117395" y="135.0" name="OMLUPVLQ"/>
      <point x="-28.726442764942732" y="171.0" type="curve" name="FKMIBNMT"/>
      <point x="-43.57568516986021" y="116.0" name="WDZMNQDD"/>
      <point x="-66.20310216782974" y="60.0" name="IZGGZYVO"/>
      <point x="-95.90158697766475" y="5.0" type="curve" name="HUDZUTOO"/>
      <point x="92.18881681795693" y="-55.0" name="BXOEXDVC"/>
      <point x="208.86143571373725" y="51.0" name="XWJHHUPF"/>
      <point x="238.55992052357226" y="235.0" type="curve" name="ANCCLVXA"/>
      <point x="238.55992052357226" y="235.0" name="UTGJZYPN"/>
      <point x="238.55992052357226" y="235.0" name="SXPMHDRZ"/>
    </contour>
  </outline>
</glyph>
<glyph name="K" format="2">
  <advance width="457"/>
  <unicode hex="004B"/>
  <outline>
    <contour>
      <point x="-97.12267273640515" y="0.0" type="curve" name="ETWCFZXM"/>
      <point x="-47.62519805334682" y="0.0" name="YYCWMXHL"/>
      <point x="-0.24904371384812407" y="0.0" name="KHZTMROF"/>
      <point x="44.29868350090436" y="0.0" type="curve" name="IUTXTCMK"/>
      <point x="97.33169208989545" y="94.0" name="OYRJHHHE"/>
      <point x="129.15149724329007" y="190.0" name="BRWCQGQM"/>
      <point x="137.63677861752865" y="284.0" type="curve" name="JSXPWELR"/>
      <point x="180.77029226990805" y="190.0" name="OCVKKDMC"/>
      <point x="199.15506858075827" y="94.0" name="RPOPRAQB"/>
      <point x="191.3768939877063" y="0.0" type="curve" name="AUJVCJBA"/>
      <point x="237.33883476483186" y="0.0" name="QXNFZFFJ"/>
      <point x="281.1794551983978" y="0.0" name="ZDCKHLQO"/>
      <point x="320.0703281636579" y="0.0" type="curve" name="YYYDYPZV"/>
      <point x="337.04089091213507" y="118.0" name="RQDWSUZW"/>
      <point x="312.2921535706059" y="239.0" name="GRARKFGN"/>
      <point x="247.94543648263004" y="357.0" type="curve" name="YJNSCAAS"/>
      <point x="303.8068721963673" y="464.0" name="JZORATWH"/>
      <point x="325.72718241315033" y="573.0" name="YJEHPXHJ"/>
      <point x="313.70636713297904" y="680.0" type="curve" name="PVSXUMUK"/>
      <point x="276.22970773009195" y="680.0" name="QBALBOIN"/>
      <point x="234.5104076400857" y="680.0" name="KCRBJMDP"/>
      <point x="190.66978720651974" y="680.0" type="curve" name="VNZWTNME"/>
      <point x="194.912427893639" y="593.0" name="AGIKXXQD"/>
      <point x="176.52765158278874" y="504.0" name="DNMZOCJY"/>
      <point x="135.515458273969" y="417.0" type="curve" name="QZAXHVGY"/>
      <point x="124.20174977498425" y="504.0" name="DRPODOJY"/>
      <point x="93.08905140277614" y="593.0" name="SROXAQUK"/>
      <point x="44.29868350090436" y="680.0" type="curve" name="BJZSNNVE"/>
      <point x="-0.24904371384812407" y="680.0" name="RQGGPKJC"/>
      <point x="-47.62519805334682" y="680.0" name="YUWDNGBX"/>
      <point x="-97.12267273640515" y="680.0" type="curve" name="RAWPDBNE"/>
      <point x="29.449441095986856" y="456.0" name="HFXLCHGZ"/>
      <point x="29.449441095986856" y="224.0" name="TIYTSOKI"/>
    </contour>
  </outline>
</glyph>
<glyph name="L" format="2">
  <advance width="341"/>
  <unicode hex="004C"/>
  <outline>
    <contour>
      <point x="-94.31148955436208" y="0.0" type="curve" name="PCNWDEEQ"/>
      <point x="14.58295474836629" y="0.0" name="IJAILIIM"/>
      <point x="107.92104986499055" y="0.0" name="HBENTWWI"/>
      <point x="180.0459415460184" y="0.0" type="curve" name="TEANIPRH"/>
      <point x="209.74442635585342" y="52.0" name="UJAGJAGS"/>
      <point x="233.786056916196" y="107.0" name="JOKBPKGQ"/>
      <point x="249.34240610230006" y="159.0" type="curve" name="MXVRENFY"/>
      <point x="209.74442635585342" y="159.0" name="YJEPRHXW"/>
      <point x="163.07537879754125" y="159.0" name="WFMNZBKH"/>
      <point x="112.16369055210984" y="159.0" type="curve" name="EWVPKJFP"/>
      <point x="164.48959235991435" y="331.0" name="AQFSKTDG"/>
      <point x="140.44796179957174" y="508.0" name="FFMDJPGK"/>
      <point x="43.57433277701473" y="680.0" type="curve" name="NNOMSYHT"/>
      <point x="1.1479259058218645" y="680.0" name="BAZXIZPD"/>
      <point x="-44.8140148713037" y="680.0" name="LOPZYMQB"/>
      <point x="-94.31148955436208" y="680.0" type="curve" name="AITIXISD"/>
      <point x="32.967731059216504" y="456.0" name="YKKVUBWF"/>
      <point x="32.967731059216504" y="224.0" name="LKMDMFVC"/>
    </contour>
  </outline>
</glyph>
<glyph name="M" format="2">
  <advance width="606"/>
  <unicode hex="004D"/>
  <outline>
    <contour>
      <point x="-100.0508652763321" y="0.0" type="curve" name="EOIBLOKX"/>
      <point x="-54.088924499206485" y="0.0" name="XNZRIAJR"/>
      <point x="-8.126983722080922" y="0.0" name="OCMDNBEO"/>
      <point x="34.29942314911193" y="0.0" type="curve" name="LNUUDBJN"/>
      <point x="119.15223689149764" y="149.0" name="SKDBVUEO"/>
      <point x="148.1436149201461" y="304.0" name="ICMKVRXY"/>
      <point x="119.85934367268419" y="453.0" type="curve" name="VAOINELB"/>
      <point x="179.9634200735407" y="304.0" name="EOOJMAHU"/>
      <point x="180.67052685472726" y="149.0" name="QPPZXEJJ"/>
      <point x="125.51619792217659" y="0.0" type="curve" name="TLCASVOF"/>
      <point x="162.9928573250636" y="0.0" name="XEWUBBPW"/>
      <point x="199.76240994676408" y="0.0" name="TLAYJXNG"/>
      <point x="233.70353544371835" y="0.0" type="curve" name="LFCMWZPZ"/>
      <point x="346.84062043356596" y="152.0" name="GXCBBWYB"/>
      <point x="402.7020561473032" y="309.0" name="ATFBXLZT"/>
      <point x="397.0452018978108" y="461.0" type="curve" name="JVXSWVIE"/>
      <point x="427.45079348883235" y="309.0" name="IQSVWAUW"/>
      <point x="399.16652224137044" y="152.0" name="XYRFBCBH"/>
      <point x="313.60660171779824" y="0.0" type="curve" name="TJCGTTVC"/>
      <point x="348.9619407771256" y="0.0" name="JUCWGVWW"/>
      <point x="382.90306627407995" y="0.0" name="QJMGKOGC"/>
      <point x="414.7228714274745" y="0.0" type="curve" name="BAPIYUZZ"/>
      <point x="540.5878784786801" y="224.0" name="ELMSRBWL"/>
      <point x="539.8807716974934" y="456.0" name="HSTOWMKS"/>
      <point x="412.60155108391496" y="680.0" type="curve" name="NKVIVTOB"/>
      <point x="365.9325035256028" y="680.0" name="LBRIWAKP"/>
      <point x="315.0208152801713" y="680.0" name="QRBRDFVA"/>
      <point x="260.57359312880715" y="680.0" type="curve" name="XBOJQCOX"/>
      <point x="312.8994949366117" y="544.0" name="PUOINPPA"/>
      <point x="317.14213562373095" y="403.0" name="YGSSQYGL"/>
      <point x="274.7157287525381" y="267.0" type="curve" name="XHFRFCFQ"/>
      <point x="264.1091270347399" y="403.0" name="MZEOHRGS"/>
      <point x="205.41926419625645" y="544.0" name="GXQZKJDH"/>
      <point x="100.06035379946087" y="680.0" type="curve" name="MNPRODYE"/>
      <point x="37.127850273858144" y="680.0" name="AXQRBIXK"/>
      <point x="-30.047293938863845" y="680.0" name="IEIQNAVU"/>
      <point x="-100.0508652763321" y="680.0" type="curve" name="MURISXZG"/>
      <point x="26.521248556059902" y="456.0" name="AAQQWQUH"/>
      <point x="26.521248556059902" y="224.0" name="IFAEKOKG"/>
    </contour>
  </outline>
</glyph>
<glyph name="N" format="2">
  <advance width="491"/>
  <unicode hex="004E"/>
  <outline>
    <contour>
      <point x="-96.3861287036957" y="0.0" type="curve" name="RLLCNOST"/>
      <point x="-48.30286758301048" y="0.0" name="HVBBQOAY"/>
      <point x="-1.633820024698366" y="0.0" name="ZYFDBTQY"/>
      <point x="42.20680040886759" y="0.0" type="curve" name="EZTIVFMZ"/>
      <point x="113.6245853087089" y="127.0" name="VHHGGEXX"/>
      <point x="146.15149724329007" y="257.0" name="OGRCNWPL"/>
      <point x="136.2520023066784" y="384.0" type="curve" name="QMYTXQQW"/>
      <point x="199.89161261346771" y="257.0" name="CMRAPXQR"/>
      <point x="219.69060248669103" y="127.0" name="JPVYRZGH"/>
      <point x="194.2347583639753" y="0.0" type="curve" name="PWDWITQH"/>
      <point x="232.41852454804888" y="0.0" name="QIDGYCAO"/>
      <point x="269.18807716974936" y="0.0" name="BXEVZOHJ"/>
      <point x="301.7149891043306" y="0.0" type="curve" name="MAAUGGWE"/>
      <point x="428.2871029367226" y="224.0" name="ZTTRJIPU"/>
      <point x="428.2871029367226" y="456.0" name="VZXXVNCV"/>
      <point x="301.7149891043306" y="680.0" type="curve" name="ASTEBFSF"/>
      <point x="269.18807716974936" y="680.0" name="HYCBVFIR"/>
      <point x="233.83273811042199" y="680.0" name="HFALRZCH"/>
      <point x="197.0631854887215" y="680.0" type="curve" name="KQMEHVOS"/>
      <point x="268.4809703885628" y="553.0" name="QQZCSPJD"/>
      <point x="301.007882323144" y="423.0" name="KPZKVJPU"/>
      <point x="291.1083873865323" y="296.0" type="curve" name="YVTATRER"/>
      <point x="254.33883476483186" y="423.0" name="NRODXJSR"/>
      <point x="170.90023458481926" y="553.0" name="XWCAHCKC"/>
      <point x="45.03522753361378" y="680.0" type="curve" name="VNDUAKHM"/>
      <point x="1.1946071000478469" y="680.0" name="RCVPLJEX"/>
      <point x="-46.888654020637375" y="680.0" name="ALKHOMSS"/>
      <point x="-96.3861287036957" y="680.0" type="curve" name="HURICYUZ"/>
      <point x="30.185985128696274" y="456.0" name="PGZXWUFP"/>
      <point x="30.185985128696274" y="224.0" name="XPDIADUM"/>
    </contour>
  </outline>
</glyph>
<glyph name="O" format="2">
  <advance width="520"/>
  <unicode hex="004F"/>
  <anchor x="-108.0" y="688" name="top"/>
  <outline>
    <contour>
      <point x="158.17662350913713" y="-16.0" type="curve" name="LBYSZARE"/>
      <point x="296.06244584051393" y="-16.0" name="BYGRSVVY"/>
      <point x="473.5462479183374" y="135.0" name="IGDVUEZN"/>
      <point x="472.8391411371508" y="341.0" type="curve" smooth="yes" name="XYIVLTVO"/>
      <point x="472.8391411371508" y="546.0" name="YVNRHGFL"/>
      <point x="296.06244584051393" y="696.0" name="EFPJOLBJ"/>
      <point x="158.17662350913713" y="696.0" type="curve" smooth="yes" name="HASQGMHS"/>
      <point x="19.583694396573833" y="696.0" name="SELKSSUB"/>
      <point x="-3.7508293825822534" y="546.0" name="AUXVAUZB"/>
      <point x="-3.7508293825822534" y="341.0" type="curve" smooth="yes" name="PTMIRFZQ"/>
      <point x="-3.0437226013957" y="135.0" name="IYQGPCDT"/>
      <point x="19.583694396573833" y="-16.0" name="LSTPEQDS"/>
      <point x="158.17662350913713" y="-16.0" type="curve" name="VNSQYBMN"/>
      <point x="158.17662350913713" y="-16.0" name="IWIKSRKD"/>
      <point x="158.17662350913713" y="-16.0" name="LCGLVEUP"/>
    </contour>
    <contour>
      <point x="228.88730162779189" y="146.0" type="curve" name="CHIEXHSI"/>
      <point x="160.2979438526968" y="146.0" name="YRAIQSDM"/>
      <point x="141.91316754184658" y="225.0" name="SSXRQSJX"/>
      <point x="141.91316754184658" y="341.0" type="curve" smooth="yes" name="BTJQDOGS"/>
      <point x="141.91316754184658" y="457.0" name="YMGISTUX"/>
      <point x="160.2979438526968" y="534.0" name="VQBJPUWV"/>
      <point x="228.88730162779189" y="534.0" type="curve" smooth="yes" name="RNFFKTVL"/>
      <point x="297.47665940288704" y="534.0" name="TBUOOQOI"/>
      <point x="365.3589103967956" y="456.0" name="VBITHKKP"/>
      <point x="365.3589103967956" y="341.0" type="curve" smooth="yes" name="LJFILMKA"/>
      <point x="365.3589103967956" y="225.0" name="OLEDMEQW"/>
      <point x="297.47665940288704" y="146.0" name="PEXMKTAJ"/>
      <point x="228.88730162779189" y="146.0" type="curve" name="JUPDUJLL"/>
      <point x="228.88730162779189" y="146.0" name="MSEBZVBM"/>
      <point x="228.88730162779189" y="146.0" name="TNLQESJW"/>
    </contour>
  </outline>
</glyph>
<glyph name="P" format="2">
  <advance width="419"/>
  <unicode hex="0050"/>
  <outline>
    <contour>
      <point x="-75.1104794275854" y="0.0" type="curve" name="IMITKQRQ"/>
      <point x="-25.613004744527046" y="0.0" name="MPFMTAOJ"/>
      <point x="21.76314959497165" y="0.0" name="HBXJKSWF"/>
      <point x="64.89666324735103" y="0.0" type="curve" name="ORDNEDNS"/>
      <point x="103.78753621261114" y="69.0" name="IITWZPYW"/>
      <point x="132.07180746007305" y="141.0" name="RJSXRBHR"/>
      <point x="146.92104986499055" y="210.0" type="curve" name="FHZJONML"/>
      <point x="168.84136008177353" y="210.0" name="RFKDYARI"/>
      <point x="190.05456351736996" y="210.0" name="GVXLLONL"/>
      <point x="210.56066017177983" y="210.0" type="curve" smooth="yes" name="OQXWERCQ"/>
      <point x="306.72718241315033" y="210.0" name="UEWKIHKU"/>
      <point x="392.2871029367226" y="303.0" name="USNBLSAM"/>
      <point x="368.24547237637995" y="444.0" type="curve" smooth="yes" name="WLLKABMT"/>
      <point x="343.49673503485076" y="585.0" name="BFLSJRDG"/>
      <point x="226.82411613907044" y="680.0" name="BESRQPOX"/>
      <point x="118.63677861752865" y="680.0" type="curve" smooth="yes" name="NFLQBNXB"/>
      <point x="59.946915779045185" y="680.0" name="PDVKJZOA"/>
      <point x="-5.106908090117145" y="680.0" name="OFEWYKYO"/>
      <point x="-75.1104794275854" y="680.0" type="curve" name="XWNVVJBT"/>
      <point x="52.168741185993156" y="456.0" name="PKTIDJBK"/>
      <point x="52.168741185993156" y="224.0" name="NEQFCFEG"/>
    </contour>
    <contour>
      <point x="186.5190296114372" y="523.0" type="curve" smooth="yes" name="BKHBNVCL"/>
      <point x="222.58147545195112" y="523.0" name="UJZXMGHG"/>
      <point x="252.98706704297268" y="488.0" name="SRYXCOMA"/>
      <point x="260.7652416360247" y="442.0" type="curve" smooth="yes" name="WMDTRNMY"/>
      <point x="268.54341622907674" y="396.0" name="GUSQLCTT"/>
      <point x="250.15863991822647" y="362.0" name="INVYTTRI"/>
      <point x="221.16726188957801" y="362.0" type="curve" smooth="yes" name="IUHEODZO"/>
      <point x="202.07537879754125" y="362.0" name="LKVYRHOW"/>
      <point x="180.86217536194482" y="362.0" name="QMCEOQPJ"/>
      <point x="160.35607870753495" y="362.0" type="curve" name="FPOJIAPS"/>
      <point x="158.94186514516184" y="415.0" name="KJXUQXSH"/>
      <point x="149.04237020855018" y="470.0" name="WBLAZPWG"/>
      <point x="133.48602102244615" y="523.0" type="curve" name="LGKQNVTL"/>
      <point x="151.16369055210984" y="523.0" name="OQIDRTNY"/>
      <point x="169.54846686296008" y="523.0" name="JDKHGFGX"/>
    </contour>
  </outline>
</glyph>
<glyph name="Q" format="2">
  <advance width="520"/>
  <unicode hex="0051"/>
  <outline>
    <contour>
      <point x="175.85429303880085" y="-16.0" type="curve" name="FEFXMHAJ"/>
      <point x="197.77460325558383" y="-16.0" name="BMKYFFBX"/>
      <point x="218.98780669118025" y="-12.0" name="YKJNMRPM"/>
      <point x="240.90811690796323" y="-5.0" type="curve" name="NGDPFNAD"/>
      <point x="240.20101012677668" y="-38.0" name="FIDPIOSD"/>
      <point x="236.66547622084397" y="-73.0" name="TMPTZFXB"/>
      <point x="231.0086219713516" y="-106.0" type="curve" name="DDRGTNMD"/>
      <point x="275.55634918610406" y="-79.0" name="XACQFBPD"/>
      <point x="318.68986283848346" y="-51.0" name="CIUBUNLP"/>
      <point x="357.58073580374355" y="-24.0" type="curve" name="YZCTPBWO"/>
      <point x="360.40916292848976" y="7.0" name="MKNLXGPC"/>
      <point x="361.1162697096763" y="40.0" name="YBLBTTNY"/>
      <point x="358.99494936611666" y="71.0" type="curve" name="XZPBNFZW"/>
      <point x="420.51323932934633" y="135.0" name="KEYGOWJA"/>
      <point x="464.3538597629123" y="230.0" name="YCCJGEKF"/>
      <point x="457.28279195104676" y="341.0" type="curve" smooth="yes" name="UHHJHVMH"/>
      <point x="443.1406563273158" y="546.0" name="PNLHZKPK"/>
      <point x="268.4852813742386" y="696.0" name="QXXLVUYK"/>
      <point x="130.5994590428618" y="696.0" type="curve" smooth="yes" name="PFYYSZTN"/>
      <point x="-7.993470069701516" y="696.0" name="XUAMPTFW"/>
      <point x="-33.44931419241726" y="546.0" name="ZWJQLIEK"/>
      <point x="-19.30717856868631" y="341.0" type="curve" smooth="yes" name="TKYUHBMR"/>
      <point x="-5.872149726141913" y="135.0" name="JRIXVYSD"/>
      <point x="37.26136392623752" y="-16.0" name="EIFYCMFQ"/>
      <point x="175.85429303880085" y="-16.0" type="curve" name="PJLFSKIE"/>
      <point x="175.85429303880085" y="-16.0" name="PMMCKPIJ"/>
      <point x="175.85429303880085" y="-16.0" name="DFUQVYVU"/>
    </contour>
    <contour>
      <point x="125.64971157455597" y="341.0" type="curve" name="ESGWVKCD"/>
      <point x="117.87153698150394" y="457.0" name="XSVRLMLM"/>
      <point x="134.8420997299811" y="534.0" name="MDHDMPXE"/>
      <point x="203.4314575050762" y="534.0" type="curve" smooth="yes" name="DMRMLMZV"/>
      <point x="272.0208152801713" y="534.0" name="RVHYWSSV"/>
      <point x="341.31727983645294" y="456.0" name="CMXODXEY"/>
      <point x="349.095454429505" y="341.0" type="curve" smooth="yes" name="CPNNVJDC"/>
      <point x="351.9238815542512" y="297.0" name="KROSMSSF"/>
      <point x="344.14570696119915" y="258.0" name="MBGSXPRW"/>
      <point x="331.4177848998413" y="227.0" type="curve" name="MZKZFLHF"/>
      <point x="320.81118318204307" y="261.0" name="SWYSHQRE"/>
      <point x="307.3761543394987" y="296.0" name="ZVHISFQD"/>
      <point x="291.81980515339467" y="330.0" type="curve" name="CHBKYGOD"/>
      <point x="262.12132034355966" y="303.0" name="RKYOXAXO"/>
      <point x="228.88730162779189" y="275.0" name="KICHAAMR"/>
      <point x="194.23906934965106" y="248.0" type="curve" name="IPXAPQII"/>
      <point x="207.67409819219552" y="214.0" name="HXZUOSLW"/>
      <point x="217.57359312880715" y="179.0" name="YWGYVGMR"/>
      <point x="224.64466094067262" y="145.0" type="curve" name="LHMTQPAW"/>
      <point x="158.17662350913713" y="147.0" name="KMLGOODS"/>
      <point x="132.72077938642144" y="226.0" name="PFACHMEI"/>
      <point x="125.64971157455597" y="341.0" type="curve" name="OYFWEQMT"/>
      <point x="125.64971157455597" y="341.0" name="WRPWTKII"/>
      <point x="125.64971157455597" y="341.0" name="XSDROIEK"/>
    </contour>
  </outline>
</glyph>
<glyph name="R" format="2">
  <advance width="442"/>
  <unicode hex="0052"/>
  <outline>
    <contour>
      <point x="-97.1980515339464" y="0.0" type="curve" name="TTIRSAMF"/>
      <point x="-48.40768363207462" y="0.0" name="WFWJTWSQ"/>
      <point x="-0.32442251138937195" y="0.0" name="DPILQHBS"/>
      <point x="43.51619792217656" y="0.0" type="curve" name="UVSIHWEW"/>
      <point x="85.94260479336941" y="75.0" name="ILQEDELL"/>
      <point x="115.64108960320442" y="153.0" name="CWSHZHJM"/>
      <point x="129.78322522693537" y="228.0" type="curve" name="MYZBKJUJ"/>
      <point x="146.7537879754125" y="228.0" name="QLPGGEAE"/>
      <point x="164.4314575050762" y="228.0" name="VNAJUNEF"/>
      <point x="180.6949134723668" y="228.0" type="curve" name="GGVOIFZZ"/>
      <point x="196.95836943965736" y="153.0" name="RQOXTOLH"/>
      <point x="196.95836943965742" y="75.0" name="DPWGMLLG"/>
      <point x="182.1091270347399" y="0.0" type="curve" name="LHSPWHRU"/>
      <point x="225.24264068711932" y="0.0" name="RPQPOSRI"/>
      <point x="266.25483399593907" y="0.0" name="CFFYPSVX"/>
      <point x="303.02438661763955" y="0.0" type="curve" name="FXTNSATL"/>
      <point x="323.5304832720494" y="89.0" name="QTBMSCBX"/>
      <point x="321.40916292848976" y="182.0" name="IQAQCRDU"/>
      <point x="297.3675323681471" y="271.0" type="curve" name="JIWOGKMW"/>
      <point x="337.6726188957804" y="310.0" name="HXZKNVCJ"/>
      <point x="361.71424945612296" y="372.0" name="OEXYKUKA"/>
      <point x="346.86500705120545" y="451.0" type="curve" smooth="yes" name="MBNLMRFJ"/>
      <point x="321.40916292848976" y="588.0" name="KSHDPEUH"/>
      <point x="203.32233047033634" y="680.0" name="XNRDVBAH"/>
      <point x="92.30656582404836" y="680.0" type="curve" smooth="yes" name="XCRLPEZH"/>
      <point x="34.32380976675145" y="680.0" name="BLIIDTJX"/>
      <point x="-29.3158005400378" y="680.0" name="YXLSRKZE"/>
      <point x="-97.1980515339464" y="680.0" type="curve" name="AFCDNTJA"/>
      <point x="29.374062298445608" y="456.0" name="VXQTKXZX"/>
      <point x="29.374062298445608" y="224.0" name="ZCBTXCTH"/>
    </contour>
    <contour>
      <point x="160.89592359914346" y="522.0" type="curve" smooth="yes" name="GFDXIKML"/>
      <point x="196.95836943965742" y="522.0" name="QGWRQRZE"/>
      <point x="226.65685424949237" y="490.0" name="NPLQWYNE"/>
      <point x="234.4350288425444" y="448.0" type="curve" smooth="yes" name="PEDZJVHT"/>
      <point x="241.50609665440987" y="406.0" name="OHCLTVGN"/>
      <point x="223.8284271247462" y="374.0" name="RQSJWBSH"/>
      <point x="194.83704909609776" y="374.0" type="curve" smooth="yes" name="HWCYWEBS"/>
      <point x="177.15937956643404" y="374.0" name="DNKGQIPF"/>
      <point x="157.36038969321072" y="374.0" name="ESCLYXLN"/>
      <point x="138.26850660117395" y="374.0" type="curve" name="YMXAGGPY"/>
      <point x="135.44007947642774" y="423.0" name="IGYSSNCB"/>
      <point x="126.95479810218919" y="473.0" name="GHOHALYP"/>
      <point x="112.10555569727168" y="522.0" type="curve" name="QOZFHFPH"/>
      <point x="128.36901166456227" y="522.0" name="ABHTXLLG"/>
      <point x="145.33957441303943" y="522.0" name="HDNGCCNU"/>
    </contour>
  </outline>
</glyph>
<glyph name="S" format="2">
  <advance width="380"/>
  <unicode hex="0053"/>
  <outline>
    <contour>
      <point x="323.64318164425754" y="205.0" type="curve" name="GOWVFSLC"/>
      <point x="375.26197667087547" y="437.0" name="GPZJYNUP"/>
      <point x="150.40202025355333" y="399.0" name="FIJXTQNX"/>
      <point x="132.0172439427031" y="481.0" type="curve" smooth="yes" name="QKUZEHLZ"/>
      <point x="119.28932188134524" y="536.0" name="IAQRQFHB"/>
      <point x="203.4350288425444" y="550.0" name="NNGZXVNX"/>
      <point x="300.30865786510145" y="491.0" type="curve" name="FRTKKMRA"/>
      <point x="286.1665222413705" y="548.0" name="BRGCYBOJ"/>
      <point x="263.53910524340097" y="606.0" name="BJQKDUAF"/>
      <point x="233.1335136523794" y="663.0" type="curve" name="QXXCDWXQ"/>
      <point x="66.96342007354076" y="728.0" name="QUSBXJEZ"/>
      <point x="-49.709198822239614" y="659.0" name="LGUZMNBL"/>
      <point x="-10.111219075792974" y="477.0" type="curve" smooth="yes" name="OSAHABYC"/>
      <point x="39.386255607265355" y="255.0" name="OEDCLVPP"/>
      <point x="231.7193000900063" y="290.0" name="XVFXUYBZ"/>
      <point x="212.62741699796953" y="205.0" type="curve" smooth="yes" name="ZZYAMNDR"/>
      <point x="199.8994949366117" y="145.0" name="FNSAGJTQ"/>
      <point x="113.63246763185288" y="135.0" name="WAXVUVCM"/>
      <point x="-4.454364826300605" y="192.0" type="curve" name="BOJSUZJZ"/>
      <point x="-17.889393668845003" y="135.0" name="FHVZRCLO"/>
      <point x="-39.80970388562798" y="77.0" name="USEJHYVF"/>
      <point x="-69.50818869546293" y="20.0" type="curve" name="QMIITOAI"/>
      <point x="88.17662350913719" y="-42.0" name="FIARMZOO"/>
      <point x="278.3883476483185" y="1.0" name="MWQUBNKO"/>
      <point x="323.64318164425754" y="205.0" type="curve" name="YDWHJJCK"/>
      <point x="323.64318164425754" y="205.0" name="LDKAOGPU"/>
      <point x="323.64318164425754" y="205.0" name="TTUTSSFK"/>
    </contour>
  </outline>
</glyph>
<glyph name="T" format="2">
  <advance width="384"/>
  <unicode hex="0054"/>
  <outline>
    <contour>
      <point x="25.1227996399748" y="0.0" type="curve" name="OBIABVVX"/>
      <point x="68.96342007354073" y="0.0" name="WYNERBBH"/>
      <point x="110.68272016354706" y="0.0" name="ATUMRLCT"/>
      <point x="148.86648634762062" y="0.0" type="curve" name="JSDQOSPP"/>
      <point x="245.7401153701776" y="172.0" name="RKCGFNJC"/>
      <point x="269.0746391493337" y="349.0" name="NHBMMFRU"/>
      <point x="217.4558441227157" y="521.0" type="curve" name="BMWQQVIR"/>
      <point x="250.68986283848346" y="521.0" name="HBBEPWDA"/>
      <point x="283.2167747730646" y="521.0" name="CMTXLWCQ"/>
      <point x="311.50104602052653" y="521.0" type="curve" name="HEOALRDC"/>
      <point x="295.237590053236" y="573.0" name="QDPKQWDE"/>
      <point x="271.9030662740799" y="628.0" name="ZKKHBBTL"/>
      <point x="242.20458146424488" y="680.0" type="curve" name="XBUTZFLN"/>
      <point x="152.40202025355336" y="680.0" name="UWCFMZBG"/>
      <point x="36.43650813895954" y="680.0" name="JRTUATOX"/>
      <point x="-98.62088706767105" y="680.0" type="curve" name="AYVADWCS"/>
      <point x="-68.92240225783604" y="628.0" name="POSWLZLA"/>
      <point x="-45.587878478679954" y="573.0" name="NKJWKFGP"/>
      <point x="-29.3244225113894" y="521.0" type="curve" name="BBHZJRQN"/>
      <point x="13.809091140990006" y="521.0" name="WJIVAQSO"/>
      <point x="55.528391230996334" y="521.0" name="UXKDJXYV"/>
      <point x="94.41926419625645" y="521.0" type="curve" name="DMZGWWUH"/>
      <point x="146.0380592228744" y="349.0" name="ERUTCPFJ"/>
      <point x="122.70353544371835" y="172.0" name="LKDERXDK"/>
    </contour>
  </outline>
</glyph>
<glyph name="U" format="2">
  <advance width="475"/>
  <unicode hex="0055"/>
  <outline>
    <contour>
      <point x="407.5591808753647" y="258.0" type="curve" name="UIGHWCWX"/>
      <point x="424.5297436238418" y="397.0" name="SOCBKDQP"/>
      <point x="392.7099384704472" y="541.0" name="ZNJFGSNK"/>
      <point x="313.5139789775539" y="680.0" type="curve" name="OXPLJVWZ"/>
      <point x="280.9870670429727" y="680.0" name="CWOLYFHI"/>
      <point x="244.92462120245875" y="680.0" name="YCRFFCUK"/>
      <point x="207.44796179957177" y="680.0" type="curve" name="BSNVRCQU"/>
      <point x="284.5226009489054" y="543.0" name="JOSXRODP"/>
      <point x="317.0495128834866" y="403.0" name="CVDMBBAO"/>
      <point x="302.2002704785691" y="266.0" type="curve" smooth="yes" name="HWUZLNKJ"/>
      <point x="294.4220958855171" y="194.0" name="MGUFWDWO"/>
      <point x="249.16726188957801" y="146.0" name="DODFTLYC"/>
      <point x="205.3266414560121" y="146.0" type="curve" smooth="yes" name="GPFYEMXX"/>
      <point x="160.7789142412596" y="146.0" name="FJHASJOF"/>
      <point x="143.80835149278244" y="194.0" name="KWUDXPCH"/>
      <point x="151.58652608583446" y="266.0" type="curve" smooth="yes" name="ALMVOWDH"/>
      <point x="166.43576849075197" y="403.0" name="VHJSIGYP"/>
      <point x="133.90885655617078" y="543.0" name="GFASUHBN"/>
      <point x="56.834217406837126" y="680.0" type="curve" name="REOEVKYN"/>
      <point x="12.286490192084614" y="680.0" name="ZUPGWWBB"/>
      <point x="-35.089664147414055" y="680.0" name="SSPQXHVR"/>
      <point x="-84.58713883047238" y="680.0" type="curve" name="FDHBTJCF"/>
      <point x="-5.3911793375791035" y="540.0" name="NLAULCIJ"/>
      <point x="26.428625815815536" y="396.0" name="WIKFBKDS"/>
      <point x="9.4580630673384" y="256.0" type="curve" smooth="yes" name="SZBIKCBB"/>
      <point x="-11.048033587071473" y="89.0" name="GPKTGGRY"/>
      <point x="18.650451222763536" y="-16.0" name="JQRVWUHJ"/>
      <point x="133.9088565561708" y="-16.0" type="curve" smooth="yes" name="AATCKRXI"/>
      <point x="247.0459415460184" y="-16.0" name="GDGZQEQA"/>
      <point x="387.76019100214137" y="91.0" name="KTOHWVRC"/>
      <point x="407.5591808753647" y="258.0" type="curve" name="MSJBTERL"/>
      <point x="407.5591808753647" y="258.0" name="NPAPDWJJ"/>
      <point x="407.5591808753647" y="258.0" name="IMOUPKXX"/>
    </contour>
  </outline>
</glyph>
<glyph name="V" format="2">
  <advance width="465"/>
  <unicode hex="0056"/>
  <outline>
    <contour>
      <point x="25" y="680" type="curve" name="ASDIVAFO"/>
      <point x="-21" y="680" name="ELFXZZQE"/>
      <point x="-69" y="680" name="RVDAXPAV"/>
      <point x="-119" y="680" type="curve" name="PNGGMJJW"/>
      <point x="68" y="456" name="PLLASDJU"/>
      <point x="128" y="224" name="ADZQCZKZ"/>
      <point x="56" y="0" type="curve" name="EWGXDXUZ"/>
      <point x="108" y="0" name="YQYPJCHW"/>
      <point x="158" y="0" name="ALEBWBAT"/>
      <point x="204" y="0" type="curve" name="SQAMZPRE"/>
      <point x="378" y="224" name="GJDIVXFN"/>
      <point x="424" y="456" name="DFFGWULH"/>
      <point x="338" y="680" type="curve" name="SFSLLMNB"/>
      <point x="306" y="680" name="MCLWFWHF"/>
      <point x="270" y="680" name="MXVUMNEG"/>
      <point x="233" y="680" type="curve" name="NUIYTGYJ"/>
      <point x="287" y="528" name="UMRZBNAV"/>
      <point x="282" y="372" name="DRFIZXFO"/>
      <point x="217" y="220" type="curve" name="HMVECRNB"/>
      <point x="214" y="372" name="OJDBVQBE"/>
      <point x="149" y="528" name="PLVAZBCU"/>
    </contour>
  </outline>
</glyph>
<glyph name="W" format="2">
  <advance width="631"/>
  <unicode hex="0057"/>
  <outline>
    <contour>
      <point x="26" y="680" type="curve" name="JZIPMFPL"/>
      <point x="-19" y="680" name="LXOUSQKI"/>
      <point x="-67" y="680" name="UHJFPXNA"/>
      <point x="-116" y="680" type="curve" name="XYSMZJFN"/>
      <point x="52" y="456" name="VRVFQFLO"/>
      <point x="94" y="224" name="KFEGVQDC"/>
      <point x="6" y="0" type="curve" name="QDLROVPI"/>
      <point x="58" y="0" name="MDPBAABO"/>
      <point x="109" y="0" name="DVMIGCKL"/>
      <point x="157" y="0" type="curve" name="RERULRAW"/>
      <point x="247" y="124" name="EYSGUEXM"/>
      <point x="300" y="251" name="PJRZXOBP"/>
      <point x="312" y="375" type="curve" name="DPNBGPZR"/>
      <point x="338" y="251" name="DLUEAVNN"/>
      <point x="327" y="124" name="EFRVLNEV"/>
      <point x="276" y="0" type="curve" name="IVHBDKFB"/>
      <point x="321" y="0" name="UGZKZJXS"/>
      <point x="365" y="0" name="DOGGYCGF"/>
      <point x="406" y="0" type="curve" name="QZGTMRND"/>
      <point x="563" y="224" name="UXEKBYLA"/>
      <point x="592" y="456" name="JZDWXTGN"/>
      <point x="493" y="680" type="curve" name="TIEBMRCE"/>
      <point x="463" y="680" name="MRQKBSRD"/>
      <point x="430" y="680" name="VZQKVBBI"/>
      <point x="398" y="680" type="curve" name="XKTMXZUN"/>
      <point x="457" y="542" name="XZHSMBEM"/>
      <point x="469" y="401" name="LRUPFWGG"/>
      <point x="432" y="263" type="curve" name="JZAXPNKW"/>
      <point x="428" y="401" name="QLPYFGSF"/>
      <point x="377" y="542" name="GSMTXMUF"/>
      <point x="277" y="680" type="curve" name="HMHTRSKZ"/>
      <point x="242" y="680" name="WXBVJKDQ"/>
      <point x="203" y="680" name="FEJTQSYY"/>
      <point x="165" y="680" type="curve" name="HQZQEYAN"/>
      <point x="222" y="542" name="UJJQWMJL"/>
      <point x="229" y="399" name="KWDDUWKX"/>
      <point x="188" y="261" type="curve" name="EDYKDMFX"/>
      <point x="183" y="399" name="KRYLDFEP"/>
      <point x="128" y="542" name="OYJHURZE"/>
    </contour>
  </outline>
</glyph>
<glyph name="X" format="2">
  <advance width="458"/>
  <unicode hex="0058"/>
  <outline>
    <contour>
      <point x="-108.28993462598316" y="680.0" type="curve" name="UXTYUNSN"/>
      <point x="7.6755774886106" y="571.0" name="RKCNYTMH"/>
      <point x="93.23549801218286" y="458.0" name="YUPXXORQ"/>
      <point x="144.1471862576143" y="349.0" type="curve" name="OSXKEZIC"/>
      <point x="93.94260479336941" y="234.0" name="IAVNOVYA"/>
      <point x="4.14004358267789" y="115.0" name="JHYZEYKI"/>
      <point x="-119.6036431249679" y="0.0" type="curve" name="CGCSAGBD"/>
      <point x="-65.15642097360376" y="0.0" name="CIWJGUCM"/>
      <point x="-12.123412384612692" y="0.0" name="EFYOVNKV"/>
      <point x="36.66695551725908" y="0.0" type="curve" name="YSKCLJQL"/>
      <point x="107.37763363591384" y="70.0" name="LOYRGQUI"/>
      <point x="167.48171003677038" y="142.0" name="MRMZESQQ"/>
      <point x="211.32233047033634" y="212.0" type="curve" name="WWZSWSNA"/>
      <point x="224.75735931288074" y="142.0" name="EYXXONOL"/>
      <point x="224.75735931288074" y="70.0" name="AHMUHDWG"/>
      <point x="211.32233047033634" y="0.0" type="curve" name="VYFIYFMA"/>
      <point x="253.7487373415292" y="0.0" name="TTWBENUX"/>
      <point x="294.76093065034894" y="0.0" name="HXHDIHUV"/>
      <point x="331.5304832720494" y="0.0" type="curve" name="BVMCKLOC"/>
      <point x="358.4005409571382" y="116.0" name="SWYDPUVC"/>
      <point x="347.79393923934" y="236.0" name="ICUYOSOG"/>
      <point x="301.12489168102786" y="352.0" type="curve" name="GEHVVDAW"/>
      <point x="341.42997820866105" y="460.0" name="MTMAHDFK"/>
      <point x="349.91525958289964" y="572.0" name="EZPSQTIA"/>
      <point x="325.873629022557" y="680.0" type="curve" name="BPIOECAV"/>
      <point x="289.10407640085657" y="680.0" name="DOHPPAKC"/>
      <point x="248.79898987322338" y="680.0" name="SUXTVVMA"/>
      <point x="207.07968978321702" y="680.0" type="curve" name="OOZMSNXC"/>
      <point x="218.39339828220182" y="617.0" name="RLGSMMUF"/>
      <point x="219.10050506338837" y="552.0" name="WBOKYIEB"/>
      <point x="207.78679656440357" y="489.0" type="curve" name="TVDBJYAR"/>
      <point x="166.06749647439727" y="552.0" name="ANSEOJUB"/>
      <point x="112.32738110421965" y="617.0" name="MWZQFRJJ"/>
      <point x="48.687770797430375" y="680.0" type="curve" name="JUBILFQV"/>
      <point x="-0.10259710444140069" y="680.0" name="KTJCVHDH"/>
      <point x="-53.84271247461902" y="680.0" name="NHAQMIPB"/>
    </contour>
  </outline>
</glyph>
<glyph name="Y" format="2">
  <advance width="423"/>
  <unicode hex="0059"/>
  <outline>
    <contour>
      <point x="47.09767337412771" y="0.0" type="curve" name="SCGBRCMS"/>
      <point x="90.23118702650711" y="0.0" name="YLGFSUXV"/>
      <point x="131.95048711651341" y="0.0" name="FVIAVQBM"/>
      <point x="170.84136008177353" y="0.0" type="curve" name="LRFKCAOG"/>
      <point x="216.09619407771254" y="81.0" name="KLIXAOJV"/>
      <point x="247.20889244992065" y="165.0" name="DQHJLBJE"/>
      <point x="259.22970773009195" y="246.0" type="curve" name="HIATPYWL"/>
      <point x="329.23327906756015" y="389.0" name="QONQWLHJ"/>
      <point x="344.08252147247765" y="537.0" name="XQMCWPYF"/>
      <point x="303.77743494484446" y="680.0" type="curve" name="DICGGLPP"/>
      <point x="269.12920266670363" y="680.0" name="RDYUGUUQ"/>
      <point x="231.6525432638166" y="680.0" name="KMMXHLKA"/>
      <point x="191.3474567361834" y="680.0" type="curve" name="XHYHXNJI"/>
      <point x="211.85355339059328" y="599.0" name="EYNCIHAE"/>
      <point x="214.6819805153395" y="516.0" name="QMIOTHQO"/>
      <point x="200.53984489160854" y="435.0" type="curve" name="KVGODOBU"/>
      <point x="159.52765158278876" y="516.0" name="FCPQZFXO"/>
      <point x="99.42357518193222" y="599.0" name="YWNJPCRF"/>
      <point x="24.470256376158204" y="680.0" type="curve" name="HHITBCMU"/>
      <point x="-22.19879118215397" y="680.0" name="QVNOVLEY"/>
      <point x="-73.81758620877196" y="680.0" name="LTXOMAVQ"/>
      <point x="-125.43638123538994" y="680.0" type="curve" name="JXCUHPKZ"/>
      <point x="15.27786822073304" y="537.0" name="UZDAPOOT"/>
      <point x="105.08042943142459" y="389.0" name="DHNFGOJH"/>
      <point x="135.48602102244615" y="246.0" type="curve" name="KLXRMITD"/>
      <point x="123.46520574227483" y="165.0" name="EISEASZW"/>
      <point x="92.35250737006675" y="81.0" name="ILWEPGQE"/>
    </contour>
  </outline>
</glyph>
<glyph name="Z" format="2">
  <advance width="413"/>
  <unicode hex="005A"/>
  <outline>
    <contour>
      <point x="-106.39475067504725" y="0.0" type="curve" name="IBLUNLXY"/>
      <point x="29.369751312769836" y="0.0" name="XTIBCFME"/>
      <point x="146.0423702085502" y="0.0" name="CPCQHYUD"/>
      <point x="236.55203820042834" y="0.0" type="curve" name="FEGCBKQN"/>
      <point x="265.54341622907674" y="51.0" name="PPJYZTGO"/>
      <point x="288.1708332270463" y="103.0" name="GWFUQRUI"/>
      <point x="303.72718241315033" y="154.0" type="curve" name="TZZDZRCB"/>
      <point x="251.4012806053458" y="154.0" name="IWKBKNHY"/>
      <point x="189.88299064211617" y="154.0" name="UMDBXBKX"/>
      <point x="122.70784642939412" y="154.0" type="curve" name="QRIAXWOU"/>
      <point x="227.35965004500315" y="277.0" name="JHCQSMKS"/>
      <point x="289.5850467894194" y="403.0" name="LEEBUWRH"/>
      <point x="303.72718241315033" y="526.0" type="curve" name="BTNDPLTC"/>
      <point x="288.1708332270463" y="577.0" name="SHEPHXXB"/>
      <point x="265.54341622907674" y="629.0" name="LWIHBLOP"/>
      <point x="236.55203820042834" y="680.0" type="curve" name="OZRPNNYT"/>
      <point x="146.0423702085502" y="680.0" name="GXTPWVXT"/>
      <point x="29.369751312769836" y="680.0" name="FPXABXJS"/>
      <point x="-106.39475067504725" y="680.0" type="curve" name="RDRWPHPI"/>
      <point x="-77.40337264639885" y="629.0" name="QWTMBOPC"/>
      <point x="-54.77595564842932" y="577.0" name="AIDBIOIB"/>
      <point x="-39.21960646232526" y="526.0" type="curve" name="ANYNCGZF"/>
      <point x="38.56213946819497" y="526.0" name="ZKAOSBDK"/>
      <point x="112.80835149278244" y="526.0" name="TMIVAZUH"/>
      <point x="175.74085501838522" y="526.0" type="curve" name="BTWMLJQS"/>
      <point x="150.28501089566947" y="403.0" name="LGAMIUTA"/>
      <point x="76.74590565226853" y="277.0" name="IUGCUOHZ"/>
      <point x="-39.21960646232526" y="154.0" type="curve" name="YWXEFTQJ"/>
      <point x="-54.77595564842932" y="103.0" name="DBJVMXNG"/>
      <point x="-77.40337264639885" y="51.0" name="HIRWBAQJ"/>
    </contour>
  </outline>
</glyph>
<glyph name="bracketleft" format="2">
  <advance width="315"/>
  <unicode hex="005B"/>
  <outline>
    <contour>
      <point x="-103.06884886724276" y="-160.0" type="curve" name="HLSINKEK"/>
      <point x="-10.437860531805029" y="-160.0" name="BNXMRVHO"/>
      <point x="68.75809896108828" y="-160.0" name="UXZKFYLK"/>
      <point x="130.27638892431796" y="-160.0" type="curve" name="SUBSFUKD"/>
      <point x="157.14644660940675" y="-112.0" name="UVFTHSBP"/>
      <point x="180.4809703885628" y="-63.0" name="FFVDNWHY"/>
      <point x="199.57285348059963" y="-15.0" type="curve" name="GMGOUYRD"/>
      <point x="168.46015510839152" y="-15.0" name="ATBQROTH"/>
      <point x="132.39770926787756" y="-15.0" name="BHOLUXZZ"/>
      <point x="94.213943083804" y="-15.0" type="curve" name="AOCOFGVB"/>
      <point x="176.23832970144352" y="196.0" name="NYXJPWFP"/>
      <point x="176.94543648263004" y="414.0" name="QHCQPSLU"/>
      <point x="94.213943083804" y="625.0" type="curve" name="QWYBMCPB"/>
      <point x="132.39770926787756" y="625.0" name="VUVRJACD"/>
      <point x="168.46015510839152" y="625.0" name="FAUKUJSJ"/>
      <point x="199.57285348059963" y="625.0" type="curve" name="XMMFGZAG"/>
      <point x="180.4809703885628" y="673.0" name="HSLLCFXM"/>
      <point x="157.14644660940675" y="722.0" name="UQRILLJZ"/>
      <point x="130.27638892431796" y="770.0" type="curve" name="RTZKBUTB"/>
      <point x="68.75809896108828" y="770.0" name="OLIBDQIQ"/>
      <point x="-10.437860531805029" y="770.0" name="UNYRWFLQ"/>
      <point x="-103.06884886724276" y="770.0" type="curve" name="ETGKTHDU"/>
      <point x="70.87941930464791" y="463.0" name="SGPRLHMG"/>
      <point x="70.87941930464791" y="147.0" name="SVFOLRFD"/>
    </contour>
  </outline>
</glyph>
<glyph name="backslash" format="2">
  <advance width="346"/>
  <unicode hex="005C"/>
  <outline>
    <contour>
      <point x="206" y="-160" type="curve" name="QXIWTKHO"/>
      <point x="323" y="147" name="XYXPOLDW"/>
      <point x="256" y="463" name="TRGPZGBD"/>
      <point x="8" y="770" type="curve" name="PJTBOMCC"/>
      <point x="-32" y="770" name="SPNQKQAQ"/>
      <point x="-78" y="770" name="GSGRLACX"/>
      <point x="-123" y="770" type="curve" name="BEKEQUNS"/>
      <point x="134" y="463" name="URNGRPJI"/>
      <point x="211" y="147" name="ZNZOLOUT"/>
      <point x="104" y="-160" type="curve" name="PHPQQOEG"/>
      <point x="140" y="-160" name="KUJNIPET"/>
      <point x="174" y="-160" name="TSVTAHGV"/>
    </contour>
  </outline>
</glyph>
<glyph name="bracketright" format="2">
  <advance width="315"/>
  <unicode hex="005D"/>
  <outline>
    <contour>
      <point x="105.52765158278879" y="-160.0" type="curve" name="NGZMDQLL"/>
      <point x="279.47591975467947" y="147.0" name="LZNKXPBW"/>
      <point x="279.47591975467947" y="463.0" name="AKPIUUBQ"/>
      <point x="105.52765158278879" y="770.0" type="curve" name="QYBUMJKE"/>
      <point x="44.00936161955913" y="770.0" name="GKOTWSUD"/>
      <point x="-35.18659787333419" y="770.0" name="HKNNLIHQ"/>
      <point x="-127.8175862087719" y="770.0" type="curve" name="VDQGKEOI"/>
      <point x="-100.9475285236831" y="722.0" name="LEAEIZOG"/>
      <point x="-77.61300474452707" y="673.0" name="KQEZJXVM"/>
      <point x="-58.52112165249028" y="625.0" type="curve" name="NPSNMSMW"/>
      <point x="-13.266287656551242" y="625.0" name="GSBKGQXR"/>
      <point x="31.28143955820127" y="625.0" name="FQOHMVAN"/>
      <point x="69.46520574227483" y="625.0" type="curve" name="UIYZKGOM"/>
      <point x="151.48959235991435" y="414.0" name="AGYDYIOL"/>
      <point x="152.19669914110088" y="196.0" name="HOZAEOMC"/>
      <point x="69.46520574227483" y="-15.0" type="curve" name="UAVGEZQS"/>
      <point x="31.28143955820127" y="-15.0" name="RUTRAGTQ"/>
      <point x="-13.266287656551242" y="-15.0" name="CCGMHNKN"/>
      <point x="-58.52112165249028" y="-15.0" type="curve" name="EVNTVMXV"/>
      <point x="-77.61300474452707" y="-63.0" name="MUXADQGQ"/>
      <point x="-100.9475285236831" y="-112.0" name="ZWCNADJJ"/>
      <point x="-127.8175862087719" y="-160.0" type="curve" name="QPYIXRMR"/>
      <point x="-35.18659787333419" y="-160.0" name="VXJDREFN"/>
      <point x="44.00936161955913" y="-160.0" name="NPVRDBJL"/>
    </contour>
  </outline>
</glyph>
<glyph name="asciicircum" format="2">
  <advance width="396"/>
  <unicode hex="005E"/>
  <outline>
    <contour>
      <point x="-84.13560569343247" y="263.0" type="curve" name="COIGITPH"/>
      <point x="-36.052344572747245" y="263.0" name="QOLPCXIE"/>
      <point x="11.323809766751452" y="263.0" name="LXXUXURR"/>
      <point x="53.750216637944305" y="263.0" type="curve" name="EZBTLHLM"/>
      <point x="113.1471862576143" y="333.0" name="ZWXEEBGL"/>
      <point x="153.45227278524752" y="404.0" name="LPVXBUGN"/>
      <point x="171.1299423149112" y="474.0" type="curve" name="DDZGLWTU"/>
      <point x="190.92893218813452" y="404.0" name="QSZKKSGK"/>
      <point x="189.51471862576142" y="333.0" name="QBCMPJXB"/>
      <point x="168.30151519016502" y="263.0" type="curve" name="DMOTVVCB"/>
      <point x="206.48528137423858" y="263.0" name="MQBFPMJB"/>
      <point x="243.25483399593907" y="263.0" name="XWVOAABZ"/>
      <point x="276.4888527117068" y="263.0" type="curve" name="CHZHXBAP"/>
      <point x="322.45079348883235" y="401.0" name="HXDZCKMA"/>
      <point x="287.8025612106915" y="542.0" name="QIHVKPHE"/>
      <point x="172.5441558772843" y="680.0" type="curve" name="KSTZPZXZ"/>
      <point x="135.06749647439727" y="680.0" name="YDLRNOHR"/>
      <point x="94.05530316557753" y="680.0" name="EWZVSIFJ"/>
      <point x="50.92178951319812" y="680.0" type="curve" name="ANVAPFOM"/>
      <point x="86.98423535371205" y="542.0" name="WOICCRCZ"/>
      <point x="41.02229457658646" y="401.0" name="BSRFWYXH"/>
    </contour>
  </outline>
</glyph>
<glyph name="underscore" format="2">
  <advance width="435"/>
  <unicode hex="005F"/>
  <outline>
    <contour>
      <point x="-89" y="-155" type="curve" name="DQQFDAPL"/>
      <point x="86" y="-155" name="LYFAIGBU"/>
      <point x="236" y="-155" name="NHKFPRIC"/>
      <point x="353" y="-155" type="curve" name="ZVKYOTNZ"/>
      <point x="382" y="-104" name="GOILXJEA"/>
      <point x="382" y="-51" name="ACLLUJCH"/>
      <point x="353" y="0" type="curve" name="UKKLHCFG"/>
      <point x="236" y="0" name="PYNAJVLZ"/>
      <point x="86" y="0" name="SHOOALFG"/>
      <point x="-89" y="0" type="curve" name="LFPMPNXC"/>
      <point x="-60" y="-51" name="NIUNNBSG"/>
      <point x="-60" y="-104" name="OUSEFUQR"/>
    </contour>
  </outline>
</glyph>
<glyph name="grave" format="2">
  <advance width="354"/>
  <unicode hex="0060"/>
  <outline>
    <contour>
      <point x="190" y="580" type="curve" name="YSUDRSDU"/>
      <point x="204" y="635" name="MBOEVLTG"/>
      <point x="183" y="692" name="MYHJNJYE"/>
      <point x="130" y="747" type="curve" name="DNKVCKPG"/>
      <point x="91" y="747" name="HNZJBGVQ"/>
      <point x="46" y="747" name="UYBOWEAD"/>
      <point x="-3" y="747" type="curve" name="UKFHAGGR"/>
      <point x="62" y="692" name="BDYCPYAZ"/>
      <point x="94" y="635" name="CRUCDSYO"/>
      <point x="92" y="580" type="curve" name="PFPIKJKZ"/>
      <point x="128" y="580" name="FAIMSLXS"/>
      <point x="162" y="580" name="DEUDBTOQ"/>
    </contour>
  </outline>
</glyph>
<glyph name="a" format="2">
  <advance width="438"/>
  <unicode hex="0061"/>
  <anchor x="230.0" y="517" name="center"/>
  <outline>
    <contour>
      <point x="173.745166004061" y="0.0" type="curve" name="PNIUKVQK"/>
      <point x="209.10050506338837" y="0.0" name="EQQOVMWT"/>
      <point x="243.7487373415292" y="0.0" name="GLBKUUTC"/>
      <point x="274.1543289325507" y="0.0" type="curve" name="PUQEQMDX"/>
      <point x="366.0782104868019" y="171.0" name="OMVDCOZR"/>
      <point x="366.0782104868019" y="346.0" name="BOKFOEPM"/>
      <point x="274.1543289325507" y="517.0" type="curve" name="YTCCDLRG"/>
      <point x="243.7487373415292" y="517.0" name="KLTYPWAM"/>
      <point x="209.10050506338837" y="517.0" name="EPFDELUS"/>
      <point x="173.745166004061" y="517.0" type="curve" name="ZZEDLLJW"/>
      <point x="178.6949134723668" y="507.0" name="XZXMRMQD"/>
      <point x="183.64466094067262" y="498.0" name="WNCGAHWJ"/>
      <point x="188.59440840897844" y="488.0" type="curve" name="DMNRYTJO"/>
      <point x="153.94617613083764" y="515.0" name="MAOIHVMW"/>
      <point x="115.05530316557753" y="531.0" name="WAAYCZCK"/>
      <point x="80.4070708874367" y="531.0" type="curve" smooth="yes" name="BUXSKIAT"/>
      <point x="-15.759451353933798" y="531.0" name="WSAINHXK"/>
      <point x="-36.972654789530225" y="423.0" name="XGKNQVZZ"/>
      <point x="-36.972654789530225" y="259.0" type="curve" smooth="yes" name="ZOHUCSGS"/>
      <point x="-36.972654789530225" y="97.0" name="HIBXVYYZ"/>
      <point x="-15.759451353933798" y="-14.0" name="TIRQSGPU"/>
      <point x="81.11417766862323" y="-14.0" type="curve" smooth="yes" name="MOWAZXFE"/>
      <point x="115.76240994676408" y="-14.0" name="FZJNZRFV"/>
      <point x="153.94617613083764" y="2.0" name="GTNNCSHE"/>
      <point x="188.59440840897844" y="30.0" type="curve" name="RCFCSSWB"/>
      <point x="184.35176772185918" y="20.0" name="NCDVWOXY"/>
      <point x="178.6949134723668" y="10.0" name="CQYNMQLW"/>
    </contour>
    <contour>
      <point x="157.48171003677038" y="132.0" type="curve" name="IGHZUTYH"/>
      <point x="111.51976925964476" y="132.0" name="MBQJPSDJ"/>
      <point x="95.96342007354073" y="182.0" name="OOYEMGRM"/>
      <point x="95.96342007354073" y="259.0" type="curve" smooth="yes" name="ISQRUWAL"/>
      <point x="95.96342007354073" y="336.0" name="MOUKHIQW"/>
      <point x="111.51976925964476" y="385.0" name="FZFCNPXY"/>
      <point x="157.48171003677038" y="385.0" type="curve" smooth="yes" name="QMMJFHZF"/>
      <point x="202.7365440327094" y="385.0" name="WMXEOJEX"/>
      <point x="245.8700576850888" y="335.0" name="DCIHGVFT"/>
      <point x="245.8700576850888" y="259.0" type="curve" smooth="yes" name="VABHSOCP"/>
      <point x="245.8700576850888" y="183.0" name="HPJTGGEC"/>
      <point x="202.7365440327094" y="132.0" name="BPLXAEJH"/>
      <point x="157.48171003677038" y="132.0" type="curve" name="OBAIQDTE"/>
      <point x="157.48171003677038" y="132.0" name="SQOECJQV"/>
      <point x="157.48171003677038" y="132.0" name="RFFNQHPV"/>
    </contour>
  </outline>
</glyph>
<glyph name="b" format="2">
  <advance width="441"/>
  <unicode hex="0062"/>
  <outline>
    <contour>
      <point x="35.591576719717835" y="0.0" type="curve" name="RMSXWKFZ"/>
      <point x="41.248430969210204" y="10.0" name="NJRQUANQ"/>
      <point x="46.19817843751605" y="20.0" name="OAUCPVIB"/>
      <point x="51.147925905821864" y="30.0" type="curve" name="AIFIYEGL"/>
      <point x="61.75452762362008" y="2.0" name="SPFGRHKM"/>
      <point x="85.08905140277616" y="-14.0" name="ICLMYFEJ"/>
      <point x="118.32307011854391" y="-14.0" type="curve" smooth="yes" name="RZFCDRRW"/>
      <point x="212.3682720163547" y="-14.0" name="RNQHSJIA"/>
      <point x="348.8398807853584" y="99.0" name="RWJKOPGT"/>
      <point x="373.5886181268876" y="259.0" type="curve" smooth="yes" name="UGEIPSQO"/>
      <point x="397.63024868723016" y="421.0" name="QXIVFZOE"/>
      <point x="295.0997654151808" y="531.0" name="LXNUEXTA"/>
      <point x="201.7616702985565" y="531.0" type="curve" smooth="yes" name="RZVACYTW"/>
      <point x="168.52765158278874" y="531.0" name="XNXNNJSJ"/>
      <point x="140.24338033532686" y="515.0" name="CQXSLJXZ"/>
      <point x="119.73728368091699" y="488.0" type="curve" name="DKGZOMXD"/>
      <point x="104.18093449481293" y="568.0" name="OGSFAZPR"/>
      <point x="73.06823612260484" y="650.0" name="CGHLZXBD"/>
      <point x="27.813402126665835" y="730.0" type="curve" name="VOHWGDSX"/>
      <point x="-13.198791182153968" y="730.0" name="KEGNWFST"/>
      <point x="-59.16073195927953" y="730.0" name="DORSHVSU"/>
      <point x="-105.12267273640515" y="730.0" type="curve" name="ZEEOQJYF"/>
      <point x="31.348936032598516" y="489.0" name="BNVGGBLR"/>
      <point x="34.1773631573447" y="241.0" name="MELXBBUR"/>
      <point x="-97.34449814335312" y="0.0" type="curve" name="XYMHFLCU"/>
      <point x="-51.3825573662275" y="0.0" name="OEDRAQIZ"/>
      <point x="-5.4206165891019396" y="0.0" name="ZFRHLTDB"/>
    </contour>
    <contour>
      <point x="169.2347583639753" y="132.0" type="curve" name="ZIYKFHVD"/>
      <point x="123.97992436803628" y="132.0" name="HKCBHRLK"/>
      <point x="111.2520023066784" y="183.0" name="BLAMKWSI"/>
      <point x="122.56571080566317" y="259.0" type="curve" smooth="yes" name="WYKKTTTV"/>
      <point x="133.8794193046479" y="335.0" name="VFUJOICX"/>
      <point x="162.1636905521098" y="385.0" name="OCLTDFER"/>
      <point x="207.41852454804888" y="385.0" type="curve" smooth="yes" name="HAAPKFWK"/>
      <point x="253.38046532517444" y="385.0" name="TRYEOQZW"/>
      <point x="283.786056916196" y="336.0" name="FRJPTOVT"/>
      <point x="272.47234841721126" y="259.0" type="curve" smooth="yes" name="XDHLRYJV"/>
      <point x="261.15863991822647" y="182.0" name="DAGRSAGM"/>
      <point x="215.1966991411009" y="132.0" name="EUNTMMLH"/>
      <point x="169.2347583639753" y="132.0" type="curve" name="UYYWQZAS"/>
      <point x="169.2347583639753" y="132.0" name="MHODVERI"/>
      <point x="169.2347583639753" y="132.0" name="RENZDPAI"/>
    </contour>
  </outline>
</glyph>
<glyph name="c" format="2">
  <advance width="336"/>
  <unicode hex="0063"/>
  <anchor x="208.0" y="517" name="center"/>
  <outline>
    <contour>
      <point x="-34.93964620053913" y="259.0" type="curve" name="YVKOMAPF"/>
      <point x="-34.93964620053913" y="57.0" name="JRAVHJHD"/>
      <point x="21.628896294384674" y="-59.0" name="FEZXPCSX"/>
      <point x="182.14213562373095" y="8.0" type="curve" name="DLPMYXPA"/>
      <point x="209.01219330881975" y="59.0" name="HCLVNFAU"/>
      <point x="228.10407640085657" y="111.0" name="RNRPSTKV"/>
      <point x="238.71067811865476" y="162.0" type="curve" name="ZDCBCXNC"/>
      <point x="161.63603896932108" y="107.0" name="XDFSPSLK"/>
      <point x="97.9964286625318" y="139.0" name="HLRBOECE"/>
      <point x="97.9964286625318" y="259.0" type="curve" smooth="yes" name="PBYOMPXX"/>
      <point x="97.9964286625318" y="379.0" name="DXFBAQET"/>
      <point x="161.63603896932108" y="411.0" name="LDFXHNYB"/>
      <point x="238.71067811865476" y="356.0" type="curve" name="JQBERTZG"/>
      <point x="228.81118318204312" y="407.0" name="NFCHLHXV"/>
      <point x="209.01219330881975" y="459.0" name="IQQVWVCS"/>
      <point x="182.14213562373095" y="510.0" type="curve" name="OBTBCJCU"/>
      <point x="21.628896294384674" y="577.0" name="SWCREEGP"/>
      <point x="-34.93964620053913" y="461.0" name="NPNYOOQN"/>
      <point x="-34.93964620053913" y="259.0" type="curve" name="LXLEYETT"/>
      <point x="-34.93964620053913" y="259.0" name="CFLOTENE"/>
      <point x="-34.93964620053913" y="259.0" name="PDGUMHJM"/>
    </contour>
  </outline>
</glyph>
<glyph name="d" format="2">
  <advance width="441"/>
  <unicode hex="0064"/>
  <outline>
    <contour>
      <point x="180.54846686296008" y="0.0" type="curve" name="JPLZAQBK"/>
      <point x="215.90380592228746" y="0.0" name="XWJUGUBR"/>
      <point x="250.55203820042829" y="0.0" name="VUUGBRAL"/>
      <point x="280.95762979144985" y="0.0" type="curve" name="TLTLJBWP"/>
      <point x="412.47949109214767" y="241.0" name="SGCFWHJZ"/>
      <point x="409.65106396740146" y="489.0" name="PPBBWWPU"/>
      <point x="273.1794551983978" y="730.0" type="curve" name="ZAXEVAEH"/>
      <point x="242.77386360737626" y="730.0" name="WZTWSEDC"/>
      <point x="208.12563132923543" y="730.0" name="LVYOWEZF"/>
      <point x="172.77029226990805" y="730.0" type="curve" name="NIRRAITA"/>
      <point x="218.02512626584712" y="650.0" name="ZZYPVKKK"/>
      <point x="249.13782463805518" y="568.0" name="LOIBZGYK"/>
      <point x="264.69417382415924" y="488.0" type="curve" name="XCPETSMO"/>
      <point x="238.531222920257" y="515.0" name="OJGCFMIM"/>
      <point x="203.8829906421161" y="531.0" name="PXKWYPQG"/>
      <point x="169.94186514516184" y="531.0" type="curve" smooth="yes" name="DOZMDNPR"/>
      <point x="73.77534290379137" y="531.0" name="KOCQUWYU"/>
      <point x="15.085480065307934" y="421.0" name="DXHSMSLT"/>
      <point x="-8.956150495034677" y="259.0" type="curve" smooth="yes" name="LNQRSMOX"/>
      <point x="-33.70488783656384" y="99.0" name="ALZGCXEE"/>
      <point x="-8.956150495034677" y="-14.0" name="OZXALZYN"/>
      <point x="87.91747852752235" y="-14.0" type="curve" smooth="yes" name="NTVXWLGC"/>
      <point x="122.56571080566317" y="-14.0" name="ZJMQAHOC"/>
      <point x="160.74947698973673" y="2.0" name="HQZJFZQZ"/>
      <point x="196.10481604906414" y="30.0" type="curve" name="JIFBIWLS"/>
      <point x="191.15506858075827" y="20.0" name="DOQSFTVJ"/>
      <point x="185.4982143312659" y="10.0" name="MSHHYFCF"/>
    </contour>
    <contour>
      <point x="169.94186514516184" y="132.0" type="curve" name="YOTHZWEE"/>
      <point x="123.97992436803625" y="132.0" name="PALLLTKT"/>
      <point x="111.95910908786496" y="182.0" name="IVAUMXNQ"/>
      <point x="123.27281758684973" y="259.0" type="curve" smooth="yes" name="VEQBDXVD"/>
      <point x="134.58652608583446" y="336.0" name="FYQFXNZH"/>
      <point x="162.1636905521098" y="385.0" name="HIYSYHCY"/>
      <point x="208.12563132923543" y="385.0" type="curve" smooth="yes" name="KESCXYTS"/>
      <point x="253.38046532517444" y="385.0" name="LRVHJAJL"/>
      <point x="284.49316369738256" y="335.0" name="UYOIASKM"/>
      <point x="273.1794551983978" y="259.0" type="curve" smooth="yes" name="FJLTYLNN"/>
      <point x="261.865746699413" y="183.0" name="CYISNVMB"/>
      <point x="215.1966991411009" y="132.0" name="JPUKRIPH"/>
      <point x="169.94186514516184" y="132.0" type="curve" name="CMCSSMYX"/>
      <point x="169.94186514516184" y="132.0" name="JETAQOTN"/>
      <point x="169.94186514516184" y="132.0" name="VFPWJUGQ"/>
    </contour>
  </outline>
</glyph>
<glyph name="e" format="2">
  <advance width="399"/>
  <unicode hex="0065"/>
  <anchor x="-82.0" y="527" name="top"/>
  <anchor x="210.0" y="517" name="center"/>
  <outline>
    <contour>
      <point x="246.5226009489054" y="24.0" type="curve" name="UOEGUHSK"/>
      <point x="269.1500179468749" y="71.0" name="NKONZQQP"/>
      <point x="285.41347391416554" y="119.0" name="QIIPKAVC"/>
      <point x="294.60586206959067" y="166.0" type="curve" name="ZYNGYJQH"/>
      <point x="201.97487373415294" y="113.0" name="BDRTUBCG"/>
      <point x="117.12205999176723" y="122.0" name="BKISQZLI"/>
      <point x="98.73728368091699" y="198.0" type="curve" name="OOIAEVBR"/>
      <point x="180.7616702985565" y="198.0" name="NGZEVMFE"/>
      <point x="254.30077554195748" y="198.0" name="NFFDHNQT"/>
      <point x="316.52617228637365" y="198.0" type="curve" name="FVRFFDMU"/>
      <point x="360.36679271993955" y="383.0" name="VZQTACJE"/>
      <point x="214.70279579551078" y="533.0" name="GCEPODJC"/>
      <point x="93.78753621261114" y="533.0" type="curve" smooth="yes" name="GYTREBOT"/>
      <point x="-14.39980130893062" y="533.0" name="RBIQYTHV"/>
      <point x="-35.613004744527046" y="415.0" name="YOASHDTU"/>
      <point x="-35.613004744527046" y="259.0" type="curve" smooth="yes" name="OLTJCJGD"/>
      <point x="-35.613004744527046" y="21.0" name="KYGPYGZP"/>
      <point x="64.08905140277616" y="-74.0" name="PSGMGHPC"/>
      <point x="246.5226009489054" y="24.0" type="curve" name="RJGDWYQK"/>
      <point x="246.5226009489054" y="24.0" name="HRJZBMJY"/>
      <point x="246.5226009489054" y="24.0" name="CKDKPBDZ"/>
    </contour>
    <contour>
      <point x="152.4773990510946" y="385.0" type="curve" name="FLLLHYZJ"/>
      <point x="180.7616702985565" y="385.0" name="KYGGMKKA"/>
      <point x="209.75304832720497" y="365.0" name="EVFKVNPY"/>
      <point x="225.30939751330902" y="320.0" type="curve" name="PXSOARRD"/>
      <point x="186.41852454804888" y="320.0" name="USSYXPPX"/>
      <point x="143.28501089566947" y="320.0" name="FYFNYNLX"/>
      <point x="98.73728368091699" y="320.0" type="curve" name="WDKBDZEX"/>
      <point x="105.80835149278244" y="364.0" name="JKOMBVFD"/>
      <point x="124.90023458481926" y="385.0" name="TPNLTDJN"/>
      <point x="152.4773990510946" y="385.0" type="curve" name="LGKYAENL"/>
      <point x="152.4773990510946" y="385.0" name="FPKVIRXD"/>
      <point x="152.4773990510946" y="385.0" name="UVIAFKFA"/>
    </contour>
  </outline>
</glyph>
<glyph name="f" format="2">
  <advance width="302"/>
  <unicode hex="0066"/>
  <outline>
    <contour>
      <point x="-19.412734265957965" y="369.0" type="curve" name="HYBUKNQH"/>
      <point x="3.2146827320115676" y="369.0" name="PZOMLVIR"/>
      <point x="25.134992948794547" y="369.0" name="LWMOQAWK"/>
      <point x="46.348196384390974" y="369.0" type="curve" name="LRPNHWYU"/>
      <point x="46.348196384390974" y="247.0" name="RXAXUGSI"/>
      <point x="10.285750543877043" y="122.0" name="ETDWJCVI"/>
      <point x="-58.30360723121805" y="0.0" type="curve" name="PANWSFUB"/>
      <point x="-15.8772003600252" y="0.0" name="KAQYCNJK"/>
      <point x="25.8420997299811" y="0.0" name="BYZVIVAN"/>
      <point x="61.90454557049503" y="0.0" type="curve" name="HMAWFLZT"/>
      <point x="131.20101012677668" y="122.0" name="GJZCVANR"/>
      <point x="166.55634918610406" y="247.0" name="VGPVDRNJ"/>
      <point x="167.2634559672906" y="369.0" type="curve" name="XDPZRPOR"/>
      <point x="194.84062043356596" y="369.0" name="AYGULRDG"/>
      <point x="221.0035713374682" y="369.0" name="KRUEOWNK"/>
      <point x="244.3380951166243" y="369.0" type="curve" name="RNRYXZNB"/>
      <point x="244.3380951166243" y="418.0" name="EGKULWJO"/>
      <point x="239.38834764831847" y="468.0" name="CXDCVOUW"/>
      <point x="228.78174593052023" y="517.0" type="curve" name="LETVOOKG"/>
      <point x="204.7401153701776" y="517.0" name="HNBRVVDM"/>
      <point x="178.57716446627535" y="517.0" name="QWYUIBIG"/>
      <point x="151.0" y="517.0" type="curve" name="YXYAOZFB"/>
      <point x="150.29289321881345" y="522.0" name="AUWETKVU"/>
      <point x="148.87867965644037" y="528.0" name="XMYIEMLY"/>
      <point x="148.17157287525382" y="533.0" type="curve" smooth="yes" name="UZQDGSSW"/>
      <point x="134.73654403270942" y="586.0" name="TEFVWCEM"/>
      <point x="170.79898987322335" y="604.0" name="CJWPBYIM"/>
      <point x="224.53910524340097" y="577.0" type="curve" name="WZMVNKFR"/>
      <point x="208.9827560572969" y="627.0" name="XUGLPMMA"/>
      <point x="186.35533905932738" y="680.0" name="ODTIAGCW"/>
      <point x="158.77817459305203" y="730.0" type="curve" name="AAUGFGWM"/>
      <point x="52.712157415069925" y="777.0" name="RTXTKCKB"/>
      <point x="-16.584307141211752" y="712.0" name="LKGVOHGG"/>
      <point x="26.54920651116764" y="534.0" type="curve" smooth="yes" name="THDWWVEM"/>
      <point x="28.670526854727285" y="528.0" name="BOHTLERI"/>
      <point x="29.377633635913824" y="523.0" name="TKZCMSEQ"/>
      <point x="30.791847198286916" y="517.0" type="curve" name="OOYJYUHZ"/>
      <point x="9.57864376269049" y="517.0" name="YBYDRNDI"/>
      <point x="-12.34166645409249" y="517.0" name="BVODRPHD"/>
      <point x="-35.67619023324855" y="517.0" type="curve" name="HRQSCOLM"/>
      <point x="-25.069588515450334" y="468.0" name="HZCYKXJQ"/>
      <point x="-19.412734265957965" y="418.0" name="IBXBDEMN"/>
    </contour>
  </outline>
</glyph>
<glyph name="g" format="2">
  <advance width="422"/>
  <unicode hex="0067"/>
  <outline>
    <contour>
      <point x="352.4213562373095" y="84.0" type="curve" name="JCJWTXKA"/>
      <point x="374.3416664540925" y="227.0" name="WTBAYTWZ"/>
      <point x="344.64318164425754" y="374.0" name="LVSROSWB"/>
      <point x="266.8614357137373" y="517.0" type="curve" name="TEJHVGNX"/>
      <point x="235.7487373415292" y="517.0" name="PTZUTFIY"/>
      <point x="201.10050506338837" y="517.0" name="LJNXWDAP"/>
      <point x="165.745166004061" y="517.0" type="curve" name="XOSTNITI"/>
      <point x="170.6949134723668" y="508.0" name="XMBWLMDP"/>
      <point x="174.93755415948607" y="500.0" name="BDZLTXPP"/>
      <point x="179.1801948466054" y="491.0" type="curve" name="DUYLGXAE"/>
      <point x="146.6532829120242" y="514.0" name="OEBSFAKZ"/>
      <point x="109.88373029032371" y="528.0" name="RKYPAUGB"/>
      <point x="75.23549801218289" y="528.0" type="curve" smooth="yes" name="FMSBLGNA"/>
      <point x="-12.445742854949003" y="528.0" name="USZBIYMC"/>
      <point x="-37.194480196478196" y="428.0" name="TLEXCHOL"/>
      <point x="-13.152849636135585" y="283.0" type="curve" smooth="yes" name="HAHNUOKG"/>
      <point x="10.888780924207026" y="143.0" name="VYSKYSFM"/>
      <point x="63.21468273201157" y="49.0" name="FMQMCLPO"/>
      <point x="155.13856428626275" y="49.0" type="curve" smooth="yes" name="EFIIVYSV"/>
      <point x="191.90811690796323" y="49.0" name="EXJOMAKI"/>
      <point x="225.8492424049175" y="64.0" name="CFBNLZFS"/>
      <point x="251.3050865276332" y="90.0" type="curve" name="LYITXAQC"/>
      <point x="250.59797974644664" y="84.0" name="SKRVLVCE"/>
      <point x="249.1837661840736" y="78.0" name="VXJYQZXU"/>
      <point x="248.47665940288704" y="72.0" type="curve" smooth="yes" name="BUUCEHKU"/>
      <point x="232.92031021678298" y="-19.0" name="AUWWTQRZ"/>
      <point x="138.1680015377856" y="-55.0" name="GBVVQONF"/>
      <point x="26.445130110311084" y="8.0" type="curve" name="HSQSBDRD"/>
      <point x="12.302994486580133" y="-44.0" name="UJALTLVT"/>
      <point x="-8.20310216782974" y="-97.0" name="THFTHTRD"/>
      <point x="-35.78026663410509" y="-149.0" type="curve" name="TNINRONX"/>
      <point x="121.19743878930848" y="-216.0" name="HTVZLMSI"/>
      <point x="317.7731239591687" y="-144.0" name="BXBXRZIB"/>
      <point x="352.4213562373095" y="84.0" type="curve" name="SAJDCUYX"/>
      <point x="352.4213562373095" y="84.0" name="KZIQOVRZ"/>
      <point x="352.4213562373095" y="84.0" name="PIPWXBIV"/>
    </contour>
    <contour>
      <point x="196.85786437626905" y="192.0" type="curve" name="ISZKLDNI"/>
      <point x="155.13856428626275" y="192.0" name="JZLIOLDY"/>
      <point x="127.5613998199874" y="230.0" name="UCYILSFR"/>
      <point x="116.95479810218916" y="287.0" type="curve" smooth="yes" name="BCCXEBOJ"/>
      <point x="107.05530316557753" y="345.0" name="LOZTQWXE"/>
      <point x="121.19743878930848" y="384.0" name="KPHTOCZT"/>
      <point x="162.91673887931478" y="384.0" type="curve" smooth="yes" name="YDKQWNZG"/>
      <point x="202.51471862576142" y="384.0" name="ZBXZVKOD"/>
      <point x="240.698484809835" y="344.0" name="JDSOSIKO"/>
      <point x="250.59797974644664" y="287.0" type="curve" smooth="yes" name="BIIWMWJN"/>
      <point x="260.49747468305833" y="231.0" name="QCQRCMNS"/>
      <point x="236.4558441227157" y="192.0" name="HLLJBVHS"/>
      <point x="196.85786437626905" y="192.0" type="curve" name="XQABREUB"/>
      <point x="196.85786437626905" y="192.0" name="FXFILKWP"/>
      <point x="196.85786437626905" y="192.0" name="FRGSTNBC"/>
    </contour>
  </outline>
</glyph>
<glyph name="h" format="2">
  <advance width="423"/>
  <unicode hex="0068"/>
  <outline>
    <contour>
      <point x="-82" y="0" type="curve" name="VJVGUABL"/>
      <point x="-36" y="0" name="WISIJVGT"/>
      <point x="9" y="0" name="PZKSQYPE"/>
      <point x="50" y="0" type="curve" name="BXCOUNDA"/>
      <point x="104" y="96" name="DAHVMRHM"/>
      <point x="138" y="196" name="RFRXLHXK"/>
      <point x="149" y="292" type="curve" smooth="yes" name="CDBRRKON"/>
      <point x="155" y="349" name="HOSSGJJJ"/>
      <point x="176" y="381" name="BAXBLMLF"/>
      <point x="214" y="381" type="curve" smooth="yes" name="AOMSVUCX"/>
      <point x="251" y="381" name="OFMZPNIA"/>
      <point x="269" y="345" name="LHHRKWIS"/>
      <point x="263" y="292" type="curve" smooth="yes" name="DJXPURJL"/>
      <point x="252" y="196" name="RKAVHWCT"/>
      <point x="218" y="96" name="QIFZTCKO"/>
      <point x="164" y="0" type="curve" name="BUDQUWBM"/>
      <point x="199" y="0" name="EFKZJSDV"/>
      <point x="234" y="0" name="COEOBVRX"/>
      <point x="265" y="0" type="curve" name="FFNIXWLN"/>
      <point x="324" y="104" name="HQOZSDHD"/>
      <point x="358" y="210" name="OPJAPLRO"/>
      <point x="366" y="314" type="curve" smooth="yes" name="JPPMZSOY"/>
      <point x="377" y="449" name="TONILPPR"/>
      <point x="304" y="531" name="XLETOTRF"/>
      <point x="227" y="531" type="curve" smooth="yes" name="UASEECNB"/>
      <point x="192" y="531" name="JNLKRMUO"/>
      <point x="163" y="516" name="TJITMFPT"/>
      <point x="141" y="491" type="curve" name="BLWWGRPZ"/>
      <point x="126" y="570" name="UBWNMHET"/>
      <point x="94" y="651" name="RGPYJKAP"/>
      <point x="50" y="730" type="curve" name="MWXVQTSN"/>
      <point x="9" y="730" name="VHAARPCT"/>
      <point x="-36" y="730" name="SNGNMQNI"/>
      <point x="-82" y="730" type="curve" name="CXTXFDSL"/>
      <point x="54" y="489" name="KXOQVIEH"/>
      <point x="54" y="241" name="DHOTYTBB"/>
    </contour>
  </outline>
</glyph>
<glyph name="i" format="2">
  <advance width="201"/>
  <unicode hex="0069"/>
  <outline>
    <contour>
      <point x="71" y="576" type="curve" name="EORTHLMT"/>
      <point x="111" y="576" name="EVWNVOMG"/>
      <point x="124" y="622" name="MEVSEGWQ"/>
      <point x="102" y="678" type="curve" smooth="yes" name="CPEHEUPM"/>
      <point x="78" y="733" name="EDIZPBUH"/>
      <point x="25" y="779" name="XAYCUERG"/>
      <point x="-14" y="779" type="curve" smooth="yes" name="YXOIDRHZ"/>
      <point x="-55" y="779" name="ZZXTBODZ"/>
      <point x="-68" y="733" name="TGCQBOPY"/>
      <point x="-45" y="678" type="curve" smooth="yes" name="KFIZCLYG"/>
      <point x="-22" y="622" name="KBRCEJDG"/>
      <point x="30" y="576" name="WRPWNNGS"/>
      <point x="71" y="576" type="curve" name="WINLDFYY"/>
      <point x="71" y="576" name="FIWYGBKH"/>
      <point x="71" y="576" name="GIZVWOQL"/>
    </contour>
    <contour>
      <point x="-77" y="0" type="curve" name="SDTEZHUF"/>
      <point x="-33" y="0" name="YFTCVRCK"/>
      <point x="8" y="0" name="NIQDWMOU"/>
      <point x="39" y="0" type="curve" name="NANFPBJG"/>
      <point x="136" y="171" name="AMUCLZXQ"/>
      <point x="169" y="346" name="CKAABMEO"/>
      <point x="138" y="517" type="curve" name="BOLSPHDY"/>
      <point x="106" y="517" name="YIPXIPTF"/>
      <point x="65" y="517" name="TTREWCBW"/>
      <point x="21" y="517" type="curve" name="GRFAHYSX"/>
      <point x="53" y="346" name="EIRDFQMH"/>
      <point x="20" y="171" name="LYJHVYCU"/>
    </contour>
  </outline>
</glyph>
<glyph name="j" format="2">
  <advance width="215"/>
  <unicode hex="006A"/>
  <outline>
    <contour>
      <point x="58.35607870753495" y="576.0" type="curve" name="WZBGSAGU"/>
      <point x="95.83273811042199" y="576.0" name="LMHZXALM"/>
      <point x="107.14644660940672" y="622.0" name="NDBDBNFT"/>
      <point x="82.39770926787757" y="678.0" type="curve" smooth="yes" name="CVFCTQVA"/>
      <point x="58.35607870753495" y="733.0" name="LQWNUIER"/>
      <point x="5.323070118543896" y="779.0" name="JCHSDIDT"/>
      <point x="-32.15358928434313" y="779.0" type="curve" smooth="yes" name="BBGXHFGW"/>
      <point x="-71.04446224960324" y="779.0" name="WCLRVEFO"/>
      <point x="-80.9439571862149" y="733.0" name="AXSYLHZI"/>
      <point x="-56.90232662587229" y="678.0" type="curve" smooth="yes" name="WKGWCMZK"/>
      <point x="-32.15358928434313" y="622.0" name="XOPFRXJI"/>
      <point x="19.465205742274833" y="576.0" name="GYDLXZWD"/>
      <point x="58.35607870753495" y="576.0" type="curve" name="HANPLPHM"/>
      <point x="58.35607870753495" y="576.0" name="MSDSKXWL"/>
      <point x="58.35607870753495" y="576.0" name="NYSHXUQN"/>
    </contour>
    <contour>
      <point x="-1.0408909121350405" y="32.0" type="curve" smooth="yes" name="OORJDSIB"/>
      <point x="-18.71856044179873" y="-23.0" name="SSVGJARQ"/>
      <point x="-42.053084220954815" y="-37.0" name="RGEDSHWB"/>
      <point x="-90.84345212282659" y="-23.0" type="curve" name="YEMLXGMO"/>
      <point x="-109.2282284336768" y="-70.0" name="YNWQAIMW"/>
      <point x="-132.5627522128329" y="-119.0" name="POJPFUBP"/>
      <point x="-158.01859633554858" y="-166.0" type="curve" name="BNTSWGOD"/>
      <point x="-42.76019100214134" y="-191.0" name="PBGQNZZU"/>
      <point x="49.163690552109856" y="-149.0" name="CUMAVGVP"/>
      <point x="105.73223304703365" y="19.0" type="curve" smooth="yes" name="ROBTXTBF"/>
      <point x="161.5936687607709" y="183.0" name="JWCPMSXS"/>
      <point x="168.66473657263637" y="353.0" name="DVELBPRE"/>
      <point x="126.94543648263007" y="517.0" type="curve" name="ETKMPFWX"/>
      <point x="95.12563132923543" y="517.0" name="NLHUSTHJ"/>
      <point x="56.941865145161856" y="517.0" name="ATOIPURN"/>
      <point x="15.929671836342095" y="517.0" type="curve" name="OCVAHJQM"/>
      <point x="56.94186514516184" y="357.0" name="BZHCHJBP"/>
      <point x="49.870797333296366" y="192.0" name="GUHTNUYP"/>
    </contour>
  </outline>
</glyph>
<glyph name="k" format="2">
  <advance width="403"/>
  <unicode hex="006B"/>
  <outline>
    <contour>
      <point x="-82.4033726463988" y="0.0" type="curve" name="UAHUNZAY"/>
      <point x="-36.44143186927323" y="0.0" name="HGOTTMPH"/>
      <point x="9.52050890785236" y="0.0" name="JIFUMSCD"/>
      <point x="50.53270221667211" y="0.0" type="curve" name="JEZKVTKR"/>
      <point x="90.83778874430533" y="71.0" name="EUEBYAOH"/>
      <point x="119.12205999176723" y="144.0" name="FHUHMWJY"/>
      <point x="136.09262274024434" y="215.0" type="curve" name="IBYLLBPF"/>
      <point x="157.30582617584076" y="144.0" name="ZPEKBMNN"/>
      <point x="165.0840007688928" y="71.0" name="XDBASUEF"/>
      <point x="158.01293295702735" y="0.0" type="curve" name="QUXXMCJM"/>
      <point x="201.85355339059328" y="0.0" name="FUUHAKKG"/>
      <point x="242.15863991822653" y="0.0" name="LQICOFVZ"/>
      <point x="278.92819253992695" y="0.0" type="curve" name="RMTSBMXH"/>
      <point x="293.77743494484446" y="92.0" name="NJXFSMXN"/>
      <point x="285.29215357060593" y="187.0" name="LHUUKZJI"/>
      <point x="252.05813485483816" y="279.0" type="curve" name="WCKNJDPB"/>
      <point x="305.79825022501575" y="358.0" name="FXYCAFMY"/>
      <point x="342.56780284671623" y="438.0" name="OAAXCREI"/>
      <point x="359.5383655951934" y="517.0" type="curve" name="NASSYPPQ"/>
      <point x="322.7688129734929" y="517.0" name="IIHCVLSK"/>
      <point x="282.4637264458597" y="517.0" name="RGLSDMCZ"/>
      <point x="239.3302127934803" y="517.0" type="curve" name="FAJLDQMB"/>
      <point x="220.94543648263004" y="456.0" name="TSLJUDEH"/>
      <point x="192.66116523516814" y="393.0" name="QYEDSYTP"/>
      <point x="153.0631854887215" y="332.0" type="curve" name="DSWZWTDA"/>
      <point x="159.42714651940042" y="463.0" name="PKJZMXVJ"/>
      <point x="124.7789142412596" y="599.0" name="XNBLDWJV"/>
      <point x="50.53270221667211" y="730.0" type="curve" name="BJZYFAAA"/>
      <point x="9.52050890785236" y="730.0" name="PUEBCOVS"/>
      <point x="-36.44143186927323" y="730.0" name="VPCXSDMJ"/>
      <point x="-82.4033726463988" y="730.0" type="curve" name="BOCHLGBP"/>
      <point x="54.068236122604844" y="489.0" name="ARQFNMTK"/>
      <point x="54.068236122604844" y="241.0" name="HBPSJSZA"/>
    </contour>
  </outline>
</glyph>
<glyph name="l" format="2">
  <advance width="201"/>
  <unicode hex="006C"/>
  <outline>
    <contour>
      <point x="-76" y="0" type="curve" name="CJUYAYBO"/>
      <point x="-30" y="0" name="BXNSLLMR"/>
      <point x="10" y="0" name="NMZADAWX"/>
      <point x="41" y="0" type="curve" name="APLOHXXK"/>
      <point x="177" y="241" name="SJWNUYWP"/>
      <point x="177" y="489" name="MMVHIZHR"/>
      <point x="41" y="730" type="curve" name="ESPVVCIB"/>
      <point x="10" y="730" name="HEZCKGWH"/>
      <point x="-30" y="730" name="CIXKCOAE"/>
      <point x="-76" y="730" type="curve" name="SMLWGTAO"/>
      <point x="61" y="489" name="YXQXQQUG"/>
      <point x="61" y="241" name="MKPXXGOQ"/>
    </contour>
  </outline>
</glyph>
<glyph name="m" format="2">
  <advance width="613"/>
  <unicode hex="006D"/>
  <outline>
    <contour>
      <point x="-75.6912152313289" y="0.0" type="curve" name="QIIQZMQE"/>
      <point x="-29.729274454203335" y="0.0" name="SAHFRVMM"/>
      <point x="16.93977310410878" y="0.0" name="PYXSTICK"/>
      <point x="59.366179975301634" y="0.0" type="curve" name="KPPJHXVD"/>
      <point x="115.93472247022544" y="100.0" name="FDFBYLSC"/>
      <point x="140.68345981175457" y="204.0" name="NICGLDJW"/>
      <point x="132.9052852187026" y="304.0" type="curve" smooth="yes" name="PCHMUDKD"/>
      <point x="128.6626445315833" y="352.0" name="NOYWAQYA"/>
      <point x="141.39056659294113" y="381.0" name="VYCPCKTZ"/>
      <point x="174.6245853087089" y="381.0" type="curve" smooth="yes" name="CHQWFBUB"/>
      <point x="208.56571080566317" y="381.0" name="RACIMBQB"/>
      <point x="231.90023458481926" y="349.0" name="BVPDOQPP"/>
      <point x="235.43576849075197" y="304.0" type="curve" smooth="yes" name="JJAAORWI"/>
      <point x="243.92104986499055" y="204.0" name="DPJTPADH"/>
      <point x="218.46520574227486" y="100.0" name="QBTVZGHE"/>
      <point x="161.89666324735106" y="0.0" type="curve" name="VFNRGETV"/>
      <point x="202.20174977498425" y="0.0" name="LZQJUSIJ"/>
      <point x="242.50683630261744" y="0.0" name="MILOIOLD"/>
      <point x="278.5692821431314" y="0.0" type="curve" name="PFWDODGU"/>
      <point x="335.1378246380552" y="100.0" name="CYDOXGPE"/>
      <point x="360.59366876077087" y="204.0" name="BTHBOPZJ"/>
      <point x="352.10838738653234" y="304.0" type="curve" smooth="yes" name="SHYIULXC"/>
      <point x="348.5728534805996" y="352.0" name="POMHNKDX"/>
      <point x="357.7652416360247" y="381.0" name="AYGTJCFS"/>
      <point x="386.75661966467317" y="381.0" type="curve" smooth="yes" name="DFYQQPWK"/>
      <point x="415.7479976933216" y="381.0" name="JABAQQUD"/>
      <point x="436.25409434773155" y="349.0" name="CYYYOILY"/>
      <point x="440.49673503485076" y="304.0" type="curve" smooth="yes" name="YQKKSKPH"/>
      <point x="448.27490962790284" y="204.0" name="FGXZASOC"/>
      <point x="423.5261722863736" y="100.0" name="CULWGNSH"/>
      <point x="366.95762979144985" y="0.0" type="curve" name="CXOHMTCB"/>
      <point x="400.8987552884041" y="0.0" name="DQBGZYJQ"/>
      <point x="434.83988078535845" y="0.0" name="LESQXVWF"/>
      <point x="465.24547237638" y="0.0" type="curve" name="QDHFWXHJ"/>
      <point x="526.056655558423" y="107.0" name="YXWWOQOY"/>
      <point x="550.0982861187656" y="217.0" name="FOJCROQJ"/>
      <point x="536.6632572762212" y="324.0" type="curve" smooth="yes" name="DQQITIJA"/>
      <point x="520.3998013089307" y="453.0" name="CRWXUKDM"/>
      <point x="422.81906550518715" y="531.0" name="ZOHIJWDQ"/>
      <point x="345.03731957466687" y="531.0" type="curve" smooth="yes" name="JMUMYQCT"/>
      <point x="308.2677669529664" y="531.0" name="RIWJLNOI"/>
      <point x="281.3977092678776" y="513.0" name="CKKODUEG"/>
      <point x="265.84136008177353" y="482.0" type="curve" name="THEDEGFX"/>
      <point x="230.48602102244615" y="514.0" name="UKPFGSXT"/>
      <point x="190.18093449481296" y="531.0" name="DCLDMIFY"/>
      <point x="154.11848865429897" y="531.0" type="curve" smooth="yes" name="WRPAVJYS"/>
      <point x="120.17736315734473" y="531.0" name="HOJJRHNV"/>
      <point x="96.13573259700212" y="516.0" name="FHBWFARE"/>
      <point x="79.87227662971151" y="491.0" type="curve" name="UEPOCJSO"/>
      <point x="75.62963594259224" y="500.0" name="OLLDIVNY"/>
      <point x="71.38699525547295" y="508.0" name="AUSUPHFO"/>
      <point x="67.14435456835366" y="517.0" type="curve" name="QNSWTPMQ"/>
      <point x="24.71794769716081" y="517.0" name="DRORFZBK"/>
      <point x="-21.951099861151306" y="517.0" name="MIWHJAHH"/>
      <point x="-67.91304063827693" y="517.0" type="curve" name="HSHKTNZS"/>
      <point x="24.010840915974256" y="346.0" name="ISVSXDEB"/>
      <point x="21.1824137912281" y="171.0" name="MBVPOLTA"/>
    </contour>
  </outline>
</glyph>
<glyph name="n" format="2">
  <advance width="419"/>
  <unicode hex="006E"/>
  <anchor x="203.0" y="517" name="center"/>
  <outline>
    <contour>
      <point x="-92.08104217606251" y="0.0" type="curve" name="PIIMVHOT"/>
      <point x="-46.11910139893695" y="0.0" name="DPJOAQZH"/>
      <point x="-0.8642674029978821" y="0.0" name="EBGXOUOZ"/>
      <point x="40.147925905821864" y="0.0" type="curve" name="JRRRQLSR"/>
      <point x="94.59514805718604" y="96.0" name="SIVHALZJ"/>
      <point x="120.05099217990175" y="196.0" name="PMGMYMTA"/>
      <point x="114.39413793040936" y="292.0" type="curve" smooth="yes" name="LDYEYBDB"/>
      <point x="110.85860402447662" y="349.0" name="NCKAZPNI"/>
      <point x="125.00073964820757" y="381.0" name="MSQSFZNU"/>
      <point x="162.4773990510946" y="381.0" type="curve" smooth="yes" name="TMYYOJGU"/>
      <point x="199.9540584539816" y="381.0" name="ZVWRUJDM"/>
      <point x="225.40990257669733" y="345.0" name="GWEYZRNI"/>
      <point x="228.2383297014435" y="292.0" type="curve" smooth="yes" name="BSZDXINI"/>
      <point x="233.89518395093592" y="196.0" name="ATUTTIES"/>
      <point x="208.43933982822017" y="96.0" name="PPPEKMJV"/>
      <point x="153.99211767685603" y="0.0" type="curve" name="SWUHQTZT"/>
      <point x="189.3474567361834" y="0.0" name="LODERFXP"/>
      <point x="224.70279579551078" y="0.0" name="JIFTILZI"/>
      <point x="255.10838738653234" y="0.0" type="curve" name="DDGJQNNG"/>
      <point x="313.79825022501575" y="104.0" name="DQDMKESK"/>
      <point x="338.54698756654494" y="210.0" name="QQINRWSI"/>
      <point x="327.23327906756015" y="314.0" type="curve" smooth="yes" name="MKAEEPBD"/>
      <point x="313.0911434438292" y="449.0" name="RXWSPRFL"/>
      <point x="212.6819805153395" y="531.0" name="WPKCNLMY"/>
      <point x="134.90023458481926" y="531.0" type="curve" smooth="yes" name="TYVAKJEP"/>
      <point x="100.25200230667843" y="531.0" name="UXRTDJCE"/>
      <point x="76.2103717463358" y="516.0" name="EHOTYYSL"/>
      <point x="61.36112934141829" y="491.0" type="curve" name="VGVMCBDM"/>
      <point x="56.411381873112475" y="500.0" name="XPLOURNH"/>
      <point x="52.87584796717974" y="508.0" name="ANMPWSCW"/>
      <point x="47.92610049887389" y="517.0" type="curve" name="RSQPDUMP"/>
      <point x="7.6210139712407" y="517.0" name="XZAPMYJW"/>
      <point x="-38.34092680588492" y="517.0" name="RMCCBIWK"/>
      <point x="-84.30286758301048" y="517.0" type="curve" name="LSPEOLYM"/>
      <point x="7.6210139712406715" y="346.0" name="JMEWJYKF"/>
      <point x="4.792586846494487" y="171.0" name="IKUVQRHO"/>
    </contour>
  </outline>
</glyph>
<glyph name="o" format="2">
  <advance width="424"/>
  <unicode hex="006F"/>
  <anchor x="-88.0" y="527" name="top"/>
  <outline>
    <contour>
      <point x="97.44870144777931" y="-16.0" type="curve" name="BHHNJKGN"/>
      <point x="207.75735931288074" y="-16.0" name="GGPZBMAE"/>
      <point x="349.8858223313768" y="102.0" name="MXYAJHYC"/>
      <point x="349.17871555019025" y="259.0" type="curve" smooth="yes" name="TIPKPBFG"/>
      <point x="349.17871555019025" y="417.0" name="CYBWWAJC"/>
      <point x="207.75735931288074" y="533.0" name="PJQTMGRR"/>
      <point x="97.44870144777931" y="533.0" type="curve" smooth="yes" name="CWDGRITY"/>
      <point x="-12.85995641732211" y="533.0" name="TFAXDPDT"/>
      <point x="-36.90158697766475" y="417.0" name="IFGXFASU"/>
      <point x="-36.90158697766475" y="259.0" type="curve" smooth="yes" name="LKLMYJFT"/>
      <point x="-36.90158697766475" y="102.0" name="MCTQPHGV"/>
      <point x="-12.85995641732211" y="-16.0" name="KGCEYFCC"/>
      <point x="97.44870144777931" y="-16.0" type="curve" name="QARXVYCX"/>
      <point x="97.44870144777931" y="-16.0" name="YKJQOXTN"/>
      <point x="97.44870144777931" y="-16.0" name="YUGGLTWH"/>
    </contour>
    <contour>
      <point x="159.6740981921955" y="133.0" type="curve" name="BFNOCEOG"/>
      <point x="113.7121574150699" y="133.0" name="ZJHBUMCR"/>
      <point x="96.03448788540621" y="185.0" name="VAFLJIUN"/>
      <point x="96.03448788540621" y="259.0" type="curve" smooth="yes" name="JIZHHCPF"/>
      <point x="96.03448788540621" y="333.0" name="CKCCFZPZ"/>
      <point x="113.7121574150699" y="384.0" name="PQVDROQW"/>
      <point x="159.6740981921955" y="384.0" type="curve" smooth="yes" name="UREKXODW"/>
      <point x="205.63603896932108" y="384.0" name="GBNRUFIP"/>
      <point x="248.76955262170048" y="333.0" name="GTOZJHSX"/>
      <point x="248.76955262170048" y="259.0" type="curve" smooth="yes" name="YPWMWSGT"/>
      <point x="248.76955262170048" y="185.0" name="VORXEHSH"/>
      <point x="205.63603896932108" y="133.0" name="HFUUKCFK"/>
      <point x="159.6740981921955" y="133.0" type="curve" name="EVYSAIXP"/>
      <point x="159.6740981921955" y="133.0" name="VOTQUBNK"/>
      <point x="159.6740981921955" y="133.0" name="XLMJEXUY"/>
    </contour>
  </outline>
</glyph>
<glyph name="p" format="2">
  <advance width="438"/>
  <unicode hex="0070"/>
  <outline>
    <contour>
      <point x="28.788275860818715" y="-160.0" type="curve" name="JQDNGGOX"/>
      <point x="64.14361492014609" y="-97.0" name="HDLBQUXE"/>
      <point x="90.30656582404833" y="-33.0" name="XILNOOKV"/>
      <point x="106.57002179133895" y="30.0" type="curve" name="OMMBLGEF"/>
      <point x="124.24769132100263" y="2.0" name="BMBHSGQI"/>
      <point x="150.4106422249049" y="-14.0" name="SSQKZZMT"/>
      <point x="184.35176772185918" y="-14.0" type="curve" smooth="yes" name="OYDFRUCK"/>
      <point x="278.39696961967" y="-14.0" name="SAUMJOFA"/>
      <point x="388.7056274847714" y="99.0" name="RRSDTJKR"/>
      <point x="369.61374439273465" y="259.0" type="curve" smooth="yes" name="TVGSKXMO"/>
      <point x="350.5218613006979" y="421.0" name="DNVXROWM"/>
      <point x="212.63603896932108" y="531.0" name="BRMPAQFM"/>
      <point x="120.00505063388334" y="531.0" type="curve" smooth="yes" name="IASEPPLS"/>
      <point x="86.06392513692907" y="531.0" name="NILANOYM"/>
      <point x="63.43650813895954" y="515.0" name="SBJYTSTE"/>
      <point x="51.41569285878825" y="488.0" type="curve" name="UPEQXKGY"/>
      <point x="45.75883860929588" y="498.0" name="SPMTMKGG"/>
      <point x="41.51619792217656" y="507.0" name="CWMFUKVO"/>
      <point x="36.56645045387074" y="517.0" type="curve" name="NXLDXJXD"/>
      <point x="-4.445742854949003" y="517.0" name="NURXOJEP"/>
      <point x="-50.40768363207462" y="517.0" name="CDFTNLIV"/>
      <point x="-96.36962440920018" y="517.0" type="curve" name="GNHPPXLC"/>
      <point x="24.545635173699424" y="294.0" name="TGXQZNWN"/>
      <point x="21.71720804895324" y="63.0" name="YJHMEZCN"/>
      <point x="-104.14779900225221" y="-160.0" type="curve" name="YKIGDLJR"/>
      <point x="-58.185858225126594" y="-160.0" name="ZPJAIXTU"/>
      <point x="-12.223917448001032" y="-160.0" name="WYPBOVLH"/>
    </contour>
    <contour>
      <point x="199.20101012677668" y="132.0" type="curve" name="UGQSTJBP"/>
      <point x="153.9461761308376" y="132.0" name="UERWIUBN"/>
      <point x="127.78322522693537" y="183.0" name="XQQWAZVN"/>
      <point x="118.59083707151024" y="259.0" type="curve" smooth="yes" name="EMEYJXFZ"/>
      <point x="110.10555569727168" y="335.0" name="HBVZYOOM"/>
      <point x="123.54058453981608" y="385.0" name="NKRRSLFD"/>
      <point x="168.79541853575512" y="385.0" type="curve" smooth="yes" name="OEDNKNEZ"/>
      <point x="214.75735931288074" y="385.0" name="ZKJRBGDF"/>
      <point x="260.01219330881975" y="336.0" name="CNNPKYVF"/>
      <point x="269.2045814642449" y="259.0" type="curve" smooth="yes" name="WHPRBUKO"/>
      <point x="277.68986283848346" y="182.0" name="BNKZFRQX"/>
      <point x="245.16295090390224" y="132.0" name="IYXLEQCE"/>
      <point x="199.20101012677668" y="132.0" type="curve" name="FVBXABWI"/>
      <point x="199.20101012677668" y="132.0" name="DIYBQHDC"/>
      <point x="199.20101012677668" y="132.0" name="EEQTYVUU"/>
    </contour>
  </outline>
</glyph>
<glyph name="q" format="2">
  <advance width="438"/>
  <unicode hex="0071"/>
  <outline>
    <contour>
      <point x="177" y="-160" type="curve" name="PMKPQGFS"/>
      <point x="212" y="-160" name="ANJNMVRM"/>
      <point x="247" y="-160" name="VHFKXJBG"/>
      <point x="278" y="-160" type="curve" name="SWXKNUND"/>
      <point x="404" y="63" name="RTGZBGQH"/>
      <point x="406" y="294" name="OJYNQWCX"/>
      <point x="285" y="517" type="curve" name="XCDGVFRU"/>
      <point x="255" y="517" name="AOOIHPDH"/>
      <point x="220" y="517" name="CUOWRNPQ"/>
      <point x="185" y="517" type="curve" name="MCIAOYOV"/>
      <point x="191" y="507" name="KYQEETOD"/>
      <point x="195" y="498" name="XPKBKHBO"/>
      <point x="200" y="488" type="curve" name="GIAKAAVG"/>
      <point x="165" y="515" name="QFQIOCIB"/>
      <point x="126" y="531" name="UWKIZIVK"/>
      <point x="92" y="531" type="curve" smooth="yes" name="NLNTSBRQ"/>
      <point x="-4" y="531" name="IHTYFBHI"/>
      <point x="-29" y="421" name="BHKWEPIY"/>
      <point x="-9" y="259" type="curve" smooth="yes" name="ECSQCIUU"/>
      <point x="10" y="99" name="BJDCOQZJ"/>
      <point x="61" y="-14" name="APRCDRXS"/>
      <point x="157" y="-14" type="curve" smooth="yes" name="YOALQQHN"/>
      <point x="191" y="-14" name="GIFCFCTI"/>
      <point x="226" y="2" name="RXFBRQDA"/>
      <point x="255" y="30" type="curve" name="MBJDDMHS"/>
      <point x="240" y="-33" name="FFRPLXNK"/>
      <point x="213" y="-97" name="FLOSXRZQ"/>
    </contour>
    <contour>
      <point x="203" y="132" type="curve" name="XJZTOSPU"/>
      <point x="157" y="132" name="SJQIOBTU"/>
      <point x="132" y="182" name="TLOLVDDG"/>
      <point x="124" y="259" type="curve" smooth="yes" name="CFOJIGTV"/>
      <point x="114" y="336" name="GSHFGDFR"/>
      <point x="127" y="385" name="PZDLBITG"/>
      <point x="173" y="385" type="curve" smooth="yes" name="WYFEHSSL"/>
      <point x="218" y="385" name="AAXCOGHL"/>
      <point x="264" y="335" name="OELJPAOK"/>
      <point x="273" y="259" type="curve" smooth="yes" name="QBTOEPKN"/>
      <point x="282" y="183" name="PFFOMOTP"/>
      <point x="249" y="132" name="YGFHOBJT"/>
      <point x="203" y="132" type="curve" name="UYFTBTAJ"/>
      <point x="203" y="132" name="NJYEVEVO"/>
      <point x="203" y="132" name="XQGOCAYK"/>
    </contour>
  </outline>
</glyph>
<glyph name="r" format="2">
  <advance width="279"/>
  <unicode hex="0072"/>
  <outline>
    <contour>
      <point x="-89.2490437138481" y="0.0" type="curve" name="GJCYZUFA"/>
      <point x="-43.28710293672253" y="0.0" name="GDMRHFDA"/>
      <point x="1.2606242780299795" y="0.0" name="NANLRQYU"/>
      <point x="38.73728368091699" y="0.0" type="curve" name="IHGPRGVL"/>
      <point x="89.6489719263484" y="90.0" name="VQCMRXAS"/>
      <point x="115.10481604906411" y="183.0" name="VKSQXPYH"/>
      <point x="113.69060248669103" y="273.0" type="curve" smooth="yes" name="ZAJUDPZP"/>
      <point x="112.27638892431793" y="346.0" name="SNFOTYXJ"/>
      <point x="137.73223304703365" y="381.0" name="LYPLNDCP"/>
      <point x="201.3718433538229" y="366.0" type="curve" name="LKCGCOZQ"/>
      <point x="190.05813485483816" y="419.0" name="AMJVLQAH"/>
      <point x="167.43071785686863" y="475.0" name="ZXWYBOWG"/>
      <point x="137.73223304703365" y="528.0" type="curve" name="SYUIIJEF"/>
      <point x="99.54846686296008" y="534.0" name="ACUCUPIE"/>
      <point x="74.79972952143092" y="518.0" name="PSLLPKZZ"/>
      <point x="59.950487116513415" y="489.0" type="curve" name="DSCQRQIB"/>
      <point x="55.000739648207585" y="498.0" name="NBGFNUNB"/>
      <point x="50.758098961088294" y="508.0" name="NNUENTUJ"/>
      <point x="45.808351492782464" y="517.0" type="curve" name="CSWCPZLI"/>
      <point x="7.624585308708902" y="517.0" name="LEGIXXPB"/>
      <point x="-36.21603512485706" y="517.0" name="IJJZATGZ"/>
      <point x="-82.17797590198265" y="517.0" type="curve" name="XHSEKLHT"/>
      <point x="9.745905652268533" y="346.0" name="PXMWJQBN"/>
      <point x="7.624585308708902" y="171.0" name="HPESOJVZ"/>
    </contour>
  </outline>
</glyph>
<glyph name="s" format="2">
  <advance width="335"/>
  <unicode hex="0073"/>
  <outline>
    <contour>
      <point x="254.82768747653864" y="160.0" type="curve" name="GEVISUOS"/>
      <point x="293.7185604417988" y="352.0" name="TCLQVGGH"/>
      <point x="107.74947698973673" y="310.0" name="NQROQMOS"/>
      <point x="95.02155492837886" y="365.0" type="curve" smooth="yes" name="SEYXWCFQ"/>
      <point x="85.82916677295378" y="406.0" name="FKEESTLF"/>
      <point x="162.1966991411009" y="408.0" name="XJROWUJX"/>
      <point x="238.56423150924803" y="354.0" type="curve" name="MCGUKFRJ"/>
      <point x="227.9576297914498" y="405.0" name="OVLVCVJX"/>
      <point x="209.57285348059958" y="459.0" name="OWYDOZKM"/>
      <point x="182.70279579551078" y="510.0" type="curve" name="YZQYGHYB"/>
      <point x="39.86722599582819" y="571.0" name="MMLMEXYH"/>
      <point x="-66.19879118215394" y="507.0" name="HYLQCYNC"/>
      <point x="-35.79319959113241" y="357.0" type="curve" smooth="yes" name="IDVDWCGU"/>
      <point x="1.6834598117546022" y="170.0" name="GYJZAVWL"/>
      <point x="162.1966991411009" y="211.0" name="BFTBXAUN"/>
      <point x="150.1758838609296" y="154.0" type="curve" smooth="yes" name="GRUHXGDB"/>
      <point x="139.56928214313137" y="107.0" name="CKEVINKN"/>
      <point x="57.54489552549185" y="115.0" name="UUCMFDDE"/>
      <point x="-27.307918216893825" y="165.0" type="curve" name="DTBJBBHV"/>
      <point x="-37.20741315350551" y="114.0" name="WTQXTXVO"/>
      <point x="-56.29929624554228" y="60.0" name="QYAKTKZE"/>
      <point x="-82.46224714944452" y="9.0" type="curve" name="BKMBXHDK"/>
      <point x="54.71646840074568" y="-48.0" name="XPGNYAUP"/>
      <point x="220.88656197958437" y="-6.0" name="YBIOINUU"/>
      <point x="254.82768747653864" y="160.0" type="curve" name="HNETJSQO"/>
      <point x="254.82768747653864" y="160.0" name="MZKAPXFM"/>
      <point x="254.82768747653864" y="160.0" name="YUGIZXJM"/>
    </contour>
  </outline>
</glyph>
<glyph name="t" format="2">
  <advance width="277"/>
  <unicode hex="0074"/>
  <anchor x="140.0" y="657" name="above"/>
  <anchor x="140.0" y="0" name="below"/>
  <anchor x="193.0" y="557" name="right"/>
  <outline>
    <contour>
      <point x="-31" y="0" type="curve" name="OHKGUJBK"/>
      <point x="12" y="0" name="YPMNHXOV"/>
      <point x="52" y="0" name="IKODEIIP"/>
      <point x="87" y="0" type="curve" name="RTPGBBPF"/>
      <point x="156" y="122" name="ELVMKADN"/>
      <point x="187" y="247" name="GSNBCERE"/>
      <point x="178" y="369" type="curve" name="ZFZSUZUL"/>
      <point x="198" y="369" name="XTXEWMJW"/>
      <point x="217" y="369" name="EGSPLJGM"/>
      <point x="235" y="369" type="curve" name="GMGTFPYP"/>
      <point x="231" y="418" name="CXJXHWWW"/>
      <point x="222" y="468" name="YCCDAUGY"/>
      <point x="205" y="517" type="curve" name="NYLTLWAA"/>
      <point x="188" y="517" name="LIIQYLQJ"/>
      <point x="169" y="517" name="MQXPQCFF"/>
      <point x="149" y="517" type="curve" name="UGGEAXRY"/>
      <point x="133" y="563" name="ITHOJMUJ"/>
      <point x="113" y="609" name="SURWPPLQ"/>
      <point x="87" y="655" type="curve" name="DFJAAUVJ"/>
      <point x="52" y="655" name="KRFAMLFK"/>
      <point x="12" y="655" name="MHSIQCHB"/>
      <point x="-31" y="655" type="curve" name="IBLHQLZR"/>
      <point x="-5" y="609" name="CTDQEYIB"/>
      <point x="16" y="563" name="ZCUEWHMK"/>
      <point x="31" y="517" type="curve" name="JUJCPZIC"/>
      <point x="10" y="517" name="FHTQPLBS"/>
      <point x="-12" y="517" name="IRIWCYQQ"/>
      <point x="-35" y="517" type="curve" name="CZALHJKL"/>
      <point x="-19" y="468" name="QCCSVGQB"/>
      <point x="-9" y="418" name="BCIAENFR"/>
      <point x="-5" y="369" type="curve" name="HSDVIWBG"/>
      <point x="17" y="369" name="JIPHMFIC"/>
      <point x="39" y="369" name="RRXZRXKF"/>
      <point x="60" y="369" type="curve" name="BKVRLUQE"/>
      <point x="69" y="247" name="PRHBIHAD"/>
      <point x="38" y="122" name="OLQDLKLV"/>
    </contour>
  </outline>
</glyph>
<glyph name="u" format="2">
  <advance width="419"/>
  <unicode hex="0075"/>
  <outline>
    <contour>
      <point x="271" y="517" type="curve" name="PPZTJWRN"/>
      <point x="240" y="517" name="AEVSBTEE"/>
      <point x="205" y="517" name="LNSEXQOC"/>
      <point x="170" y="517" type="curve" name="QYRROEIH"/>
      <point x="224" y="421" name="ZLPCSFCC"/>
      <point x="249" y="321" name="TGBZDAPL"/>
      <point x="244" y="225" type="curve" smooth="yes" name="GMOTZUMW"/>
      <point x="240" y="168" name="LFIABLVC"/>
      <point x="211" y="136" name="JZKJCZRG"/>
      <point x="173" y="136" type="curve" smooth="yes" name="KJJFXAZH"/>
      <point x="136" y="136" name="XIWQTPVK"/>
      <point x="127" y="172" name="UGZIBCST"/>
      <point x="130" y="225" type="curve" smooth="yes" name="KGKDVSVN"/>
      <point x="136" y="321" name="JGOMWEFR"/>
      <point x="110" y="421" name="DHUTSBVQ"/>
      <point x="56" y="517" type="curve" name="POAJDLPY"/>
      <point x="15" y="517" name="IXJWNVFI"/>
      <point x="-31" y="517" name="TODMFPZJ"/>
      <point x="-77" y="517" type="curve" name="QVKRMWJA"/>
      <point x="-18" y="413" name="COWPLLSU"/>
      <point x="7" y="307" name="DXARDKKY"/>
      <point x="-4" y="203" type="curve" smooth="yes" name="RXKQBBPJ"/>
      <point x="-19" y="68" name="QLYSKIPY"/>
      <point x="-7" y="-14" name="DTIJNGUM"/>
      <point x="76" y="-14" type="curve" smooth="yes" name="PNIUSOXF"/>
      <point x="115" y="-14" name="QAIDCIGJ"/>
      <point x="155" y="1" name="EZIGRJVQ"/>
      <point x="191" y="26" type="curve" name="JFNJQQEG"/>
      <point x="186" y="17" name="LNTIREQF"/>
      <point x="182" y="9" name="LIKITXOO"/>
      <point x="177" y="0" type="curve" name="ETLSGMWV"/>
      <point x="213" y="0" name="OSGRROZW"/>
      <point x="248" y="0" name="KZSVTFMV"/>
      <point x="278" y="0" type="curve" name="XEAUCMOR"/>
      <point x="370" y="171" name="AQWNUFYQ"/>
      <point x="368" y="346" name="TTAMHFIY"/>
    </contour>
  </outline>
</glyph>
<glyph name="v" format="2">
  <advance width="382"/>
  <unicode hex="0076"/>
  <outline>
    <contour>
      <point x="8.566450453870743" y="0.0" type="curve" name="HQYCHSGZ"/>
      <point x="56.649711574555994" y="0.0" name="WVEJUSGY"/>
      <point x="103.31875913286814" y="0.0" name="ZHMHTTEE"/>
      <point x="144.33095244168788" y="0.0" type="curve" name="FRANJGCB"/>
      <point x="280.095454429505" y="171.0" name="GDVUYLJW"/>
      <point x="317.572113832392" y="346.0" name="UZYFUYOV"/>
      <point x="253.93250352560278" y="517.0" type="curve" name="UOLULYYR"/>
      <point x="222.11269837220811" y="517.0" name="GHYXXVBM"/>
      <point x="186.75735931288074" y="517.0" name="VBEVQELP"/>
      <point x="150.6949134723668" y="517.0" type="curve" name="LKOUEQDT"/>
      <point x="187.4644660940673" y="412.0" name="KJFMWRQX"/>
      <point x="186.75735931288074" y="305.0" name="ZGCSLPPG"/>
      <point x="149.98780669118025" y="200.0" type="curve" name="KCNTRHTD"/>
      <point x="139.38120497338204" y="305.0" name="FHCYZEAA"/>
      <point x="89.17662350913716" y="412.0" name="BAAEKVGB"/>
      <point x="4.323809766751481" y="517.0" type="curve" name="OCUVEJJL"/>
      <point x="-38.809703885627954" y="517.0" name="JQXUOBWZ"/>
      <point x="-86.18585822512665" y="517.0" name="CPZLNAHK"/>
      <point x="-134.97622612699843" y="517.0" type="curve" name="EANHYMIL"/>
      <point x="12.101984359803453" y="346.0" name="DMGZNALR"/>
      <point x="60.892352261675256" y="171.0" name="GKCDLMMM"/>
    </contour>
  </outline>
</glyph>
<glyph name="w" format="2">
  <advance width="548"/>
  <unicode hex="0077"/>
  <outline>
    <contour>
      <point x="17.320238429283222" y="0.0" type="curve" name="TYADESJX"/>
      <point x="59.03953851928955" y="0.0" name="PLWMYIKM"/>
      <point x="101.4659453904824" y="0.0" name="XPRVLDLZ"/>
      <point x="140.35681835574252" y="0.0" type="curve" name="AKQFWWHN"/>
      <point x="201.87510831897214" y="82.0" name="LSXUVIKR"/>
      <point x="243.59440840897844" y="167.0" name="CSKWDKIK"/>
      <point x="259.85786437626905" y="249.0" type="curve" name="QPMSIVSV"/>
      <point x="273.29289321881345" y="167.0" name="WYBDCZJW"/>
      <point x="264.10050506338837" y="82.0" name="CDUQXLDH"/>
      <point x="232.2806999099937" y="0.0" type="curve" name="VQMOQUZK"/>
      <point x="268.34314575050763" y="0.0" name="IJPTLRRN"/>
      <point x="305.1126983722081" y="0.0" name="NZGTOKHI"/>
      <point x="338.34671708797583" y="0.0" type="curve" name="FDSWUESH"/>
      <point x="467.04015126392744" y="171.0" name="WXXXCXXB"/>
      <point x="498.8599564173221" y="346.0" name="FPWPOWTX"/>
      <point x="431.6848122046001" y="517.0" type="curve" name="HPBEFSOG"/>
      <point x="401.27922061357856" y="517.0" name="PPEEMWQZ"/>
      <point x="367.3380951166243" y="517.0" name="MRFQVFLY"/>
      <point x="334.10407640085657" y="517.0" type="curve" name="GSWYCEUZ"/>
      <point x="370.873629022557" y="423.0" name="LWBVZNKP"/>
      <point x="377.94469683442253" y="325.0" name="PYPIDUSI"/>
      <point x="354.6101730552664" y="231.0" type="curve" name="YSNHQWQV"/>
      <point x="346.12489168102786" y="325.0" name="CCBEOJRY"/>
      <point x="305.1126983722081" y="423.0" name="AGAQKAFE"/>
      <point x="237.23044737829952" y="517.0" type="curve" name="NOIYVNSJ"/>
      <point x="205.4106422249049" y="517.0" name="PQBZMNTS"/>
      <point x="172.1766235091372" y="517.0" name="WFQONGVT"/>
      <point x="137.52839123099633" y="517.0" type="curve" name="IVYKHCCN"/>
      <point x="174.2979438526968" y="424.0" name="DESCLUKH"/>
      <point x="180.6619048833757" y="327.0" name="YAQKDKKY"/>
      <point x="159.44870144777929" y="234.0" type="curve" name="WHIXWSZD"/>
      <point x="144.59945904286178" y="327.0" name="XOWANWZL"/>
      <point x="97.93041148454967" y="424.0" name="XNAPJWDF"/>
      <point x="25.09841302233525" y="517.0" type="curve" name="TRQBXZNO"/>
      <point x="-18.035100630044155" y="517.0" name="ZDSSPGWN"/>
      <point x="-64.70414818835627" y="517.0" name="LGHKMMZA"/>
      <point x="-111.37319574666844" y="517.0" type="curve" name="MQSXSAOY"/>
      <point x="29.341053709454542" y="346.0" name="WWCFXYQX"/>
      <point x="72.47456736183395" y="171.0" name="EDUKVOXF"/>
    </contour>
  </outline>
</glyph>
<glyph name="x" format="2">
  <advance width="382"/>
  <unicode hex="0078"/>
  <outline>
    <contour>
      <point x="-99.62088706767105" y="517.0" type="curve" name="YKTDXTZQ"/>
      <point x="-8.404112294606392" y="434.0" name="XHTZXRJX"/>
      <point x="59.47813869930215" y="348.0" name="BFZMINBT"/>
      <point x="100.49033200812192" y="265.0" type="curve" name="IECWMLSP"/>
      <point x="59.47813869930215" y="178.0" name="WQZFSXLX"/>
      <point x="-10.525432638166052" y="87.0" name="ZXZLYZEV"/>
      <point x="-105.98484809834997" y="0.0" type="curve" name="JLUGSDDS"/>
      <point x="-55.073159852918536" y="0.0" name="DYTCRJZY"/>
      <point x="-5.575685169860208" y="0.0" name="FFDNXBKT"/>
      <point x="39.67914882607883" y="0.0" type="curve" name="GNBZDYRV"/>
      <point x="84.93398282201787" y="45.0" name="UVHUXIJS"/>
      <point x="125.94617613083761" y="92.0" name="OJOWEUYJ"/>
      <point x="157.05887450304573" y="137.0" type="curve" name="TJRVXFDA"/>
      <point x="164.1299423149112" y="92.0" name="ODUNEFYF"/>
      <point x="162.7157287525381" y="45.0" name="UTBGQWQD"/>
      <point x="155.64466094067262" y="0.0" type="curve" name="XDTZARFL"/>
      <point x="195.94974746830587" y="0.0" name="JVLTHOCM"/>
      <point x="234.1335136523794" y="0.0" name="TWOUBOMX"/>
      <point x="268.78174593052023" y="0.0" type="curve" name="JCWBITCC"/>
      <point x="288.58073580374355" y="89.0" name="MZJUXHSI"/>
      <point x="278.6812408671319" y="181.0" name="IRFCFLHR"/>
      <point x="241.20458146424488" y="270.0" type="curve" name="YEXIGYYJ"/>
      <point x="273.0243866176395" y="352.0" name="XKGWBLUA"/>
      <point x="282.2167747730647" y="435.0" name="SAKRJEIK"/>
      <point x="265.2462120245875" y="517.0" type="curve" name="OPGOCFEI"/>
      <point x="231.3050865276332" y="517.0" name="DVKCYUDW"/>
      <point x="193.12132034355966" y="517.0" name="ILTRWDGM"/>
      <point x="152.81623381592644" y="517.0" type="curve" name="GZHOYSPQ"/>
      <point x="158.47308806541884" y="477.0" name="XIVDLUYR"/>
      <point x="158.47308806541884" y="436.0" name="HPWUMWWL"/>
      <point x="153.523340597113" y="396.0" type="curve" name="RXULEPKC"/>
      <point x="124.53196256846454" y="436.0" name="OZMLKFWN"/>
      <point x="87.76240994676405" y="477.0" name="LXDVIPCF"/>
      <point x="46.750216637944305" y="517.0" type="curve" name="XQHLXJIA"/>
      <point x="1.4953826420052678" y="517.0" name="VCAJHNZM"/>
      <point x="-48.00209204105306" y="517.0" name="ZCYSMKJX"/>
    </contour>
  </outline>
</glyph>
<glyph name="y" format="2">
  <advance width="382"/>
  <unicode hex="0079"/>
  <outline>
    <contour>
      <point x="-35.98127676088174" y="-160.0" type="curve" name="AYGSPRJM"/>
      <point x="9.273557235057297" y="-160.0" name="CWIALNYX"/>
      <point x="53.11417766862323" y="-160.0" name="IQFJVXEO"/>
      <point x="93.41926419625645" y="-160.0" type="curve" name="QZUTKWZI"/>
      <point x="282.2167747730646" y="63.0" name="OXIDFXBJ"/>
      <point x="339.492424049175" y="294.0" name="AYAVWNQW"/>
      <point x="263.8319984622144" y="517.0" type="curve" name="MUYDXRDJ"/>
      <point x="232.0121933088198" y="517.0" name="HYEUEVDF"/>
      <point x="196.65685424949243" y="517.0" name="TQAYNSZN"/>
      <point x="159.1801948466054" y="517.0" type="curve" name="EAGQVVXW"/>
      <point x="186.75735931288074" y="431.0" name="ELWYHPSX"/>
      <point x="194.53553390593277" y="342.0" name="VUZNXMZT"/>
      <point x="183.22182540694797" y="256.0" type="curve" name="XFOLWOBM"/>
      <point x="147.15937956643404" y="342.0" name="ZDMLLJIH"/>
      <point x="90.59083707151026" y="431.0" name="HHVUCIJB"/>
      <point x="15.637518265736219" y="517.0" type="curve" name="HFETTWBP"/>
      <point x="-28.20310216782974" y="517.0" name="DUPWVWRS"/>
      <point x="-75.57925650732841" y="517.0" name="RZOXPLIK"/>
      <point x="-125.07673119038674" y="517.0" type="curve" name="YKBCDZZW"/>
      <point x="14.930411484549666" y="364.0" name="FGCPUSDC"/>
      <point x="95.54058453981608" y="205.0" name="ZUFTFOHU"/>
      <point x="110.38982694473358" y="52.0" type="curve" name="GEVXGJFZ"/>
      <point x="75.74159466659273" y="-18.0" name="PVGTSOBD"/>
      <point x="24.829906421161354" y="-90.0" name="MTOBORGE"/>
    </contour>
  </outline>
</glyph>
